<svg id="Page-1" xmlns="http://www.w3.org/2000/svg" width="138.875" height="89.596" viewBox="0 0 138.875 89.596">
  <g id="Logo" transform="translate(0)">
    <g id="Aadhaar-English-Logo">
      <g id="English-Logo">
        <path id="Fill-28" d="M0,69.468a9.945,9.945,0,0,0,3.1-2.821A26.161,26.161,0,0,1,6.7,62.819a13.521,13.521,0,0,1,6.6-3.046,57.289,57.289,0,0,0-.833,9.695ZM9.3,34.735h0v0a9.951,9.951,0,0,0,4.093-.893,26.186,26.186,0,0,1,5.037-1.512,13.505,13.505,0,0,1,7.278.68,56.975,56.975,0,0,0-9.727,16.782,13.531,13.531,0,0,1-4.2-5.943,26.159,26.159,0,0,1-1.21-5.119A9.949,9.949,0,0,0,9.3,34.735ZM34.717,9.307h0v0a9.941,9.941,0,0,0,3.992,1.274,26.116,26.116,0,0,1,5.117,1.21,13.505,13.505,0,0,1,5.964,4.229A56.9,56.9,0,0,0,33,25.73a13.514,13.514,0,0,1-.682-7.289A26.124,26.124,0,0,1,33.825,13.4,9.939,9.939,0,0,0,34.717,9.307ZM69.437,0V0l0,0a9.918,9.918,0,0,0,2.82,3.1,26.226,26.226,0,0,1,3.826,3.608,13.52,13.52,0,0,1,3.052,6.657,57.336,57.336,0,0,0-19.4,0A13.516,13.516,0,0,1,62.79,6.708,26.234,26.234,0,0,1,66.616,3.1,9.919,9.919,0,0,0,69.437,0Zm34.718,9.307v0h0a9.943,9.943,0,0,0,.894,4.1,26.213,26.213,0,0,1,1.511,5.038,13.531,13.531,0,0,1-.683,7.288A56.933,56.933,0,0,0,89.084,16.02a13.507,13.507,0,0,1,5.963-4.229,26.092,26.092,0,0,1,5.117-1.211A9.92,9.92,0,0,0,104.155,9.307Zm25.417,25.427h0a9.957,9.957,0,0,0-1.273,3.994,26.185,26.185,0,0,1-1.21,5.118,13.526,13.526,0,0,1-4.2,5.944,56.944,56.944,0,0,0-9.727-16.782,13.508,13.508,0,0,1,7.278-.68,26.166,26.166,0,0,1,5.036,1.512A9.932,9.932,0,0,0,129.572,34.733Zm-4,25.039a13.526,13.526,0,0,1,6.6,3.047,26.128,26.128,0,0,1,3.607,3.828,9.933,9.933,0,0,0,3.1,2.821H126.4A57.364,57.364,0,0,0,125.568,59.772ZM85.992,19.543A52.81,52.81,0,0,1,122.2,69.469H111.824C112.511,49.139,103.642,30.789,85.992,19.543Z" transform="translate(0 0)" fill="#fab401" fill-rule="evenodd"/>
        <path id="Fill-29" d="M80.5,60.942H85.89a57.083,57.083,0,0,0-2.137-18.867,33.772,33.772,0,0,0-1.288-3.467,29.64,29.64,0,0,0-4.532-7.184A31.148,31.148,0,0,0,70.7,25.075a27.167,27.167,0,0,0-2.52-1.4h0a25.436,25.436,0,0,0-2.67-1.124l0,0c-10.5-3.729-21.118-1.077-30.026,3.771-1.736.945-3.408,1.972-5,3.052s-3.105,2.213-4.53,3.368h0l0,0a61.671,61.671,0,0,0-5.9,5.469c-.412.437-.82.881-1.215,1.332-1.06,1.2-2.692,2.886-2.209,4.628.384,1.382,2.165.974,2.787.5a18.115,18.115,0,0,0,2.894-2.08c1.212-1.026,2.357-2.132,3.558-3.173a59.957,59.957,0,0,1,14.9-9.655q1.63-.718,3.258-1.29t3.22-.985h0c9.275-2.41,19.354-.848,25.807,6.718C79.269,41.489,80.4,51.246,80.5,60.942ZM13.6,52.7a18.438,18.438,0,0,0,1.785-2.028,2.827,2.827,0,0,0,.607-2.913,2.005,2.005,0,0,0-.542-.72,1.857,1.857,0,0,0-.778-.388,2.267,2.267,0,0,0-2.252.957,9.864,9.864,0,0,0-2.145,4.139,3.046,3.046,0,0,0-.025.8,1.973,1.973,0,0,0,.2.695v0h0a.988.988,0,0,0,.9.547,1.858,1.858,0,0,0,.275-.012,2.491,2.491,0,0,0,.31-.055h0A3.9,3.9,0,0,0,13.6,52.7Zm55.927,8.239h5.347a36.96,36.96,0,0,0-3.7-18.485,17.048,17.048,0,0,0-12.8-9.47c-8.341-1.231-16.759,2.3-23.874,7.356-7.748,5.5-14.143,12.977-19.732,20.6l7.063-.009c6.359-9.018,20.987-22.707,31.746-22.8a13.859,13.859,0,0,1,9.493,3.078c1.868,1.667,4.132,4.9,4.021,7.532-.065,1.558-1.448,2.036-2.773,1.554a5.9,5.9,0,0,1-2.477-2.306,10.326,10.326,0,0,0-10-4.241c-4.777.654-10.7,4.364-14.518,7.739a92.666,92.666,0,0,0-9.17,9.451h7.594a38.94,38.94,0,0,1,9.5-8.583,21.269,21.269,0,0,1,4.216-2.065c3.9-1.343,7.79-1,9.514,3.861.678,1.912.778,3.589.58,6.663v.125h5.165l.013-.158c0-1.683-.032-2.817.119-4.485.13-1.438.577-2.928,1.912-3.1C69.609,52.6,69.473,58.913,69.529,60.942Zm-36.4,16.325h-4.2l-1.039,3.658H24.549l4.425-14.008h4.238l4.55,14.008H34.271ZM29.41,74.9h3.22q-1.268-4.1-1.642-5.632h-.041l-.664,2.66Zm-11.694,2.37h-4.2L12.48,80.925H9.136l4.425-14.008H17.8l4.55,14.008H18.858ZM14,74.9h3.219q-1.266-4.1-1.64-5.632h-.042l-.664,2.66Zm26.961,5.965V67.1a30.083,30.083,0,0,1,4.446-.311q4.477,0,6.427,1.874a6.5,6.5,0,0,1,1.946,4.9,7.01,7.01,0,0,1-2.216,5.539q-2.218,1.964-6.842,1.963A29.875,29.875,0,0,1,40.959,80.862ZM44.179,69.39v9.123a6.571,6.571,0,0,0,1.163.063,5.147,5.147,0,0,0,3.715-1.265,4.782,4.782,0,0,0,1.312-3.619,4.315,4.315,0,0,0-1.2-3.294,4.848,4.848,0,0,0-3.456-1.133A7.7,7.7,0,0,0,44.179,69.39Zm13.044-2.473h3.221V72.3h5.505V66.917h3.22V80.925h-3.22v-5.84H60.444v5.84H57.223Zm23.62,10.35h-4.2l-1.039,3.658H72.263l4.425-14.008h4.238l4.549,14.008h-3.49ZM77.125,74.9h3.219q-1.266-4.1-1.641-5.632h-.041L78,71.926Zm19.131,2.37h-4.2l-1.039,3.658H87.676L92.1,66.917h4.238l4.549,14.008H97.4ZM92.537,74.9h3.22q-1.267-4.1-1.641-5.632h-.041l-.665,2.66Zm11.549,6.028V67.1a25.594,25.594,0,0,1,4.342-.311A7.716,7.716,0,0,1,113,67.841a3.536,3.536,0,0,1,1.392,3,3.427,3.427,0,0,1-.7,2.1,3.74,3.74,0,0,1-1.814,1.327v.083a3.468,3.468,0,0,1,1.89,2.576q1.069,3.763,1.163,3.991h-3.282a16.138,16.138,0,0,1-1-3.263,3.671,3.671,0,0,0-.789-1.746,2.192,2.192,0,0,0-1.6-.5h-1v5.508Zm3.178-11.659V73.11h1.329a3,3,0,0,0,1.9-.548,1.767,1.767,0,0,0,.7-1.468,1.729,1.729,0,0,0-.627-1.431,2.786,2.786,0,0,0-1.783-.5A7.047,7.047,0,0,0,107.264,69.265Zm-57.01-8.311,4.286-.013c.563-3.622-.538-6.41-4.2-5.745-3.086.561-6.4,3.628-8.4,5.745l5.65-.025c.63-.414,1.862-.886,2.368-.534A.684.684,0,0,1,50.254,60.955Zm43.731-.01.039,0h.02a2.386,2.386,0,0,0,2.108-1.182,2.9,2.9,0,0,0,.282-.656,3.919,3.919,0,0,0,.148-.857h0l0-.066C97.014,43.2,92.427,30.8,84.642,22.374a38.234,38.234,0,0,0-4.892-4.453,36.872,36.872,0,0,0-5.535-3.49h0l-.031-.016h0A39.426,39.426,0,0,0,52.93,10.4a42.147,42.147,0,0,0-8.383,1.575l-.019.006A47.61,47.61,0,0,0,24.38,24.376q-1.66,1.688-3.164,3.521-.746.909-1.451,1.851A70.921,70.921,0,0,1,32.5,20.9q1.511-.81,3.036-1.517t3.088-1.315h.007a46.641,46.641,0,0,1,11.74-2.954,43.428,43.428,0,0,1,11.751.3,35.625,35.625,0,0,1,8.043,2.219c.48.2.954.413,1.417.637s.906.458,1.347.706h0l.006,0h0c8.72,4.777,14.779,14.58,17.447,25.647a55.218,55.218,0,0,1,1.534,13.29h0v.128a3.23,3.23,0,0,0,1.158,2.653,1.6,1.6,0,0,0,.424.192h0A1.717,1.717,0,0,0,93.985,60.944Z" transform="translate(7.599 8.526)" fill="#3f3d56" fill-rule="evenodd"/>
      </g>
    </g>
  </g>
</svg>
