<svg xmlns="http://www.w3.org/2000/svg" width="52" height="52" viewBox="0 0 52 52">
  <g id="ABHA_Number" data-name="ABHA Number" transform="translate(-207.3 -4.461)">
    <path id="Path_4976" data-name="Path 4976" d="M258.03,30.031A25.165,25.165,0,1,1,232.865,4.9h0A25.111,25.111,0,0,1,258.03,30.031" transform="translate(0.342 0.372)" fill="#fff"/>
    <path id="Path_4977" data-name="Path 4977" d="M233.4,56.367A26.106,26.106,0,0,1,207.3,30.3a25.8,25.8,0,0,1,7.675-18.4,26.084,26.084,0,0,1,36.842.575A25.776,25.776,0,0,1,233.4,56.367Zm0-50.21A24.147,24.147,0,1,0,257.574,30.3,24.434,24.434,0,0,0,233.4,6.157Z" transform="translate(0 0.094)" fill="#2e3a7c"/>
    <path id="Path_4978" data-name="Path 4978" d="M233.3,56.09a25.106,25.106,0,0,1-18.231-7.667,25.485,25.485,0,0,1-.192-36.224l.192-.192a26.025,26.025,0,0,1,36.654,0A25.639,25.639,0,0,1,259.2,30.216a25.043,25.043,0,0,1-7.676,18.208A25.429,25.429,0,0,1,233.3,56.09Zm0-50.215a24.342,24.342,0,1,0,24.372,24.342h0A24.515,24.515,0,0,0,233.3,5.875Z" transform="translate(0.095 0)" fill="#2e388a"/>
    <path id="Path_4979" data-name="Path 4979" d="M251.292,28.969A19.4,19.4,0,1,1,231.9,9.6h0a19.351,19.351,0,0,1,19.4,19.37" transform="translate(1.496 1.433)" fill="#dddee4"/>
    <rect id="Rectangle_2081" data-name="Rectangle 2081" width="29.859" height="20.373" transform="translate(219.175 19.037)" fill="#fff"/>
    <path id="Path_4980" data-name="Path 4980" d="M247.142,23.1H211.9c-.371,0-.556.37-.371.556l.742,1.111a1.878,1.878,0,0,0,1.3.741h31.714a1.652,1.652,0,0,0,1.484-.926l.371-.926c.556-.185.371-.556,0-.556" transform="translate(5.295 17.134)" fill="#fff"/>
    <path id="Path_4981" data-name="Path 4981" d="M247.5,26.958H214.339a2.81,2.81,0,0,1-2.327-1.111l-.776-1.111a1.563,1.563,0,0,1-.194-1.3A1.309,1.309,0,0,1,212.4,22.7h36.849a1.4,1.4,0,0,1,1.164.556.868.868,0,0,1,0,1.3l-.388.926a4.346,4.346,0,0,1-2.523,1.482Zm-34.135-2.593.194.37c.194.37.388.37.776.37H247.5a1.025,1.025,0,0,0,.776-.37l.194-.185h-35.1Z" transform="translate(3.125 16.817)" fill="#2f3a7b"/>
    <path id="Path_4982" data-name="Path 4982" d="M213.519,25.115a.876.876,0,0,1-.927-.926h0V22.52a.817.817,0,0,1,1.113-.741.8.8,0,0,1,.742.741v1.667a.876.876,0,0,1-.927.926Z" transform="translate(4.891 15.981)" fill="#2e3a7c"/>
    <path id="Path_4983" data-name="Path 4983" d="M241.54,34.336a.876.876,0,0,1-.927-.926V13.223a.4.4,0,0,0-.371-.37H216.318a1.252,1.252,0,0,1-1.113-.741,1.25,1.25,0,0,1,.74-1.111h24.11a2.369,2.369,0,0,1,2.226,2.037V33.41A.747.747,0,0,1,241.54,34.336Z" transform="translate(7.849 6.351)" fill="#2e3a7c"/>
    <rect id="Rectangle_2082" data-name="Rectangle 2082" width="3.709" height="13.891" transform="translate(217.112 23.164)" fill="#de3435"/>
    <path id="Path_4985" data-name="Path 4985" d="M227.642,13.4H216.7V28.585h10.942a7.633,7.633,0,0,0,7.6-7.593,7.516,7.516,0,0,0-7.6-7.593h0" transform="translate(8.989 8.437)" fill="#de3435"/>
    <path id="Path_4986" data-name="Path 4986" d="M222.48,19.883a2.593,2.593,0,1,0,0-5.185h-.185a2.65,2.65,0,0,0-2.6,2.593,2.817,2.817,0,0,0,2.781,2.593m0-4.074a1.462,1.462,0,0,1,1.484,1.482,1.594,1.594,0,0,1-1.483,1.481A1.462,1.462,0,0,1,221,17.29a1.364,1.364,0,0,1,1.484-1.481" transform="translate(11.49 9.456)" fill="#fff"/>
    <path id="Path_4987" data-name="Path 4987" d="M223.081,18.126a3.339,3.339,0,0,0-2.781,1.3,4.368,4.368,0,0,0-1.3,2.964.4.4,0,0,0,.371.37h7.048a.4.4,0,0,0,.371-.37V22.2a3.686,3.686,0,0,0-1.3-2.964,2.387,2.387,0,0,0-2.413-1.111m-2.968,3.518a4.572,4.572,0,0,1,.742-1.667,2.7,2.7,0,0,1,3.895-.185l.185.185h0a2.01,2.01,0,0,1,.742,1.667Z" transform="translate(10.887 12.555)" fill="#fff"/>
    <ellipse id="Ellipse_175" data-name="Ellipse 175" cx="2.307" cy="2.304" rx="2.307" ry="2.304" transform="translate(216.456 16.539)" fill="#2e3a7c"/>
  </g>
</svg>
