<svg xmlns="http://www.w3.org/2000/svg" width="27.127" height="32.23" viewBox="0 0 27.127 32.23">
  <g id="Application_Approved_icon_color" data-name="Application Approved icon color" transform="translate(0)">
    <path id="Path_28746" data-name="Path 28746" d="M280.8,326.4h8.461v2.008H280.8Z" transform="translate(-275.928 -317.775)" fill="#264488"/>
    <path id="Path_28747" data-name="Path 28747" d="M278.4,879.6h4.411v1.975H278.4Z" transform="translate(-273.594 -855.798)" fill="#264488"/>
    <path id="Path_28748" data-name="Path 28748" d="M278.4,696h5.531v1.975H278.4Z" transform="translate(-273.594 -677.235)" fill="#264488"/>
    <path id="Path_28749" data-name="Path 28749" d="M279.6,519.6h6.387v1.844H279.6Z" transform="translate(-274.761 -505.674)" fill="#264488"/>
    <path id="Path_28750" data-name="Path 28750" d="M113.208,41.365h-8.2V13.811h15.44V19.44h5.629v4.839h1.811V17.4L122.524,12H103.2V43.176h10.008Zm8.724-27.752,4.346,4.346h-4.346Z" transform="translate(-103.2 -12)" fill="#264488"/>
    <path id="Path_28751" data-name="Path 28751" d="M517.435,935.479a2.049,2.049,0,0,1-1.811-1.054l-.4-.658a1.679,1.679,0,0,1-.1-.165l-2.732,5.662,2.3-.527,1.185,1.811,2.5-5.1h-.955Z" transform="translate(-501.172 -908.319)" fill="#d66025"/>
    <path id="Path_28752" data-name="Path 28752" d="M877.831,942.588a2.049,2.049,0,0,1-1.811,1.053l-1.218.066,2.469,5,1.185-1.811,2.3.527L878.16,942Z" transform="translate(-853.634 -916.482)" fill="#d66025"/>
    <path id="Path_28753" data-name="Path 28753" d="M565.857,485.614l-.724-1.218v-1.383a.912.912,0,0,0-.428-.757l-1.185-.691-.724-1.218a.871.871,0,0,0-.757-.428h-1.416l-1.218-.691a.8.8,0,0,0-.856,0l-1.218.691h-1.383a.913.913,0,0,0-.757.428l-.691,1.218-1.251.724a.871.871,0,0,0-.428.757v1.416l-.691,1.185a1.074,1.074,0,0,0-.132.428.662.662,0,0,0,.132.428l.691,1.185V489.1a.912.912,0,0,0,.428.757l1.251.724.691,1.218a.871.871,0,0,0,.757.428h1.383l1.218.691a1.074,1.074,0,0,0,.428.132.662.662,0,0,0,.428-.132l1.218-.691h1.416a.913.913,0,0,0,.757-.428l.724-1.218,1.185-.691a.871.871,0,0,0,.428-.757v-1.383l.724-1.251a.862.862,0,0,0,0-.889Zm-4.082.033-1.218,1.185.3,1.679a.3.3,0,0,1-.1.23.2.2,0,0,1-.132.033.121.121,0,0,1-.1-.033l-1.514-.79-1.514.79a.2.2,0,0,1-.23-.033.3.3,0,0,1-.1-.23l.3-1.679-1.218-1.185a.218.218,0,0,1-.066-.23.337.337,0,0,1,.2-.165l1.679-.23.757-1.514a.22.22,0,0,1,.395,0l.757,1.514,1.679.23a.208.208,0,0,1,.2.165.619.619,0,0,1-.066.263Z" transform="translate(-539.685 -466.29)" fill="#d66025"/>
  </g>
</svg>
