<svg xmlns="http://www.w3.org/2000/svg" width="26.933" height="32" viewBox="0 0 26.933 32">
  <g id="Application_Approved_icon_BW" data-name="Application Approved icon BW" transform="translate(-103.2 -12)" opacity="0.52" style="mix-blend-mode: luminosity;isolation: isolate">
    <path id="Path_28746" data-name="Path 28746" d="M280.8,326.4h8.4v1.994h-8.4Z" transform="translate(-172.762 -305.836)" fill="#264488"/>
    <path id="Path_28747" data-name="Path 28747" d="M278.4,879.6h4.38v1.961H278.4Z" transform="translate(-170.428 -843.968)" fill="#264488"/>
    <path id="Path_28748" data-name="Path 28748" d="M278.4,696h5.491v1.961H278.4Z" transform="translate(-170.428 -665.369)" fill="#264488"/>
    <path id="Path_28749" data-name="Path 28749" d="M279.6,519.6h6.341v1.83H279.6Z" transform="translate(-171.595 -493.774)" fill="#264488"/>
    <path id="Path_28750" data-name="Path 28750" d="M113.137,41.156H105V13.8h15.33v5.589h5.589v4.8h1.8V17.361L122.387,12H103.2V42.954h9.937ZM121.8,13.6l4.315,4.315H121.8Z" fill="#264488"/>
    <path id="Path_28751" data-name="Path 28751" d="M517.4,935.465a2.034,2.034,0,0,1-1.8-1.046l-.392-.654a1.681,1.681,0,0,1-.1-.163l-2.713,5.622,2.288-.523,1.177,1.8,2.484-5.066H517.4Z" transform="translate(-398.052 -896.499)" fill="#d66025"/>
    <path id="Path_28752" data-name="Path 28752" d="M877.809,942.584a2.034,2.034,0,0,1-1.8,1.046l-1.209.065,2.451,4.968,1.177-1.8,2.288.523L878.136,942Z" transform="translate(-750.585 -904.664)" fill="#d66025"/>
    <path id="Path_28753" data-name="Path 28753" d="M565.758,485.568l-.719-1.209v-1.373a.906.906,0,0,0-.425-.752l-1.177-.686-.719-1.209a.865.865,0,0,0-.752-.425h-1.406l-1.209-.686a.8.8,0,0,0-.85,0l-1.209.686H555.92a.906.906,0,0,0-.752.425l-.686,1.209-1.242.719a.865.865,0,0,0-.425.752v1.406l-.686,1.177a1.066,1.066,0,0,0-.131.425.657.657,0,0,0,.131.425l.686,1.177v1.406a.906.906,0,0,0,.425.752l1.242.719.686,1.209a.865.865,0,0,0,.752.425h1.373l1.209.686a1.066,1.066,0,0,0,.425.131.657.657,0,0,0,.425-.131l1.209-.686h1.406a.906.906,0,0,0,.752-.425l.719-1.209,1.177-.686a.865.865,0,0,0,.425-.752v-1.373l.719-1.242a.856.856,0,0,0,0-.883Zm-4.053.033-1.209,1.177.294,1.667a.3.3,0,0,1-.1.229.2.2,0,0,1-.131.033.12.12,0,0,1-.1-.033l-1.5-.784-1.5.784a.2.2,0,0,1-.229-.033.3.3,0,0,1-.1-.229l.294-1.667-1.209-1.177a.216.216,0,0,1-.065-.229.335.335,0,0,1,.2-.163l1.667-.229.752-1.5a.218.218,0,0,1,.392,0l.752,1.5,1.667.229a.207.207,0,0,1,.2.163.615.615,0,0,1-.065.261Z" transform="translate(-436.573 -454.381)" fill="#d66025"/>
  </g>
</svg>
