<svg xmlns="http://www.w3.org/2000/svg" width="48" height="48" viewBox="0 0 48 48">
  <g id="forwarded" transform="translate(21326 3445)">
    <circle id="Ellipse_87" data-name="Ellipse 87" cx="24" cy="24" r="24" transform="translate(-21326 -3445)" fill="#4d70cb"/>
    <path id="noun-forwarded-5106620" d="M207.018,268.855l-6.261-6.261a1.043,1.043,0,0,0-1.784.741v3.13c-5.812.417-11.478,4.236-11.478,10.434v5.217a1.043,1.043,0,1,0,2.087,0c0-4.654,4.737-9.391,9.391-9.391v3.13a1.043,1.043,0,0,0,1.784.741l6.261-6.261a1.043,1.043,0,0,0,0-1.482Zm6.174,0a1.043,1.043,0,0,1,0,1.471l-6.261,6.261a1.043,1.043,0,0,1-1.471-1.471l5.52-5.52-5.53-5.52a1.043,1.043,0,0,1,1.471-1.471Z" transform="translate(-21502.494 -3693.286)" fill="#fff"/>
  </g>
</svg>
