<svg id="Group_70527" data-name="Group 70527" xmlns="http://www.w3.org/2000/svg" width="48" height="48" viewBox="0 0 48 48">
  <circle id="Ellipse_87" data-name="Ellipse 87" cx="24" cy="24" r="24" fill="#d66025" opacity="0.8"/>
  <g id="help_black_24dp" transform="translate(11.553 12)">
    <path id="Path_28740" data-name="Path 28740" d="M0,0H24V24H0Z" fill="none"/>
    <path id="Path_28741" data-name="Path 28741" d="M12,2A10,10,0,1,0,22,12,10,10,0,0,0,12,2Zm1,17H11V17h2Zm2.07-7.75-.9.92A3.4,3.4,0,0,0,13,15H11v-.5a4.025,4.025,0,0,1,1.17-2.83l1.24-1.26A1.955,1.955,0,0,0,14,9a2,2,0,0,0-4,0H8a4,4,0,1,1,8,0A3.182,3.182,0,0,1,15.07,11.25Z" fill="#fff"/>
  </g>
</svg>
