<svg width="47" height="47" viewBox="0 0 47 47" fill="#333" xmlns="http://www.w3.org/2000/svg">
<path d="M24.253 43.1325L15.3735 38.398C12.8421 37.0513 10.7252 35.0407 9.24998 32.5819C7.77478 30.1232 6.99696 27.3091 7.00001 24.4418V5.75099C7.00077 4.98859 7.30397 4.25764 7.84307 3.71854C8.38216 3.17945 9.11311 2.87625 9.87551 2.87549H38.6305C39.3929 2.87625 40.1239 3.17945 40.663 3.71854C41.2021 4.25764 41.5053 4.98859 41.506 5.75099V24.4418C41.5091 27.3091 40.7313 30.1232 39.2561 32.5819C37.7809 35.0407 35.664 37.0513 33.1326 38.398L24.253 43.1325ZM9.87551 5.75099V24.4418C9.87313 26.7879 10.5097 29.0904 11.7169 31.1021C12.9242 33.1138 14.6564 34.7587 16.7278 35.8604L24.253 39.8731L31.7782 35.8618C33.8498 34.7601 35.5823 33.1149 36.7895 31.1029C37.9967 29.0909 38.6332 26.7881 38.6305 24.4418V5.75099H9.87551Z" fill="#264488"/>
<path d="M24.2529 36.342V8.62646H35.7549V24.1614C35.7549 25.9837 35.26 27.7719 34.3231 29.335C33.3862 30.8981 32.0424 32.1775 30.4353 33.0366L24.2529 36.342Z" fill="#264488"/>
</svg>
