<svg xmlns="http://www.w3.org/2000/svg" width="22.364" height="38.4" viewBox="0 0 22.364 38.4">
  <g id="Group_70112" data-name="Group 70112" transform="translate(-1482.534 -240.684)">
    <path id="noun-smartphone-169992" d="M309.054,69.682V66.151a4.143,4.143,0,0,0-4.131-4.131h-14.1a4.143,4.143,0,0,0-4.131,4.131V96.289a4.143,4.143,0,0,0,4.131,4.131h14.1a4.143,4.143,0,0,0,4.131-4.131V69.682Zm-9.407,29h-3.978a1.069,1.069,0,1,1,0-2.137h3.978a1.069,1.069,0,1,1,0,2.137Zm7.215-4.946A1.063,1.063,0,0,1,305.8,94.8H289.942a1.063,1.063,0,0,1-1.06-1.06V68.7a1.063,1.063,0,0,1,1.06-1.06H305.8a1.064,1.064,0,0,1,1.061,1.06Zm-12.178-9.3a1.551,1.551,0,1,1-1.551-1.551A1.551,1.551,0,0,1,294.683,84.434Zm-3.1-9.476a1.551,1.551,0,1,1,1.551,1.551A1.551,1.551,0,0,1,291.582,74.957Zm3.1,4.739a1.551,1.551,0,1,1-1.551-1.551A1.551,1.551,0,0,1,294.683,79.7Zm4.739,4.738a1.551,1.551,0,1,1-1.551-1.55A1.551,1.551,0,0,1,299.423,84.434Zm-3.1-9.476a1.551,1.551,0,1,1,1.551,1.55A1.551,1.551,0,0,1,296.321,74.958Zm3.1,4.739a1.551,1.551,0,1,1-1.551-1.551A1.551,1.551,0,0,1,299.423,79.7Zm0,9.476a1.551,1.551,0,1,1-1.551-1.551A1.551,1.551,0,0,1,299.423,89.173Zm4.739-4.737a1.551,1.551,0,1,1-1.551-1.551A1.551,1.551,0,0,1,304.161,84.436Zm-3.1-9.476a1.551,1.551,0,1,1,1.551,1.551A1.551,1.551,0,0,1,301.06,74.96Zm3.1,4.739a1.551,1.551,0,1,1-1.551-1.551A1.551,1.551,0,0,1,304.161,79.7Z" transform="translate(1195.844 178.664)" fill="#264488"/>
    <circle id="Ellipse_128" data-name="Ellipse 128" cx="1.587" cy="1.587" r="1.587" transform="translate(1487.114 251.95)" fill="#d66025"/>
    <circle id="Ellipse_133" data-name="Ellipse 133" cx="1.587" cy="1.587" r="1.587" transform="translate(1487.114 256.711)" fill="#d66025"/>
    <circle id="Ellipse_136" data-name="Ellipse 136" cx="1.587" cy="1.587" r="1.587" transform="translate(1487.114 261.472)" fill="#d66025"/>
    <circle id="Ellipse_129" data-name="Ellipse 129" cx="1.587" cy="1.587" r="1.587" transform="translate(1491.875 251.95)" fill="#d66025"/>
    <circle id="Ellipse_132" data-name="Ellipse 132" cx="1.587" cy="1.587" r="1.587" transform="translate(1491.875 256.711)" fill="#d66025"/>
    <circle id="Ellipse_135" data-name="Ellipse 135" cx="1.587" cy="1.587" r="1.587" transform="translate(1491.875 261.472)" fill="#d66025"/>
    <circle id="Ellipse_137" data-name="Ellipse 137" cx="1.587" cy="1.587" r="1.587" transform="translate(1491.875 266.233)" fill="#d66025"/>
    <circle id="Ellipse_130" data-name="Ellipse 130" cx="1.587" cy="1.587" r="1.587" transform="translate(1496.636 251.95)" fill="#d66025"/>
    <circle id="Ellipse_131" data-name="Ellipse 131" cx="1.587" cy="1.587" r="1.587" transform="translate(1496.636 256.711)" fill="#d66025"/>
    <circle id="Ellipse_134" data-name="Ellipse 134" cx="1.587" cy="1.587" r="1.587" transform="translate(1496.636 261.472)" fill="#d66025"/>
  </g>
</svg>
