<svg id="Group_70519" data-name="Group 70519" xmlns="http://www.w3.org/2000/svg" width="40" height="40" viewBox="0 0 40 40">
  <circle id="Ellipse_87" data-name="Ellipse 87" cx="20" cy="20" r="20" fill="#978cd4" opacity="0.8"/>
  <path id="Path_28743" data-name="Path 28743" d="M196.535,72.265h-.752v-.526a.376.376,0,0,0-.376-.376h-2.677a1.921,1.921,0,0,0-3.67,0h-2.677a.376.376,0,0,0-.376.376v.526h-.752a1.5,1.5,0,0,0-1.5,1.5V86.554a1.5,1.5,0,0,0,1.5,1.5h11.281a1.5,1.5,0,0,0,1.5-1.5V73.769a1.5,1.5,0,0,0-1.5-1.5Zm-9.777.376v-.526h2.632a.376.376,0,0,0,.376-.376,1.134,1.134,0,0,1,2.256,0,.376.376,0,0,0,.376.376h2.632v1.279h-8.273Zm6.392,12.785h-6.392a.376.376,0,0,1,0-.752h6.392a.376.376,0,1,1,0,.752Zm1.88-3.008h-8.273a.376.376,0,0,1,0-.752h8.273a.376.376,0,0,1,0,.752Zm0-3.008h-8.273a.376.376,0,0,1,0-.752h8.273a.376.376,0,0,1,0,.752Zm0-3.008h-8.273a.376.376,0,0,1,0-.752h8.273a.376.376,0,0,1,0,.752Z" transform="translate(-170.46 -59.008)" fill="#fff"/>
</svg>
