<svg width="28" height="40" viewBox="0 0 28 40" fill="none" xmlns="http://www.w3.org/2000/svg">
<path d="M7.0705 13.7162L3.483 11.8584L7.0705 10.0006L8.70751 5.92921L10.3445 10.0006L13.932 11.8584L10.3445 13.7162L8.70751 17.7876L7.0705 13.7162ZM8.70751 37.5516L10.3445 33.4803L13.932 31.6224L10.3445 29.7646L8.70751 25.6932L7.0705 29.7646L3.483 31.6224L7.0705 33.4803L8.70751 37.5516ZM2.38586 20.4953L0 21.7404L2.38586 22.9856L3.483 25.6932L4.58015 22.9856L6.96601 21.7404L4.58015 20.4953L3.483 17.7876L2.38586 20.4953ZM15.6735 19.764C15.6735 14.3684 17.5543 9.34838 20.4626 5.43511L15.6735 0H27.864V13.8348L22.953 8.26136C20.6194 11.5027 19.1565 15.574 19.1565 19.764C19.1565 26.3257 22.8137 32.3339 27.864 35.2195V39.528C20.7413 36.3856 15.6735 28.3614 15.6735 19.764Z" fill="#264488"/>
</svg>
