<svg width="39" height="35" viewBox="0 0 39 35" fill="none" xmlns="http://www.w3.org/2000/svg">
<path d="M38.232 21.6598C38.232 22.0286 38.086 22.3822 37.8262 22.6429C37.5663 22.9037 37.2138 23.0501 36.8463 23.0501H34.0748V25.8308C34.0748 26.1995 33.9288 26.5532 33.6689 26.8139C33.409 27.0746 33.0565 27.2211 32.689 27.2211C32.3215 27.2211 31.969 27.0746 31.7091 26.8139C31.4492 26.5532 31.3033 26.1995 31.3033 25.8308V23.0501H28.5317C28.1642 23.0501 27.8117 22.9037 27.5519 22.6429C27.292 22.3822 27.146 22.0286 27.146 21.6598C27.146 21.2911 27.292 20.9374 27.5519 20.6767C27.8117 20.416 28.1642 20.2695 28.5317 20.2695H31.3033V17.4888C31.3033 17.1201 31.4492 16.7665 31.7091 16.5057C31.969 16.245 32.3215 16.0985 32.689 16.0985C33.0565 16.0985 33.409 16.245 33.6689 16.5057C33.9288 16.7665 34.0748 17.1201 34.0748 17.4888V20.2695H36.8463C37.2138 20.2695 37.5663 20.416 37.8262 20.6767C38.086 20.9374 38.232 21.2911 38.232 21.6598ZM6.35963 7.06142H8.43827V9.1469C8.43827 9.51564 8.58427 9.86928 8.84415 10.13C9.10403 10.3907 9.4565 10.5372 9.82403 10.5372C10.1916 10.5372 10.544 10.3907 10.8039 10.13C11.0638 9.86928 11.2098 9.51564 11.2098 9.1469V7.06142H13.2884C13.6559 7.06142 14.0084 6.91494 14.2683 6.6542C14.5282 6.39347 14.6742 6.03983 14.6742 5.67109C14.6742 5.30236 14.5282 4.94872 14.2683 4.68799C14.0084 4.42725 13.6559 4.28077 13.2884 4.28077H11.2098V2.19528C11.2098 1.82655 11.0638 1.47291 10.8039 1.21218C10.544 0.95144 10.1916 0.80496 9.82403 0.80496C9.4565 0.80496 9.10403 0.95144 8.84415 1.21218C8.58427 1.47291 8.43827 1.82655 8.43827 2.19528V4.28077H6.35963C5.99211 4.28077 5.63964 4.42725 5.37976 4.68799C5.11988 4.94872 4.97388 5.30236 4.97388 5.67109C4.97388 6.03983 5.11988 6.39347 5.37976 6.6542C5.63964 6.91494 5.99211 7.06142 6.35963 7.06142ZM27.146 28.6114H25.7602V27.2211C25.7602 26.8524 25.6142 26.4987 25.3543 26.238C25.0945 25.9773 24.742 25.8308 24.3745 25.8308C24.0069 25.8308 23.6545 25.9773 23.3946 26.238C23.1347 26.4987 22.9887 26.8524 22.9887 27.2211V28.6114H21.603C21.2354 28.6114 20.883 28.7579 20.6231 29.0187C20.3632 29.2794 20.2172 29.633 20.2172 30.0018C20.2172 30.3705 20.3632 30.7241 20.6231 30.9849C20.883 31.2456 21.2354 31.3921 21.603 31.3921H22.9887V32.7824C22.9887 33.1511 23.1347 33.5048 23.3946 33.7655C23.6545 34.0263 24.0069 34.1727 24.3745 34.1727C24.742 34.1727 25.0945 34.0263 25.3543 33.7655C25.6142 33.5048 25.7602 33.1511 25.7602 32.7824V31.3921H27.146C27.5135 31.3921 27.866 31.2456 28.1259 30.9849C28.3857 30.7241 28.5317 30.3705 28.5317 30.0018C28.5317 29.633 28.3857 29.2794 28.1259 29.0187C27.866 28.7579 27.5135 28.6114 27.146 28.6114ZM26.7476 15.6988L8.31702 34.1727C8.06091 34.4323 7.75606 34.6384 7.42008 34.779C7.08411 34.9196 6.72368 34.992 6.35963 34.992C5.99559 34.992 5.63516 34.9196 5.29919 34.779C4.96321 34.6384 4.65836 34.4323 4.40225 34.1727L0.816608 30.5753C0.557887 30.3183 0.352504 30.0125 0.212337 29.6754C0.0721701 29.3383 0 28.9767 0 28.6114C0 28.2462 0.0721701 27.8846 0.212337 27.5475C0.352504 27.2104 0.557887 26.9046 0.816608 26.6476L26.5744 0.80496C27.0961 0.289145 27.7992 0 28.5317 0C29.2642 0 29.9673 0.289145 30.4891 0.80496L34.0748 4.40242C34.3335 4.65937 34.5389 4.96523 34.679 5.30231C34.8192 5.6394 34.8914 6.00102 34.8914 6.36626C34.8914 6.7315 34.8192 7.09312 34.679 7.4302C34.5389 7.76728 34.3335 8.07314 34.0748 8.33009L26.7476 15.6988ZM22.1746 9.1469L25.7602 12.7444L32.1174 6.36626L28.5317 2.76879L22.1746 9.1469ZM23.8028 14.7082L20.2172 11.1107L2.77399 28.6114L6.35963 32.2089L23.8028 14.7082Z" fill="#264488"/>
</svg>
