<svg xmlns="http://www.w3.org/2000/svg" width="63" height="57.999" viewBox="0 0 63 57.999">
  <g id="ABDM" transform="translate(0.009 0.01)">
    <g id="Group_31783" data-name="Group 31783" transform="translate(-0.009 -0.01)">
      <path id="Path_27554" data-name="Path 27554" d="M63.252,31.93a31.237,31.237,0,0,1,19.576,6.854l-.48.479a30.707,30.707,0,0,0-38.191,0l-.48-.479A31.237,31.237,0,0,1,63.252,31.93ZM87.716,43.663a31.227,31.227,0,0,1,0,39.075l-.48-.479a30.554,30.554,0,0,0,0-38.117l.48-.479ZM38.788,82.738a31.226,31.226,0,0,1,0-39.075l.48.479a30.554,30.554,0,0,0,0,38.117ZM63.252,37.184a25.986,25.986,0,0,1,15.826,5.342l-.482.481a25.437,25.437,0,0,0-30.689,0l-.482-.481a25.985,25.985,0,0,1,15.826-5.342ZM83.966,47.405a25.982,25.982,0,0,1,0,31.591l-.482-.481a25.308,25.308,0,0,0,0-30.629ZM42.538,79a25.982,25.982,0,0,1,0-31.591l.482.481a25.309,25.309,0,0,0,0,30.629ZM63.252,42.64a20.534,20.534,0,0,1,11.917,3.788l-.484.483a19.965,19.965,0,0,0-22.865,0l-.484-.483A20.533,20.533,0,0,1,63.252,42.64Zm16.806,8.667a20.536,20.536,0,0,1,0,23.788l-.484-.483a19.863,19.863,0,0,0,0-22.821l.484-.483ZM46.446,75.094a20.536,20.536,0,0,1,0-23.788l.484.483a19.863,19.863,0,0,0,0,22.821Z" transform="translate(-31.752 -31.762)" fill="#2b2a29"/>
      <path id="_1" data-name="1" d="M51.186,7.131l-.239-.238.014.251-.5-.395-.512-.385-.521-.374L48.9,5.626l-.536-.353-.544-.342L47.263,4.6l-.559-.32-.566-.309-.573-.3-.58-.286L44.4,3.112l-.593-.262-.6-.25L42.6,2.361l-.612-.226-.618-.213-.624-.2-.629-.188-.635-.175-.64-.162L38.2,1.049l-.65-.135L36.891.792l-.66-.108L35.566.59,34.9.51,34.224.445,33.546.393,32.865.356,32.18.334,31.491.327V-.01l.7.008L32.88.02l.689.037.685.052.681.066.676.081.672.095.667.109.662.123.658.137.652.15.647.163.642.177.636.19.631.2.625.216.619.228.612.241.606.253.6.265.593.277.586.289.579.3.572.312.565.324.557.335.55.346.542.357.534.368.526.378.518.389.51.4.014.251Zm-.014-.251a.169.169,0,1,1-.211.263l.211-.263Zm-.705.492.48-.479.239.238-.48.479-.225.013-.014-.251Zm.239.238a.169.169,0,1,1-.239-.238ZM31.491,1V.664h0l.679.007.675.022.672.036.668.05.664.065.659.078.655.092.651.106.646.119.641.133.636.146.631.159.626.172.621.184.615.2.609.209.6.222.6.234.591.246.585.258.579.269.572.281.565.292.558.3.551.315.544.326.537.336.529.347.522.357.514.368.506.378.5.388-.21.263-.492-.384-.5-.374L48.98,6.5l-.516-.354-.524-.343-.531-.333-.538-.322-.545-.311-.552-.3-.559-.289-.566-.278-.572-.266L43.5,3.451l-.585-.243-.591-.231-.6-.219-.6-.207-.608-.195L39.9,2.173,39.282,2l-.624-.157L38.028,1.7l-.634-.131-.639-.118-.643-.1-.648-.091-.652-.078-.656-.064-.66-.05-.664-.036-.668-.022L31.491,1h0Zm0,0a.168.168,0,1,1,0-.337ZM12.276,7.611l.239-.238L12.29,7.36l.5-.388.506-.378.514-.368.522-.357.529-.347.537-.336.544-.326.551-.315.558-.3.565-.292.572-.281.579-.269.585-.258.591-.246.6-.234.6-.222.609-.21.615-.2.621-.184.626-.172.631-.159.636-.146.641-.133.646-.119.651-.106.655-.092.659-.078L28.8.779l.668-.05.672-.036.675-.022.679-.007V1l-.672.007-.668.022-.664.036-.66.05-.656.064-.652.078-.648.091-.644.1-.639.118-.634.131-.629.144L23.7,2l-.619.17-.614.182-.608.195-.6.207-.6.219-.591.231-.585.243-.579.255-.572.266-.566.278-.559.289-.552.3-.545.311-.538.322-.531.333-.524.343L14,6.5l-.508.364-.5.374-.492.384-.225-.013Zm.225.013a.169.169,0,1,1-.21-.263l.21.263Zm-.466-.73.48.479-.239.238-.48-.479.014-.251.225.012Zm-.239.238a.169.169,0,1,1,.239-.238ZM31.491-.01V.327h0L30.8.334l-.685.022-.681.037-.677.051-.673.066-.669.08-.665.094-.66.108-.655.122-.65.135L24.14,1.2l-.64.162-.635.175-.629.188-.624.2-.618.213-.612.226-.606.238-.6.25-.593.262L18,3.387l-.58.286-.573.3-.566.309-.559.32-.552.331-.544.342-.536.353-.529.364-.521.374-.512.385-.5.395-.211-.263.51-.4.518-.389.526-.378.534-.368.542-.357.55-.346.557-.335.565-.324.572-.312.579-.3.586-.289.593-.277.6-.265.606-.253.612-.241.619-.228L21.5,1.6l.631-.2.636-.19.642-.177L24.06.87l.652-.15L25.37.583l.662-.123L26.7.351l.672-.095.676-.081.681-.066.685-.052L30.1.02,30.795,0l.7-.008h0Zm0,0a.168.168,0,1,1,0,.337Zm31.5,31.439h-.337l-.007-.688-.022-.684-.037-.68-.052-.676-.066-.672-.08-.668L62.3,26.7l-.108-.659-.122-.654-.135-.649-.149-.644-.162-.639-.175-.634-.188-.628-.2-.622-.214-.617-.226-.611-.239-.6-.251-.6-.263-.592-.275-.586-.287-.579L59,16.81l-.31-.565-.321-.558-.332-.55-.343-.543-.354-.535-.365-.528-.375-.52-.385-.511-.4-.5.263-.211.4.509.39.517.379.525.368.533.358.541.347.549.336.556.324.564.313.571.3.578.29.585.278.592.266.6.254.6.241.611.229.617.216.623.2.629.19.635.177.641.164.646.15.651.137.656.123.661.109.666.1.671.081.675.067.679.052.683.037.687.023.691.008.695h0Zm0,0a.169.169,0,0,1-.337,0ZM55.836,51.086l.239-.238-.251.014.4-.5.385-.511.375-.52.365-.528.354-.535.343-.543.332-.55.321-.558.31-.565.3-.572.287-.579.275-.586.263-.592.251-.6.239-.6.226-.611.214-.617.2-.622.188-.628.175-.634.162-.639.149-.644.135-.649.122-.654.108-.659.094-.663.08-.668.066-.672.052-.676.037-.68.022-.684.007-.688h.337l-.008.695-.023.691-.037.687-.052.683-.067.679-.081.675-.1.671-.109.666-.123.661-.137.656-.15.651-.164.646-.177.641-.19.635-.2.629-.216.623-.229.617-.241.611-.254.6-.266.6-.278.592-.29.585-.3.578-.313.571-.324.564-.336.556-.347.549-.358.541-.368.533-.379.525-.39.517-.4.509-.251.014Zm.251-.014a.169.169,0,0,1-.263-.211l.263.211Zm-.493-.7.48.479-.239.238-.48-.479-.013-.224.251-.014Zm-.239.238a.169.169,0,0,1,.239-.238Zm6.623-19.177h.337l-.007.677-.022.674-.036.67-.051.666-.065.662-.079.658-.092.654-.106.649-.12.645-.133.64-.146.635-.159.63-.172.625-.185.619-.2.614-.21.608-.222.6-.234.6-.246.59-.258.584-.27.578-.281.571-.293.564-.3.557-.315.55-.326.543-.337.536-.348.528-.358.521-.368.513L56,50.1l-.389.5-.264-.21.384-.492.375-.5.364-.507.354-.515.344-.523.333-.53.323-.537.312-.544.3-.551.29-.558L59,44.561l.267-.571.255-.578.244-.584.232-.59.22-.6.208-.6.2-.607.183-.613.17-.618.157-.623.145-.628.131-.633.118-.638.1-.642.091-.647.078-.651.064-.655.05-.659.036-.663.022-.667.007-.67h0Zm0,0a.169.169,0,0,1,.337,0h-.337ZM55.355,12.252l.239.238.013-.224.389.5.379.505.368.513.358.521.348.528.337.536.326.543.315.55.3.557.293.564.281.571.27.578.258.584.246.59.234.6.222.6.21.608.2.614.185.619.172.625.159.63.146.635.133.64.12.645.106.649.092.654.079.658.065.662.051.666.036.67.022.674.007.677h-.337l-.007-.67-.022-.667-.036-.663-.05-.659-.064-.655-.078-.651-.091-.647-.1-.642-.118-.638-.131-.633-.145-.628-.157-.623-.17-.618-.183-.613-.2-.607-.208-.6-.22-.6-.232-.59-.244-.584-.255-.577L59,18.3l-.278-.565-.29-.558-.3-.551-.312-.544-.323-.537-.333-.53-.344-.523-.354-.515-.364-.507-.375-.5-.384-.492.013-.224Zm-.013.224a.169.169,0,0,1,.264-.21l-.264.21Zm.731-.465-.48.479-.239-.238.48-.479.251.014-.012.224Zm-.239-.238a.169.169,0,0,1,.239.238ZM-.009,31.429H.328l.007.688.022.684.037.68.052.676.066.672.08.668.094.663.108.659.122.654.135.649.149.644.162.639.175.634.188.628.2.622.214.617.226.611.239.6.251.6.263.592.275.586.287.579.3.572.31.565.321.558.332.55.343.543.354.535L6,49.327l.375.52.385.511.4.5-.263.211-.4-.509-.39-.517-.379-.525-.368-.533L5,48.447,4.654,47.9l-.336-.556-.324-.564-.313-.571-.3-.578-.29-.585-.278-.592-.266-.6-.254-.6-.241-.611-.229-.617L1.607,41.4l-.2-.629-.19-.635-.177-.641-.164-.646-.15-.651-.137-.656-.123-.661-.109-.666-.1-.671-.081-.675L.11,34.186.058,33.5l-.037-.687L0,32.124l-.008-.695h0Zm0,0a.169.169,0,0,1,.337,0ZM7.146,11.772l-.239.238L7.159,12l-.4.5-.385.511L6,13.531l-.365.528-.354.535-.343.543-.332.55-.321.558-.31.565-.3.572-.287.579-.275.586-.263.592-.251.6-.239.6-.226.611-.214.617-.2.622-.188.628-.175.634-.162.639-.149.644-.135.649-.122.654L.687,26.7l-.094.663-.08.668L.447,28.7l-.052.676-.037.68-.022.684-.007.688H-.009L0,30.734l.023-.691.037-.687.052-.683.067-.679.081-.675.1-.671.109-.666.123-.661.137-.656.15-.651.164-.646.177-.641.19-.635.2-.629.216-.623.229-.617.241-.611.254-.6.266-.6.278-.592.29-.585.3-.578.313-.571.324-.564.336-.556L5,14.411l.358-.541.368-.533.379-.525.39-.517.4-.509.251-.014Zm-.251.014A.169.169,0,0,1,7.159,12L6.9,11.786Zm.493.7-.48-.479.239-.238.48.479.013.224-.251.014Zm.239-.238a.169.169,0,0,1-.239.238ZM1,31.429H.666l.007-.677L.7,30.077l.036-.67.051-.666.065-.662.079-.658.092-.654.106-.649.12-.645.133-.64.146-.635.159-.63.172-.625.185-.619.2-.614.21-.608.222-.6.234-.6.246-.59.258-.584.27-.577.281-.571.293-.564.3-.557.315-.55.326-.543.337-.536.348-.528.358-.521.368-.513.379-.505.389-.5.264.21-.384.492-.375.5-.364.507-.354.515-.344.523-.333.53-.323.537-.312.544-.3.551-.29.558-.278.565-.267.571-.255.578-.244.584-.232.59-.22.6-.208.6-.2.607-.183.613-.17.618-.157.623-.145.628-.131.633-.118.638-.1.642-.091.647-.078.651-.064.655-.05.659-.036.663-.022.667L1,31.429H1Zm0,0a.169.169,0,0,1-.337,0ZM7.626,50.606l-.239-.238-.013.224-.389-.5-.379-.505-.368-.513-.358-.521-.348-.528L5.2,47.493l-.326-.543-.315-.55-.3-.557-.293-.564-.281-.571-.27-.577-.258-.584-.246-.59-.234-.6-.222-.6-.21-.608-.2-.614-.185-.619-.172-.625-.159-.63-.146-.635-.133-.64-.12-.645-.106-.649-.092-.654-.079-.658-.065-.662L.731,33.45.7,32.78l-.022-.674-.007-.677H1l.007.67.022.667.036.663.05.659.064.655.078.651.091.647.1.642.118.638.131.633.145.628.157.623.17.618.183.613.2.607.208.6.22.6.232.59.244.584.255.578.267.571.278.565.29.558.3.551.312.544.323.537.333.53.344.523.354.515.364.507.375.5.384.492-.013.224Zm.013-.224a.169.169,0,0,1-.264.21l.264-.21Zm-.731.465.48-.479.239.238-.48.479L6.9,51.072l.012-.224Zm.239.238a.169.169,0,0,1-.239-.238Zm40.29-40.212-.239-.238.017.253L46.8,10.58l-.418-.3-.424-.292L45.53,9.7l-.436-.275-.442-.267L44.2,8.9l-.453-.25-.459-.241-.464-.232-.469-.223-.475-.213-.48-.2-.485-.195-.489-.185-.494-.176-.5-.166-.5-.156-.507-.146-.511-.136L37.4,6.257l-.52-.115-.523-.1-.527-.094L35.3,5.858l-.534-.073-.538-.062-.541-.051-.544-.04L32.594,5.6l-.55-.017-.553-.006V5.244l.56.006.557.018.554.029.551.04.548.052.545.063.541.074.538.085.534.1.53.106.526.117L38,6.056l.518.138.514.148.51.158.505.168.5.178.5.188.491.2.486.207.481.216.476.226.47.235.465.244.459.253.454.262.448.27.442.279.436.287.43.3.424.3.417.312.017.253Zm-.017-.253a.169.169,0,1,1-.205.267l.205-.267Zm-.7.5.482-.481.239.238-.482.481-.221.015-.017-.253Zm.239.238a.169.169,0,0,1-.239-.238Zm-15.464-5.1V5.918h0l.543.006.54.017.537.028.534.039.531.05.528.061.524.071.521.082.518.092.514.1.51.113L37.8,6.7l.5.133.5.143.494.152.49.162.485.171.481.181.476.19.471.2.466.209.461.217.456.226.451.235.446.244.44.252.435.261.429.269.423.277.417.285.411.293.405.3-.2.268-.4-.3-.406-.289-.412-.281-.418-.274-.423-.265-.429-.257-.435-.249-.44-.24-.445-.232-.45-.223-.455-.215-.46-.206-.465-.2-.47-.188-.474-.179-.479-.169-.483-.16L38.7,7.3l-.492-.141-.5-.131-.5-.121-.5-.111-.507-.1L35.693,6.6l-.514-.081-.518-.07-.521-.06-.524-.049L33.09,6.3l-.53-.028-.533-.017-.536-.006h0Zm0,0a.168.168,0,1,1,0-.337v.337Zm-15.464,5.1.239-.238-.221-.015.405-.3.411-.293.417-.285.423-.277.429-.269.435-.261.44-.252.446-.244.451-.235.456-.226.461-.217.466-.209.471-.2.476-.19.481-.181L23.2,7.29l.49-.162.494-.152.5-.143.5-.133.506-.123.51-.113.514-.1.518-.092.521-.082.524-.071.528-.061.531-.05.534-.039.537-.028.54-.017.543-.006v.337l-.536.006-.533.017-.53.028-.527.038-.524.049-.521.06-.518.07-.514.081-.511.091-.507.1-.5.111-.5.121-.5.131L24.28,7.3l-.487.15-.483.16-.479.169-.474.179-.47.188-.465.2-.46.206-.455.215-.45.223-.445.232-.44.24-.434.249-.429.257-.423.265-.418.274-.412.281-.406.289-.4.3-.221-.015Zm.221.015a.169.169,0,1,1-.2-.268l.2.268Zm-.464-.734.482.481-.239.238-.482-.481.017-.253.222.015Zm-.239.238a.169.169,0,0,1,.239-.238Zm15.945-5.63v.337h0l-.553.006-.55.017-.547.029-.544.04-.541.051-.538.062-.534.073-.531.084-.527.094-.523.1-.52.115-.516.126-.511.136-.507.146-.5.156-.5.166-.494.176-.489.185-.485.195-.48.2-.475.213-.469.223-.464.232-.459.241-.453.25-.448.258-.442.267-.436.275-.43.284-.424.292-.418.3-.412.308-.205-.267.417-.312L16.4,10l.43-.3.436-.287.442-.279.448-.27.454-.262.459-.253.465-.244.47-.235.476-.226.481-.216.486-.207.491-.2.5-.188.5-.178.505-.168.51-.158.514-.148.518-.138.522-.127.526-.117.53-.106.534-.1.538-.085.541-.074.545-.063.548-.052.551-.04.554-.029.557-.018.56-.006h0Zm0,0a.168.168,0,1,1,0,.337V5.244ZM57.727,31.429h-.337l-.006-.552-.017-.549-.029-.546-.04-.543-.051-.54-.062-.537-.073-.533-.084-.53-.095-.526-.105-.522-.116-.519-.126-.514-.136-.511L56.3,24l-.156-.5-.166-.5-.176-.493-.186-.488-.2-.484-.2-.479-.214-.474-.223-.469-.232-.463-.241-.458-.25-.453-.259-.447-.267-.441-.276-.435-.284-.43-.293-.423-.3-.417-.309-.411.268-.2.313.416.3.423.3.429.288.435.279.441.271.447.262.453.253.458.244.464.235.469.226.475.217.48.207.485.2.49.188.495.178.5.168.5.158.509.148.513.138.517.128.521.117.525.107.529.1.533.085.537.074.54.063.544.052.547.04.55.029.553.018.556.006.559h0Zm0,0a.169.169,0,0,1-.337,0h.337ZM52.086,47.343l.239-.238-.253.017.309-.411.3-.417.292-.423.284-.43L53.534,45l.267-.441.259-.447.25-.453.241-.458.232-.463.223-.469.214-.474.2-.479.2-.484.186-.488.176-.493.166-.5.156-.5.146-.506.136-.511.126-.515.116-.518.105-.522.095-.526.084-.53.073-.533.062-.537.051-.54.04-.543.029-.546.017-.549.006-.552h.337l-.006.559-.018.556-.029.553-.04.55-.052.547-.063.544-.074.54-.085.537-.1.533-.107.529-.117.525-.128.521-.138.517-.148.513-.158.509-.168.5-.178.5-.188.495-.2.49-.207.485-.217.48-.226.475-.235.469-.244.464-.253.458-.262.453-.271.447-.279.441-.288.435-.3.429-.3.423-.313.416-.253.017Zm.253-.017a.169.169,0,0,1-.268-.2l.268.2Zm-.5-.7.482.481-.239.238-.482-.481-.015-.221.254-.017Zm-.239.238a.169.169,0,0,1,.239-.238Zm5.11-15.434h.337l-.006.542-.017.539L57,33.046l-.039.533-.05.53-.061.527-.071.523-.082.52-.092.517-.1.513-.113.509-.123.505-.133.5-.143.5-.153.493-.162.489-.172.484-.181.48-.191.475-.2.47-.209.465-.218.461-.227.455-.236.45-.244.445-.253.439-.261.434-.269.428-.278.422-.286.417-.294.411-.3.4-.269-.2.3-.4.29-.405.282-.411.274-.417L53,44.586l.258-.428.249-.434.241-.439.232-.444.224-.449.215-.454.206-.459.2-.464.188-.469.179-.473.17-.478.16-.482.151-.486.141-.491.131-.495.121-.5.111-.5.1-.506.091-.51.081-.513.07-.517.06-.52.049-.523.038-.526.028-.529.017-.532.006-.535h0Zm0,0a.169.169,0,0,1,.337,0h-.337ZM51.6,16l.239.238.015-.221.3.4.294.411.286.417.278.422.269.428.261.434.253.439.244.445.236.45.227.455.218.461.209.465.2.47.191.475.181.48.172.484.162.489.153.493.143.5.133.5.123.505.113.509.1.513.092.517.082.52.071.523.061.527.05.53.039.533.028.536.017.539.006.542h-.337l-.006-.535-.017-.532-.028-.529-.038-.526-.049-.523-.06-.52-.07-.517-.081-.513-.091-.51-.1-.506-.111-.5-.121-.5-.131-.495-.141-.491-.151-.486-.16-.482-.17-.478-.179-.473-.188-.469-.2-.464-.206-.459-.215-.454-.224-.449-.232-.444-.241-.439-.249-.434L53,18.272l-.266-.423-.274-.417-.282-.411-.29-.405-.3-.4L51.6,16Zm-.015.221a.169.169,0,0,1,.269-.2l-.269.2Zm.735-.464-.482.481L51.6,16l.482-.481.253.017-.015.221Zm-.239-.238a.169.169,0,1,1,.239.238ZM5.255,31.429h.337l.006.552.017.549.029.546.04.543.051.54L5.8,34.7l.073.533.084.53.095.526.105.522.116.518.126.515.136.511.146.506.156.5.166.5.176.493.186.488.2.484.2.479.214.474.223.469.232.463.241.458.25.452.259.447L9.448,45l.276.436.284.43.292.423.3.417.309.411-.268.2-.313-.416-.3-.423-.3-.429-.288-.435-.279-.441-.271-.447-.262-.453-.253-.459-.244-.464L7.9,42.891l-.226-.475-.217-.48-.207-.485-.2-.49-.188-.495-.178-.5-.168-.5-.158-.509-.148-.513-.138-.517L5.941,37.4l-.117-.525-.106-.529-.1-.533-.085-.537-.074-.54L5.4,34.195l-.052-.547-.04-.55-.029-.553-.018-.556-.006-.559h0Zm0,0a.169.169,0,0,1,.337,0ZM10.9,15.514l-.239.238.253-.017-.309.411-.3.417-.293.423-.284.43-.276.435-.267.441-.259.447-.25.453-.241.458-.232.463-.223.469-.214.474-.2.479-.2.484-.186.488L7,23l-.166.5-.156.5-.146.506-.136.511-.126.514-.116.519-.105.522-.095.526-.084.53-.073.533-.062.537-.051.54-.04.543-.029.546-.017.549-.006.552H5.255l.006-.559.018-.556.029-.553.04-.55.052-.547.063-.544.074-.54.085-.537.1-.533.107-.529.117-.525.128-.521.138-.517.148-.513.158-.509.168-.5.178-.5.188-.495.2-.49.207-.485.217-.48.226-.475.235-.469.244-.464.253-.458.262-.453.271-.447.279-.441.288-.435.3-.429.3-.423.313-.416.253-.017Zm-.253.017a.169.169,0,0,1,.268.2l-.268-.2Zm.5.7-.482-.481.239-.238.482.481.015.221-.254.017ZM11.377,16a.169.169,0,1,1-.239.238ZM6.267,31.429H5.93l.006-.542.017-.539.028-.536.039-.533.05-.53.061-.527L6.2,27.7l.082-.52.092-.517.1-.513.113-.509.123-.505.133-.5.143-.5.153-.493.162-.489.172-.484.181-.48.191-.475.2-.47.209-.465.218-.461.227-.455.236-.45.244-.445.253-.439L9.7,18.1l.269-.428.278-.422.286-.417.294-.411.3-.4.269.2-.3.4-.29.405-.282.411-.274.417-.266.423-.258.428-.249.434-.241.439L9,20.016l-.224.449-.215.454-.206.459-.2.464-.188.469-.179.473-.17.478-.16.482-.151.486-.141.491-.131.495-.121.5-.111.5-.1.506-.091.51-.081.513-.07.517-.06.52-.049.523-.038.526-.028.529-.017.532-.006.535h0Zm0,0a.169.169,0,0,1-.337,0h.337Zm5.11,15.434-.239-.238-.015.221-.3-.4-.294-.411-.286-.417-.278-.422L9.7,44.763l-.261-.434-.253-.439-.244-.445-.236-.45-.227-.455-.218-.461-.209-.465-.2-.47-.191-.475-.181-.48L7.3,39.7l-.162-.489-.153-.493-.143-.5-.133-.5-.123-.505-.113-.509-.1-.513-.092-.517-.082-.52-.071-.523-.061-.527-.05-.53-.039-.533-.028-.536-.017-.539-.006-.542h.337l.006.535.017.532.028.529.038.526.049.523.06.52.07.517.081.513.091.51.1.506.111.5.121.5.131.495.141.491.151.486.16.482.17.478.179.473.188.469.2.464.206.459.215.454L9,42.841l.232.444.241.439.249.434.258.428.266.423.274.417.282.411.29.405.3.4-.015.221Zm.015-.221a.169.169,0,0,1-.269.2l.269-.2Zm-.735.464.482-.481.239.238-.482.481-.253-.017.015-.221Zm.239.238a.169.169,0,0,1-.239-.238ZM43.527,14.775l-.239-.238.022.256L43,14.574l-.319-.213-.323-.207-.328-.2-.332-.2-.335-.189-.339-.183-.343-.177-.347-.17-.351-.164-.354-.158-.358-.151-.361-.144-.365-.138-.368-.131-.371-.124-.374-.117-.377-.11-.38-.1-.383-.1-.386-.089-.389-.081-.391-.074-.394-.067-.4-.059-.4-.051-.4-.044-.4-.036-.406-.028-.408-.02-.41-.012-.412,0V10.7l.419,0,.417.012.415.021.413.028.41.037.408.044.405.052.4.06.4.068.4.075.4.083.392.09.389.1.386.1.383.112.38.119.377.126.374.133.371.14.367.147.364.154.36.16.356.167.353.173.349.18.345.186.341.192.337.2.333.2.329.211.324.217.32.223.022.256Zm-.022-.256a.169.169,0,1,1-.2.275Zm-.7.5.484-.483.239.238-.484.483-.216.019-.022-.257Zm.239.238a.169.169,0,0,1-.239-.238ZM31.491,11.711v-.337h0l.4,0,.4.012.4.019.4.027.393.035.391.042.389.05.386.057.384.064.381.071.379.079.376.086.374.093.371.1.368.106.365.113.362.12.359.126.356.133.352.139.349.146.346.152.342.158.339.165.335.171.332.177L41.44,14l.324.189.32.194.316.2.312.206.308.212-.194.276-.3-.208-.307-.2-.311-.2-.315-.191-.319-.186-.322-.18-.326-.174-.33-.168-.333-.162-.337-.156-.34-.15-.343-.143-.346-.137-.35-.131-.353-.124-.356-.118-.359-.111-.362-.1-.364-.1-.367-.091-.37-.084-.373-.077-.375-.07-.377-.063-.38-.056-.382-.049-.384-.041-.387-.034-.389-.027-.391-.019-.393-.012-.395,0h0Zm0,0a.168.168,0,1,1,0-.337v.337ZM19.939,15.259l.239-.238L19.961,15l.308-.212.312-.206.316-.2.32-.195L21.542,14l.328-.183.332-.177.335-.171.339-.165.342-.158L23.563,13l.349-.146.352-.139.356-.133.359-.126.362-.12.365-.113.368-.106.371-.1.373-.093.376-.086.379-.079.381-.071.384-.064.386-.057.389-.05.391-.042.393-.035.4-.027.4-.019.4-.012.4,0v.337l-.395,0-.393.012-.391.019-.389.027-.387.034-.384.041-.382.049-.38.056-.377.063-.375.07-.373.077-.37.084-.367.091-.364.1-.362.1-.359.111-.356.118-.353.124-.35.131-.347.137L23.7,13.3l-.34.15-.337.156-.333.162-.33.168-.326.174-.322.18-.319.185-.315.191-.311.2-.307.2-.3.208-.216-.019Zm.216.019A.169.169,0,1,1,19.961,15Zm-.462-.74.484.483-.239.238-.484-.483.022-.256.217.018Zm-.239.238a.169.169,0,1,1,.239-.238ZM31.491,10.7v.337h0l-.412,0-.41.012-.408.02-.406.028-.4.036-.4.044-.4.051-.4.059-.394.067-.391.074-.389.081L26.7,11.6l-.383.1-.38.1-.377.11-.374.117-.371.124-.368.131-.365.138-.361.144-.358.151L23,12.874l-.351.164-.347.17-.343.177-.339.183-.335.189-.332.2-.328.2-.323.207-.319.213-.315.219-.2-.275.32-.223.324-.217.329-.211.333-.2.337-.2.341-.192.345-.186.349-.18.353-.173.356-.167.36-.16.364-.154.367-.147.371-.14.374-.133.377-.126.38-.119.383-.112.386-.1.389-.1.392-.09.4-.083.4-.075.4-.068.4-.06.406-.052.408-.044.41-.036.412-.028.415-.021.417-.012.419,0h0Zm0,0a.168.168,0,1,1,0,.337ZM52.26,31.429h-.337l0-.411-.012-.409-.02-.407-.028-.4-.036-.4-.044-.4-.052-.4-.059-.4-.067-.393-.074-.391-.081-.388-.089-.385-.1-.382-.1-.379-.11-.376-.117-.373-.124-.37-.131-.367-.138-.364-.145-.361-.151-.357-.158-.354-.164-.35-.171-.346-.177-.343-.183-.339-.19-.335-.2-.331-.2-.327-.208-.323-.214-.319-.219-.314.275-.2.223.32.217.324.211.328.205.332.2.336.193.34.186.344.18.348.174.352.167.356.16.359.154.363.147.366.14.37.133.373.126.376.119.38.112.383.1.386.1.389.09.392.083.394.075.4.068.4.06.4.052.4.044.407.037.409.029.412.021.414.012.416,0,.418h0Zm0,0a.169.169,0,0,1-.337,0h.337ZM48.177,43.442l.239-.238-.257.022.219-.314.214-.319.208-.323.2-.327.2-.331.19-.335.183-.339.177-.343.171-.346.164-.35.158-.354.151-.357.145-.36.138-.364.131-.367.124-.37.117-.373.11-.376.1-.379.1-.382.089-.385.081-.388.074-.391.067-.393.059-.4.052-.4.044-.4.036-.4.028-.4.02-.407.012-.409,0-.411h.337l0,.418-.012.416-.021.414-.029.412-.037.409-.044.407-.052.4-.06.4-.068.4-.075.4-.083.394-.09.392-.1.389-.1.386-.112.383-.119.38-.126.376-.133.373-.14.37-.147.366-.154.363-.16.359-.167.356-.174.352-.18.348-.186.344-.193.34-.2.336-.205.332-.211.328-.217.324-.223.32-.257.022Zm.257-.022a.169.169,0,0,1-.275-.2l.275.2Zm-.5-.7.484.483-.239.238-.484-.483-.019-.216.257-.022Zm-.239.238a.169.169,0,0,1,.239-.238Zm3.555-11.53h.337l0,.4-.012.4-.02.4-.027.394-.035.392-.042.39-.05.388-.057.386-.064.383-.072.381-.079.378-.086.375-.093.373-.1.37-.107.367-.113.364-.12.361-.127.358-.133.355-.14.352-.146.349-.153.345-.159.342-.165.338-.171.335-.177.331-.183.327-.189.323L48.569,42l-.2.316-.206.312-.212.307-.276-.193.208-.3.2-.306.2-.31.192-.314.186-.318.18-.322.174-.325.168-.329.162-.332.156-.336.15-.339.144-.342.137-.346.131-.349.124-.352.118-.355.111-.358.1-.361.1-.364.091-.367.084-.369.077-.372.07-.374.063-.377.056-.379.049-.381.041-.384.034-.386.027-.388.019-.39.012-.392,0-.394h0Zm0,0a.169.169,0,0,1,.337,0h-.337ZM47.693,19.9l.239.238.019-.216.212.307.206.312.2.316.195.32.189.323.183.327.177.331.171.335.165.338.159.342.153.345.146.348.14.352.133.355.127.358.12.361.113.364.107.367.1.37.093.373.086.376.079.378.072.381.064.383.057.386.05.388.042.39.035.392.027.394.02.4.012.4,0,.4h-.337l0-.394-.012-.392-.019-.39-.027-.388-.034-.386-.041-.384-.049-.381-.056-.379-.063-.377-.07-.374-.077-.372-.084-.369-.091-.366-.1-.364-.1-.361-.111-.358-.118-.355-.124-.352-.131-.349-.137-.346-.144-.343-.15-.339-.156-.336-.162-.332-.168-.329-.174-.325-.18-.322-.186-.318-.192-.314-.2-.31-.2-.306-.208-.3.019-.216Zm-.019.216a.169.169,0,0,1,.276-.194Zm.742-.461-.484.483-.239-.238.484-.483.257.022-.018.217Zm-.239-.238a.169.169,0,0,1,.239.238ZM10.722,31.429h.337l0,.411.012.409.02.407.028.4.036.4.044.4.051.4.059.4.067.393.074.391.081.388.089.385.1.382.1.379.11.377.117.373.124.37.131.367.138.364.145.361.151.357.158.354.164.35.171.346.177.343.183.339.19.335.2.331.2.327.208.323.214.319.219.314-.275.2-.223-.32-.217-.324-.211-.328-.205-.332-.2-.336-.193-.34-.186-.344-.18-.348L12.76,40.4l-.167-.356-.161-.359-.154-.363-.147-.366-.14-.37-.133-.373-.126-.376-.119-.38-.112-.383-.1-.386-.1-.389-.09-.392-.083-.394-.075-.4-.068-.4-.06-.4-.052-.4-.044-.407-.037-.409-.029-.412-.021-.414-.012-.416,0-.418h0Zm0,0a.169.169,0,0,1,.337,0ZM14.8,19.416l-.239.238.257-.022-.219.314-.214.319-.208.323-.2.327-.2.331-.19.335-.183.339-.177.343-.171.346-.164.35-.158.354-.151.357-.145.361-.138.364-.131.367-.124.37-.117.373-.11.376-.1.379-.1.382-.089.385-.081.388-.074.391-.067.393-.059.4-.051.4-.044.4-.036.4-.028.4-.02.407-.012.409,0,.411h-.337l0-.418.012-.416.021-.414.029-.412.037-.409.044-.407.052-.4.06-.4.068-.4.075-.4.083-.394.09-.392.1-.389.1-.386.112-.383.119-.38.126-.376.133-.373.14-.37.147-.367.154-.363.161-.359.167-.356.174-.352.18-.348.186-.344.193-.34.2-.336.205-.332.211-.328.217-.324.223-.32.257-.022Zm-.257.022a.169.169,0,0,1,.275.2Zm.5.7-.484-.483.239-.238.484.483.019.216-.257.022Zm.239-.238a.169.169,0,1,1-.239.238Zm-3.555,11.53H11.4l0-.4.012-.4.02-.4.027-.394.035-.392.042-.39.05-.388.057-.386.064-.383.072-.381.079-.378.086-.376.093-.373.1-.37.107-.367.113-.364.12-.361.127-.358.133-.355.14-.352.146-.348.153-.345.159-.342.165-.338.171-.335.177-.331.183-.327.189-.323.195-.319.2-.316.206-.312.212-.307.276.193-.208.3-.2.306-.2.31-.192.314-.186.318-.18.322-.174.325-.168.329-.162.332-.156.336-.15.339-.144.343-.137.346-.131.349-.124.352-.118.355-.111.358-.1.361-.1.364-.091.367-.084.369-.077.372-.07.374-.063.377-.056.379-.049.381-.041.384-.034.386-.027.388-.019.39-.012.392,0,.394h0Zm0,0a.169.169,0,0,1-.337,0h.337Zm3.555,11.53-.239-.238-.019.216-.212-.307-.206-.312-.2-.316-.195-.32-.189-.323-.183-.327-.177-.331-.171-.335-.165-.338-.159-.342-.153-.345-.146-.348-.14-.352-.133-.355-.127-.358-.12-.361-.113-.364-.107-.367-.1-.37-.093-.373-.086-.376-.079-.378-.072-.381-.064-.383-.057-.386-.05-.388-.042-.39-.035-.392-.027-.394-.02-.4-.012-.4,0-.4h.337l0,.394.012.392.019.39.027.388.034.386.041.384.049.381.056.379.063.377.07.374.077.372.084.369.091.366.1.364.1.361.111.358.118.355.125.352.131.349.137.346.144.343.15.339.156.336.162.333.168.329.174.325.18.322.186.318.192.314.2.31.2.306.208.3-.019.216Zm.019-.216a.169.169,0,0,1-.276.193Zm-.742.461.484-.483.239.238-.484.483-.257-.022.018-.217Zm.239.238a.169.169,0,1,1-.239-.238Z" transform="translate(0.009 0.01)" fill="#2b2a29"/>
    </g>
    <path id="Path_27555" data-name="Path 27555" d="M2539.784,5366.531a6.98,6.98,0,0,1-.368-.695,2.371,2.371,0,0,1-.139-.911,2.575,2.575,0,0,1,.57-1.456c-.266-.125-.481-.316-.773-.493a12.035,12.035,0,0,0-2.547-1.188,12.611,12.611,0,0,0-4.3-.659,12.881,12.881,0,0,0-8.82,3.845c.254.583,2.5,2.024,3.231,2.417a12.627,12.627,0,0,0,9.377.96,12.367,12.367,0,0,0,3.764-1.821Z" transform="translate(-2510.086 -5332.86)" fill="#056137" fill-rule="evenodd"/>
    <path id="Path_27556" data-name="Path 27556" d="M6295.761,5364.715a6.751,6.751,0,0,1,.406.7,2.523,2.523,0,0,1-.368,2.39c.583.317.836.583,1.736,1.012a12.3,12.3,0,0,0,7.11,1.189,12.516,12.516,0,0,0,4.282-1.353,11.363,11.363,0,0,0,3.231-2.416,12.593,12.593,0,0,0-3.687-2.619c-1.064-.505-3.764-1.416-5.132-1.2a11.779,11.779,0,0,0-4.309.633A13.22,13.22,0,0,0,6295.761,5364.715Z" transform="translate(-6262.502 -5334.092)" fill="#056137" fill-rule="evenodd"/>
    <path id="Path_27557" data-name="Path 27557" d="M4496.411,6679.459a7.715,7.715,0,0,0-3.257-1.012c-3.028,0-4.5,2.555-1.761,3.719,1.761.759,3.383.164,4.955-.646.495-.251.913-.53,1.369-.771a6.463,6.463,0,0,1,.862.467c.292.166.545.317.849.456a10.5,10.5,0,0,0,1.926.733,3.924,3.924,0,0,0,3.94-1.163,1.406,1.406,0,0,0-.265-1.847,3.44,3.44,0,0,0-1.8-.86c-2.142-.4-3.511.784-4.169.923.115-.114.406-.493.545-.658.558-.645,2.648-3.009,2.9-3.49.457-.822-.115-1.29-.925-1.29h-7.654c-.825,0-1.356.43-.951,1.265a9.5,9.5,0,0,0,1.128,1.43C4494.573,6677.3,4496.082,6678.966,4496.411,6679.459Z" transform="translate(-4466.23 -6638.833)" fill="#e14124" fill-rule="evenodd"/>
    <path id="Path_27558" data-name="Path 27558" d="M6001.952,3667.755l-.038.038-.672.657c-1.3,1.277-3.091,4.819-3.041,6.4a2.278,2.278,0,0,1,.888.253c.29.152.468.392.67.506a14.064,14.064,0,0,1,3.282-1.67,11.861,11.861,0,0,1,4.309-.632c.051-.114,1.014-1.252,1.357-1.771a3.906,3.906,0,1,0-3.029-6.21,11.758,11.758,0,0,0-2.014,1.075,8.4,8.4,0,0,0-1.711,1.353Z" transform="translate(-5966.514 -3644.975)" fill="#018d41" fill-rule="evenodd"/>
    <path id="Path_27559" data-name="Path 27559" d="M3524.6,3670.04a12,12,0,0,1,4.3.657,12.744,12.744,0,0,1,2.547,1.189c.292.177.507.354.772.493a2.432,2.432,0,0,1,1.546-.772,12.047,12.047,0,0,0-1.355-3.984,13.582,13.582,0,0,0-1.064-1.644c-.418-.531-.836-.961-1.254-1.417a16.292,16.292,0,0,0-1.749-1.379,13.185,13.185,0,0,0-7.274-2.137,19.129,19.129,0,0,0,.3,2.8,12.8,12.8,0,0,0,2.864,5.754A3.725,3.725,0,0,1,3524.6,3670.04Z" transform="translate(-3502.473 -3641.745)" fill="#018d41" fill-rule="evenodd"/>
    <path id="Path_27560" data-name="Path 27560" d="M5229.2,2657.468c-.115.557-.3,1.1-.418,1.708-.127.67-.127,1.24-.2,1.922.418.455.849.885,1.255,1.416a11.508,11.508,0,0,1,1.063,1.645,12.47,12.47,0,0,1,1.356,3.984h.393c-.051-1.581,1.736-5.123,3.042-6.4l.672-.657.038-.038c-.063-.038-.089.063-.114-.329a12,12,0,0,0-1.2-4.756,12.271,12.271,0,0,0-2.636-3.693,12.6,12.6,0,0,0-2.636,3.706C5229.593,2656.444,5229.4,2657.1,5229.2,2657.468Z" transform="translate(-5200.96 -2638.292)" fill="#95be32" fill-rule="evenodd"/>
    <path id="Path_27561" data-name="Path 27561" d="M5526.167,5665.148a2.561,2.561,0,0,0-.57,1.454,2.4,2.4,0,0,0,.139.91c.114.291.254.443.368.7.215.139.367.341.7.531a2.345,2.345,0,0,0,2.13.051,5.9,5.9,0,0,0,.772-.557,2.507,2.507,0,0,0,.368-2.392,7.014,7.014,0,0,0-.405-.694c-.2-.113-.382-.354-.673-.506a2.224,2.224,0,0,0-.886-.253h-.394A2.418,2.418,0,0,0,5526.167,5665.148Z" transform="translate(-5496.406 -5634.526)" fill="#e14124" fill-rule="evenodd"/>
    <path id="Path_27562" data-name="Path 27562" d="M3709.437,8487.593h.486l-.021-.073c-.058-.2-.105-.361-.142-.5s-.06-.226-.068-.266l-.012-.061a8.317,8.317,0,0,1-.222.826l-.021.073Zm.72.786-.123-.414h-.708l-.123.414h-.483l.675-2.02h.582l.676,2.02Zm1.168-.026-.589-1.5h.478l.165.476c.043.122.076.226.1.312s.043.146.05.176l.009.042c.022-.079.075-.257.162-.529l.15-.476h.45l-.549,1.476q-.237.637-.724.638a1.068,1.068,0,0,1-.167-.014v-.348a.559.559,0,0,0,.1.012A.377.377,0,0,0,3711.325,8488.353Zm2.116-1.5h.438v1.521h-.438v-.244a.463.463,0,0,1-.462.255.493.493,0,0,1-.365-.132.519.519,0,0,1-.13-.385v-1.016h.438v.917c0,.179.078.267.235.267q.285,0,.285-.381Zm1.76.045v.375a.73.73,0,0,0-.372-.092.194.194,0,0,0-.12.032.091.091,0,0,0-.042.077.089.089,0,0,0,.015.051.114.114,0,0,0,.05.045.613.613,0,0,0,.065.038.523.523,0,0,0,.087.04l.089.041a.749.749,0,0,1,.222.169.344.344,0,0,1,.084.24.413.413,0,0,1-.162.348.7.7,0,0,1-.429.123,1.008,1.008,0,0,1-.462-.094v-.39a.758.758,0,0,0,.438.145c.11,0,.165-.036.165-.1a.1.1,0,0,0-.015-.053.129.129,0,0,0-.052-.044.415.415,0,0,0-.065-.034c-.021-.01-.049-.023-.087-.039l-.087-.037a.465.465,0,0,1-.3-.432.4.4,0,0,1,.169-.344.688.688,0,0,1,.422-.124,1.011,1.011,0,0,1,.391.063Zm.786-.643v.855a.452.452,0,0,1,.456-.273.491.491,0,0,1,.362.143.58.58,0,0,1,.139.425v.97h-.437v-.9a.3.3,0,0,0-.067-.205.217.217,0,0,0-.171-.077.254.254,0,0,0-.086.015.32.32,0,0,0-.088.047.252.252,0,0,0-.078.117.574.574,0,0,0-.03.2v.8h-.438v-2.119Zm1.741.6v.238a.441.441,0,0,1,.429-.254.414.414,0,0,1,.426.289.422.422,0,0,1,.171-.211.518.518,0,0,1,.282-.078.46.46,0,0,1,.356.144.6.6,0,0,1,.131.417v.977h-.439v-.9a.349.349,0,0,0-.051-.2.168.168,0,0,0-.147-.077.25.25,0,0,0-.182.083.423.423,0,0,0-.08.295v.8h-.438v-.9a.348.348,0,0,0-.051-.2.167.167,0,0,0-.147-.077.251.251,0,0,0-.182.083.422.422,0,0,0-.079.295v.8h-.438v-1.521Zm2.894.9h-.141a.261.261,0,0,0-.171.049.148.148,0,0,0-.06.121c0,.1.059.154.177.154a.188.188,0,0,0,.145-.057.226.226,0,0,0,.051-.156Zm-.711-.43v-.391a1.07,1.07,0,0,1,.52-.1.713.713,0,0,1,.483.138.545.545,0,0,1,.159.432v.977h-.429v-.187a.383.383,0,0,1-.379.2.467.467,0,0,1-.347-.127.427.427,0,0,1-.124-.312.4.4,0,0,1,.161-.342.78.78,0,0,1,.475-.12h.192v-.105c0-.128-.085-.191-.255-.191A.833.833,0,0,0,3719.91,8487.324Zm1.946-.467v.258a.45.45,0,0,1,.176-.2.539.539,0,0,1,.283-.075.482.482,0,0,1,.366.141.576.576,0,0,1,.132.408v.988h-.438v-.906a.3.3,0,0,0-.062-.207.231.231,0,0,0-.177-.067.25.25,0,0,0-.2.093.43.43,0,0,0-.08.283v.8h-.438v-1.521Zm2.53,1.15h.243c.228,0,.342-.076.342-.233s-.113-.231-.34-.231h-.246Zm0-1.282v.454h.171a.441.441,0,0,0,.271-.068.2.2,0,0,0,.092-.172c0-.141-.1-.214-.289-.214Zm-.462-.366h.787a.733.733,0,0,1,.507.155.519.519,0,0,1,.174.4.478.478,0,0,1-.084.279.4.4,0,0,1-.219.158.454.454,0,0,1,.351.477.5.5,0,0,1-.173.393.677.677,0,0,1-.47.156h-.873Zm2.239-.1v.855a.452.452,0,0,1,.456-.273.489.489,0,0,1,.362.143.578.578,0,0,1,.139.425v.97h-.438v-.9a.3.3,0,0,0-.066-.205.216.216,0,0,0-.171-.077.248.248,0,0,0-.085.015.318.318,0,0,0-.089.047.25.25,0,0,0-.078.117.574.574,0,0,0-.03.2v.8h-.438v-2.119Zm2.056,1.494h-.141a.261.261,0,0,0-.171.049.148.148,0,0,0-.06.121c0,.1.059.154.177.154a.185.185,0,0,0,.144-.057.224.224,0,0,0,.051-.156Zm-.711-.43v-.391a1.069,1.069,0,0,1,.52-.1.714.714,0,0,1,.483.138.545.545,0,0,1,.159.432v.977h-.429v-.187a.382.382,0,0,1-.378.2.467.467,0,0,1-.347-.127.429.429,0,0,1-.124-.312.4.4,0,0,1,.161-.342.78.78,0,0,1,.476-.12h.192v-.105c0-.128-.085-.191-.255-.191A.83.83,0,0,0,3727.508,8487.324Zm1.942-.467v.282a.427.427,0,0,1,.14-.211.343.343,0,0,1,.226-.079.5.5,0,0,1,.115.011v.414a.388.388,0,0,0-.165-.032.281.281,0,0,0-.228.1.41.41,0,0,0-.087.273v.76h-.438l0-1.521Zm1.429.9h-.141a.26.26,0,0,0-.171.049.148.148,0,0,0-.06.121c0,.1.059.154.177.154a.186.186,0,0,0,.144-.057.226.226,0,0,0,.051-.156Zm-.712-.43v-.391a1.068,1.068,0,0,1,.52-.1.71.71,0,0,1,.483.138.544.544,0,0,1,.159.432v.977h-.429v-.187a.379.379,0,0,1-.378.2.466.466,0,0,1-.347-.127.424.424,0,0,1-.124-.312.406.406,0,0,1,.16-.342.782.782,0,0,1,.476-.12h.192v-.105c0-.128-.085-.191-.255-.191A.83.83,0,0,0,3730.168,8487.324Zm2.014-.145v.7a.155.155,0,0,0,.046.123.177.177,0,0,0,.122.041.39.39,0,0,0,.213-.059v.361a.747.747,0,0,1-.3.048.459.459,0,0,1-.519-.519v-.693h-.219v-.322h.219v-.359h.438v.359h.354v.322Z" transform="translate(-3689.131 -8441.514)" fill="#2b2a29"/>
    <path id="Path_27563" data-name="Path 27563" d="M2636.809,9065.193h.385a.99.99,0,0,0,.789-.319,1.323,1.323,0,0,0,.278-.9,1.108,1.108,0,0,0-.281-.792,1.031,1.031,0,0,0-.792-.3h-.38Zm-.869-3.007h1.276a1.894,1.894,0,0,1,1.369.512,1.7,1.7,0,0,1,.533,1.276,1.862,1.862,0,0,1-.525,1.4,1.909,1.909,0,0,1-1.389.51h-1.265Zm3.757,3.7V9063.1h.8v2.783Zm.071-3.261a.468.468,0,1,1,.66,0,.464.464,0,0,1-.66,0Zm2.656,2.532a.478.478,0,0,0,.4-.2.759.759,0,0,0,.146-.47q0-.746-.544-.745a.444.444,0,0,0-.38.187.854.854,0,0,0-.137.517.878.878,0,0,0,.132.525A.443.443,0,0,0,2642.424,9065.156Zm.55-2.055h.8v2.514a1.239,1.239,0,0,1-.4,1.007,1.507,1.507,0,0,1-1.006.339,2.413,2.413,0,0,1-1.029-.207v-.82a1.467,1.467,0,0,0,.946.308.767.767,0,0,0,.528-.152.634.634,0,0,0,.165-.482v-.188a.852.852,0,0,1-.77.374,1.071,1.071,0,0,1-.794-.342,1.387,1.387,0,0,1-.333-1.009,1.477,1.477,0,0,1,.322-.979,1.043,1.043,0,0,1,.844-.388.794.794,0,0,1,.731.4Zm1.457,2.783V9063.1h.8v2.783Zm.072-3.261a.467.467,0,1,1,.66,0,.464.464,0,0,1-.66,0Zm2.348,1.065v1.279a.286.286,0,0,0,.085.225.315.315,0,0,0,.223.076.711.711,0,0,0,.39-.108v.663a1.413,1.413,0,0,1-.55.088.839.839,0,0,1-.951-.948v-1.274h-.4v-.588h.4v-.659h.8v.659h.649v.588Zm2.574,1.054h-.259a.486.486,0,0,0-.313.088.275.275,0,0,0-.11.225c0,.188.108.282.325.282a.34.34,0,0,0,.263-.105.412.412,0,0,0,.094-.286Zm-1.3-.785v-.719a1.976,1.976,0,0,1,.95-.186,1.31,1.31,0,0,1,.886.255,1,1,0,0,1,.291.792v1.784h-.786v-.34a.7.7,0,0,1-.693.356.854.854,0,0,1-.635-.23.785.785,0,0,1-.229-.577.736.736,0,0,1,.294-.622,1.438,1.438,0,0,1,.871-.223h.353v-.19q0-.353-.468-.353A1.5,1.5,0,0,0,2648.122,9063.958Zm2.788,1.927V9062h.8v3.881Zm2.81,0,.319-3.7h.929l.517,1.339q.133.334.226.615c.063.186.1.318.121.394l.027.11a9.909,9.909,0,0,1,.385-1.119l.522-1.339h.929l.385,3.7h-.847l-.137-1.431-.072-1.083q-.143.412-.4,1.083l-.522,1.394h-.5l-.517-1.394q-.126-.341-.215-.611c-.059-.179-.1-.3-.115-.373l-.027-.1c0,.26-.017.619-.05,1.083l-.116,1.431Zm4.993,0V9063.1h.8v2.783Zm.072-3.261a.468.468,0,1,1,.66,0,.464.464,0,0,1-.66,0Zm3.179.563v.684a1.328,1.328,0,0,0-.682-.168.351.351,0,0,0-.22.057.173.173,0,0,0-.077.145.166.166,0,0,0,.027.093.266.266,0,0,0,.091.083c.043.026.083.048.121.069s.092.046.159.074a1.4,1.4,0,0,1,.162.077,1.363,1.363,0,0,1,.407.3.641.641,0,0,1,.155.441.752.752,0,0,1-.3.638,1.275,1.275,0,0,1-.787.226,1.888,1.888,0,0,1-.847-.17v-.714a1.382,1.382,0,0,0,.8.263c.2,0,.3-.063.3-.192a.177.177,0,0,0-.027-.093.257.257,0,0,0-.094-.081.8.8,0,0,0-.121-.062c-.037-.018-.09-.041-.16-.071s-.123-.051-.159-.069a.846.846,0,0,1-.555-.791.737.737,0,0,1,.311-.632,1.287,1.287,0,0,1,.772-.226,1.893,1.893,0,0,1,.715.117Zm2.4,0v.684a1.328,1.328,0,0,0-.682-.168.352.352,0,0,0-.22.057.173.173,0,0,0-.077.145.168.168,0,0,0,.028.093.269.269,0,0,0,.091.083c.042.026.083.048.121.069s.091.046.159.074a1.447,1.447,0,0,1,.162.077,1.366,1.366,0,0,1,.407.3.643.643,0,0,1,.154.441.751.751,0,0,1-.3.638,1.274,1.274,0,0,1-.787.226,1.887,1.887,0,0,1-.846-.17v-.714a1.381,1.381,0,0,0,.8.263c.2,0,.3-.063.3-.192a.171.171,0,0,0-.027-.093.25.25,0,0,0-.094-.081.767.767,0,0,0-.121-.062c-.037-.018-.09-.041-.159-.071s-.123-.051-.159-.069a.846.846,0,0,1-.556-.791.738.738,0,0,1,.311-.632,1.286,1.286,0,0,1,.773-.226,1.9,1.9,0,0,1,.715.117Zm.666,2.7V9063.1h.8v2.783Zm.072-3.261a.468.468,0,1,1,.66,0,.464.464,0,0,1-.66,0Zm2.651,3.3a1.3,1.3,0,0,1-1.012-.392,1.435,1.435,0,0,1-.358-1.008,1.521,1.521,0,0,1,.374-1.057,1.436,1.436,0,0,1,2-.014,1.481,1.481,0,0,1,.357,1.023,1.518,1.518,0,0,1-.36,1.04A1.273,1.273,0,0,1,2667.749,9065.928Zm-.006-2.238a.428.428,0,0,0-.4.226,1.136,1.136,0,0,0-.132.582,1.12,1.12,0,0,0,.135.583.436.436,0,0,0,.4.228.425.425,0,0,0,.393-.222,1.146,1.146,0,0,0,.129-.579Q2668.277,9063.689,2667.743,9063.689Zm2.7-.588v.474a.824.824,0,0,1,.322-.367.975.975,0,0,1,.519-.135.882.882,0,0,1,.671.256,1.051,1.051,0,0,1,.242.75v1.806h-.8v-1.657a.549.549,0,0,0-.115-.376.415.415,0,0,0-.325-.13.46.46,0,0,0-.366.174.792.792,0,0,0-.145.519v1.471h-.8V9063.1Z" transform="translate(-2622.02 -9014.047)" fill="#e14124"/>
    <path id="Path_27564" data-name="Path 27564" d="M1257.574,10508.848v-.006a.466.466,0,0,0-.1-.317.669.669,0,0,0-.277-.179.611.611,0,0,0,.1-.071.375.375,0,0,0,.083-.095.456.456,0,0,0,.058-.12.482.482,0,0,0,.022-.152v-.006a.464.464,0,0,0-.178-.382.773.773,0,0,0-.491-.142h-.942v2.026h.965a1.287,1.287,0,0,0,.311-.034.716.716,0,0,0,.24-.1.471.471,0,0,0,.153-.174.526.526,0,0,0,.054-.243Zm-.554-.864a.171.171,0,0,1-.087.161.451.451,0,0,1-.235.053h-.412v-.43h.441a.361.361,0,0,1,.217.055.177.177,0,0,1,.076.155Zm.113.81a.185.185,0,0,1-.084.167.426.426,0,0,1-.232.055h-.531v-.448h.516a.425.425,0,0,1,.252.06.194.194,0,0,1,.079.162Zm2.179.611v-1.552h-.441v.863a.339.339,0,0,1-.074.236.263.263,0,0,1-.2.079.249.249,0,0,1-.2-.079.353.353,0,0,1-.07-.236v-.863h-.441v1a.614.614,0,0,0,.138.425.5.5,0,0,0,.39.151.592.592,0,0,0,.151-.019.582.582,0,0,0,.122-.056.83.83,0,0,0,.1-.081,1.062,1.062,0,0,0,.083-.095v.222h.441Zm.868-1.723v-.391h-.464v.391Zm-.012,1.723v-1.552h-.441v1.552Zm.876,0v-2.113h-.441v2.113Zm1.979,0v-2.113h-.441v.761a.834.834,0,0,0-.193-.16.559.559,0,0,0-.292-.067.691.691,0,0,0-.267.051.656.656,0,0,0-.225.154.808.808,0,0,0-.157.253.921.921,0,0,0-.059.343v.006a.923.923,0,0,0,.059.344.78.78,0,0,0,.158.252.621.621,0,0,0,.227.153.65.65,0,0,0,.264.053.552.552,0,0,0,.288-.068.714.714,0,0,0,.2-.182v.222Zm-.435-.773a.488.488,0,0,1-.03.177.412.412,0,0,1-.081.136.338.338,0,0,1-.119.089.37.37,0,0,1-.293,0,.356.356,0,0,1-.12-.089.392.392,0,0,1-.082-.136.483.483,0,0,1-.031-.177v-.006a.5.5,0,0,1,.031-.179.434.434,0,0,1,.082-.134.364.364,0,0,1,.12-.087.34.34,0,0,1,.293,0,.345.345,0,0,1,.119.087.451.451,0,0,1,.081.136.5.5,0,0,1,.03.177Zm1.3-.949v-.391h-.464v.391Zm-.012,1.723v-1.552h-.441v1.552Zm1.84,0v-1a.609.609,0,0,0-.138-.422.494.494,0,0,0-.391-.153.515.515,0,0,0-.151.02.589.589,0,0,0-.122.056.57.57,0,0,0-.1.08.842.842,0,0,0-.083.1v-.223h-.441v1.552h.441v-.865a.331.331,0,0,1,.074-.233.263.263,0,0,1,.2-.08.249.249,0,0,1,.2.08.343.343,0,0,1,.07.233v.865h.441Zm1.947-.35v-1.2h-.441v.2a.92.92,0,0,0-.206-.166.6.6,0,0,0-.3-.064.688.688,0,0,0-.258.048.638.638,0,0,0-.22.14.686.686,0,0,0-.154.228.771.771,0,0,0-.058.309v0a.792.792,0,0,0,.057.309.665.665,0,0,0,.152.228.643.643,0,0,0,.22.141.739.739,0,0,0,.261.048.578.578,0,0,0,.293-.067.756.756,0,0,0,.215-.185v.076a.426.426,0,0,1-.109.315.466.466,0,0,1-.335.106,1.02,1.02,0,0,1-.28-.037,1.362,1.362,0,0,1-.245-.105l-.151.331a1.363,1.363,0,0,0,.322.12,1.589,1.589,0,0,0,.366.042,1.416,1.416,0,0,0,.38-.047.655.655,0,0,0,.271-.145.613.613,0,0,0,.162-.252A1.181,1.181,0,0,0,1267.665,10509.055Zm-.435-.5a.368.368,0,0,1-.029.146.347.347,0,0,1-.08.114.335.335,0,0,1-.12.072.4.4,0,0,1-.151.028.381.381,0,0,1-.27-.1.335.335,0,0,1-.107-.261v-.006a.366.366,0,0,1,.029-.146.351.351,0,0,1,.08-.113.338.338,0,0,1,.119-.073.413.413,0,0,1,.15-.028.424.424,0,0,1,.151.028.338.338,0,0,1,.12.073.36.36,0,0,1,.08.113.37.37,0,0,1,.029.146Zm3.618-.162v-.006a1.01,1.01,0,0,0-.079-.4.945.945,0,0,0-.222-.32,1,1,0,0,0-.342-.213,1.213,1.213,0,0,0-.437-.076h-.792v2.026h.792a1.154,1.154,0,0,0,.437-.079,1.015,1.015,0,0,0,.342-.215.941.941,0,0,0,.222-.319A1.024,1.024,0,0,0,1270.848,10508.391Zm-.467.006a.652.652,0,0,1-.045.247.613.613,0,0,1-.125.191.57.57,0,0,1-.193.123.664.664,0,0,1-.25.045h-.345v-1.223h.345a.646.646,0,0,1,.25.046.546.546,0,0,1,.193.125.6.6,0,0,1,.125.192.67.67,0,0,1,.045.247Zm1.291-.715v-.391h-.464v.391Zm-.012,1.723v-1.552h-.441v1.552Zm1.979-.35v-1.2h-.441v.2a.915.915,0,0,0-.206-.166.6.6,0,0,0-.3-.064.689.689,0,0,0-.258.048.662.662,0,0,0-.221.138.713.713,0,0,0-.154.229.771.771,0,0,0-.058.309v0a.79.79,0,0,0,.057.309.661.661,0,0,0,.152.228.642.642,0,0,0,.22.141.738.738,0,0,0,.261.048.576.576,0,0,0,.293-.067.754.754,0,0,0,.215-.185v.075a.428.428,0,0,1-.109.316.467.467,0,0,1-.335.106,1.017,1.017,0,0,1-.28-.037,1.363,1.363,0,0,1-.245-.105l-.151.331a1.366,1.366,0,0,0,.322.12,1.589,1.589,0,0,0,.366.042,1.416,1.416,0,0,0,.38-.047.655.655,0,0,0,.271-.145.613.613,0,0,0,.163-.252A1.185,1.185,0,0,0,1273.639,10509.055Zm-.435-.5a.359.359,0,0,1-.029.146.341.341,0,0,1-.08.114.335.335,0,0,1-.12.072.4.4,0,0,1-.151.028.381.381,0,0,1-.27-.1.335.335,0,0,1-.108-.261v-.006a.364.364,0,0,1,.029-.146.355.355,0,0,1,.079-.113.341.341,0,0,1,.119-.073.411.411,0,0,1,.149-.028.425.425,0,0,1,.151.028.339.339,0,0,1,.12.073.357.357,0,0,1,.08.113.366.366,0,0,1,.029.146Zm1.3-.871v-.391h-.464v.391Zm-.012,1.723v-1.552h-.441v1.552Zm1.289-.063v-.353a.456.456,0,0,1-.218.055c-.095,0-.142-.052-.142-.15v-.663h.366v-.377h-.366v-.4h-.441v.4h-.186v.377h.186v.735a.656.656,0,0,0,.033.225.374.374,0,0,0,.093.143.316.316,0,0,0,.142.077.715.715,0,0,0,.184.021.688.688,0,0,0,.194-.024A.731.731,0,0,0,1275.784,10509.341Zm1.668.063v-.9a.6.6,0,0,0-.693-.669,1.343,1.343,0,0,0-.336.035,1.458,1.458,0,0,0-.267.091l.11.335a1.5,1.5,0,0,1,.2-.062,1.022,1.022,0,0,1,.225-.022.37.37,0,0,1,.25.072.263.263,0,0,1,.084.212v.027a1.29,1.29,0,0,0-.173-.047,1.141,1.141,0,0,0-.461.013.574.574,0,0,0-.2.091.437.437,0,0,0-.129.152.491.491,0,0,0-.047.221v.006a.474.474,0,0,0,.042.205.44.44,0,0,0,.115.149.557.557,0,0,0,.17.092.712.712,0,0,0,.207.028.648.648,0,0,0,.276-.053.618.618,0,0,0,.195-.143v.167Zm-.418-.548a.242.242,0,0,1-.094.2.388.388,0,0,1-.251.075.284.284,0,0,1-.174-.051.16.16,0,0,1-.067-.138v-.007a.179.179,0,0,1,.081-.158.4.4,0,0,1,.224-.056.685.685,0,0,1,.152.017.738.738,0,0,1,.129.042v.077Zm1.26.548v-2.113h-.441v2.113Zm3.05,0v-2.026h-.447v.8h-.824v-.8h-.447v2.026h.447v-.813h.824v.813Zm1.892-.733v0a1.1,1.1,0,0,0-.045-.316.776.776,0,0,0-.139-.27.7.7,0,0,0-.236-.187.837.837,0,0,0-.649-.006.781.781,0,0,0-.242.173.828.828,0,0,0-.158.259.873.873,0,0,0-.057.313v.007a.847.847,0,0,0,.061.326.742.742,0,0,0,.17.252.71.71,0,0,0,.258.164.84.84,0,0,0,.323.059.821.821,0,0,0,.369-.076.776.776,0,0,0,.267-.213l-.252-.222a.7.7,0,0,1-.18.12.489.489,0,0,1-.2.038.4.4,0,0,1-.248-.076.375.375,0,0,1-.132-.229h1.082c0-.021,0-.038,0-.055s0-.033,0-.056Zm-.429-.164h-.664a.441.441,0,0,1,.112-.24.293.293,0,0,1,.224-.09.284.284,0,0,1,.224.092A.421.421,0,0,1,1282.806,10508.507Zm2.095.9v-.9a.6.6,0,0,0-.693-.669,1.344,1.344,0,0,0-.336.035,1.457,1.457,0,0,0-.267.091l.11.335a1.5,1.5,0,0,1,.2-.062,1.027,1.027,0,0,1,.225-.022.37.37,0,0,1,.25.072.262.262,0,0,1,.084.212v.027a1.451,1.451,0,0,0-.173-.047,1.143,1.143,0,0,0-.461.013.578.578,0,0,0-.2.091.442.442,0,0,0-.129.152.493.493,0,0,0-.046.221v.006a.476.476,0,0,0,.042.205.442.442,0,0,0,.115.149.559.559,0,0,0,.17.092.715.715,0,0,0,.208.028.649.649,0,0,0,.275-.053.624.624,0,0,0,.195-.143v.167Zm-.418-.548a.242.242,0,0,1-.094.2.387.387,0,0,1-.251.075.285.285,0,0,1-.174-.051.159.159,0,0,1-.067-.138v-.007a.179.179,0,0,1,.081-.158.4.4,0,0,1,.224-.056.69.69,0,0,1,.152.017.734.734,0,0,1,.129.042v.077Zm1.26.548v-2.113h-.441v2.113Zm1.288-.063v-.353a.455.455,0,0,1-.218.055c-.094,0-.142-.052-.142-.15v-.663h.366v-.377h-.366v-.4h-.441v.4h-.186v.377h.186v.735a.637.637,0,0,0,.034.225.368.368,0,0,0,.093.143.318.318,0,0,0,.142.077.72.72,0,0,0,.184.021.687.687,0,0,0,.194-.024A.729.729,0,0,0,1287.03,10509.341Zm1.755.063v-1a.61.61,0,0,0-.138-.422.494.494,0,0,0-.39-.153.515.515,0,0,0-.151.02.533.533,0,0,0-.222.136.88.88,0,0,0-.083.1v-.784h-.441v2.115h.441v-.867a.329.329,0,0,1,.074-.233.262.262,0,0,1,.2-.08.25.25,0,0,1,.2.08.345.345,0,0,1,.069.233v.867h.441Zm2.844,0v-.4h-1.1v-.426h.958v-.4h-.958v-.412h1.088v-.4h-1.529v2.026Zm1.723-.25-.258-.26a.846.846,0,0,1-.164.12.417.417,0,0,1-.355.012.351.351,0,0,1-.125-.092.386.386,0,0,1-.08-.136.492.492,0,0,1-.028-.168v-.006a.484.484,0,0,1,.028-.163.433.433,0,0,1,.078-.136.388.388,0,0,1,.119-.09.353.353,0,0,1,.153-.033.4.4,0,0,1,.2.046.714.714,0,0,1,.155.125l.27-.289a.814.814,0,0,0-.255-.191.942.942,0,0,0-.7-.006.805.805,0,0,0-.257.172.84.84,0,0,0-.168.259.819.819,0,0,0-.061.313v.007a.812.812,0,0,0,.229.566.8.8,0,0,0,.257.171.792.792,0,0,0,.323.063.775.775,0,0,0,.377-.078A1.01,1.01,0,0,0,1293.353,10509.154Zm1.895-.523v-.006a.781.781,0,0,0-.064-.313.8.8,0,0,0-.441-.426.888.888,0,0,0-.333-.062.862.862,0,0,0-.6.235.85.85,0,0,0-.177.257.785.785,0,0,0-.064.314v.007a.779.779,0,0,0,.064.314.8.8,0,0,0,.176.254.791.791,0,0,0,.266.17.879.879,0,0,0,.937-.174.827.827,0,0,0,.177-.256A.783.783,0,0,0,1295.248,10508.631Zm-.435.007a.466.466,0,0,1-.028.162.392.392,0,0,1-.08.135.351.351,0,0,1-.126.092.421.421,0,0,1-.17.034.4.4,0,0,1-.167-.035.426.426,0,0,1-.213-.231.453.453,0,0,1-.029-.163v-.006a.49.49,0,0,1,.028-.163.408.408,0,0,1,.08-.136.38.38,0,0,1,.126-.09.423.423,0,0,1,.17-.033.387.387,0,0,1,.165.035.433.433,0,0,1,.13.093.417.417,0,0,1,.084.138.452.452,0,0,1,.029.162Zm1.895.295v0a.357.357,0,0,0-.043-.183.451.451,0,0,0-.11-.128.6.6,0,0,0-.151-.088c-.056-.025-.111-.045-.165-.063s-.083-.026-.12-.04a.9.9,0,0,1-.1-.042.263.263,0,0,1-.07-.046.078.078,0,0,1-.026-.058v-.006a.092.092,0,0,1,.041-.075.2.2,0,0,1,.122-.03.577.577,0,0,1,.194.037,1.551,1.551,0,0,1,.226.106l.168-.3a1.074,1.074,0,0,0-.28-.132.988.988,0,0,0-.3-.048.74.74,0,0,0-.222.032.5.5,0,0,0-.18.1.469.469,0,0,0-.122.155.463.463,0,0,0-.045.209v0a.4.4,0,0,0,.042.192.421.421,0,0,0,.109.133.637.637,0,0,0,.15.086,1.63,1.63,0,0,0,.164.056c.042.015.083.026.122.038a.833.833,0,0,1,.1.037.191.191,0,0,1,.071.045.079.079,0,0,1,.026.06v0a.1.1,0,0,1-.045.085.236.236,0,0,1-.141.032.7.7,0,0,1-.236-.047,1.038,1.038,0,0,1-.254-.139l-.188.288a1.086,1.086,0,0,0,.667.235.9.9,0,0,0,.234-.028.65.65,0,0,0,.19-.092.4.4,0,0,0,.126-.156A.51.51,0,0,0,1296.707,10508.933Zm1.8-1.08h-.459l-.339,1.057-.354-1.057h-.467l.609,1.558a.2.2,0,0,1-.062.08.163.163,0,0,1-.091.021.308.308,0,0,1-.094-.016.787.787,0,0,1-.095-.044l-.148.318a.789.789,0,0,0,.177.077.684.684,0,0,0,.215.029.624.624,0,0,0,.174-.022.372.372,0,0,0,.135-.074.62.62,0,0,0,.109-.136,1.2,1.2,0,0,0,.093-.2l.6-1.59Zm1.4,1.08v0a.355.355,0,0,0-.044-.183.447.447,0,0,0-.11-.128.605.605,0,0,0-.151-.088c-.056-.025-.111-.045-.165-.063s-.083-.026-.12-.04a.919.919,0,0,1-.1-.042.263.263,0,0,1-.07-.046.078.078,0,0,1-.026-.058v-.006a.09.09,0,0,1,.041-.075.194.194,0,0,1,.122-.03.576.576,0,0,1,.194.037,1.53,1.53,0,0,1,.227.106l.168-.3a1.067,1.067,0,0,0-.28-.132.99.99,0,0,0-.3-.048.739.739,0,0,0-.222.032.5.5,0,0,0-.18.1.457.457,0,0,0-.167.364v0a.407.407,0,0,0,.042.192.426.426,0,0,0,.109.133.639.639,0,0,0,.149.086,1.637,1.637,0,0,0,.164.056c.042.015.083.026.122.038a.866.866,0,0,1,.1.037.189.189,0,0,1,.071.045.079.079,0,0,1,.026.06v0a.1.1,0,0,1-.045.085.237.237,0,0,1-.141.032.7.7,0,0,1-.236-.047,1.034,1.034,0,0,1-.254-.139l-.189.288a1.088,1.088,0,0,0,.667.235.893.893,0,0,0,.233-.028.646.646,0,0,0,.19-.092.405.405,0,0,0,.126-.156A.508.508,0,0,0,1299.9,10508.933Zm1.189.408v-.353a.456.456,0,0,1-.218.055c-.094,0-.142-.051-.142-.15v-.663h.365v-.377h-.365v-.4h-.441v.4h-.186v.377h.186v.735a.652.652,0,0,0,.033.225.373.373,0,0,0,.093.143.319.319,0,0,0,.142.077.714.714,0,0,0,.184.022.684.684,0,0,0,.195-.025A.725.725,0,0,0,1301.094,10509.341Zm1.782-.669v-.006a1.1,1.1,0,0,0-.045-.316.778.778,0,0,0-.139-.27.692.692,0,0,0-.237-.187.752.752,0,0,0-.337-.068.739.739,0,0,0-.312.063.763.763,0,0,0-.242.172.831.831,0,0,0-.158.259.875.875,0,0,0-.056.313v.007a.847.847,0,0,0,.061.326.747.747,0,0,0,.17.252.728.728,0,0,0,.258.165.859.859,0,0,0,.323.058.822.822,0,0,0,.369-.076.766.766,0,0,0,.267-.213l-.252-.222a.683.683,0,0,1-.18.12.488.488,0,0,1-.2.038.4.4,0,0,1-.248-.076.372.372,0,0,1-.132-.229h1.082c0-.021,0-.038,0-.054S1302.876,10508.693,1302.876,10508.672Zm-.429-.165h-.664a.441.441,0,0,1,.112-.24.293.293,0,0,1,.225-.09.284.284,0,0,1,.224.092A.422.422,0,0,1,1302.446,10508.507Zm3.131.9v-1.011a.59.59,0,0,0-.139-.427.513.513,0,0,0-.386-.145.636.636,0,0,0-.285.062.725.725,0,0,0-.226.186.434.434,0,0,0-.172-.184.522.522,0,0,0-.265-.063.533.533,0,0,0-.153.02.573.573,0,0,0-.123.056.553.553,0,0,0-.1.08.82.82,0,0,0-.083.1v-.223h-.441v1.554h.441v-.867a.339.339,0,0,1,.071-.233.251.251,0,0,1,.2-.08.237.237,0,0,1,.192.08.355.355,0,0,1,.067.233v.867h.441v-.867a.341.341,0,0,1,.071-.233.252.252,0,0,1,.2-.08.237.237,0,0,1,.191.08.355.355,0,0,1,.067.233v.867Z" transform="translate(-1249.223 -10451.887)" fill="#29298c"/>
  </g>
</svg>
