<svg xmlns="http://www.w3.org/2000/svg" width="170" height="90" viewBox="0 0 170 90">
  <g id="Digital-india-normal" transform="translate(20477 24564)">
    <rect id="Rectangle_22003" data-name="Rectangle 22003" width="170" height="90" transform="translate(-20477 -24564)" fill="none"/>
    <g id="g8" transform="translate(-20454.094 -24484.33)">
      <g id="g10" transform="translate(9.093 -62.669)">
        <path id="path12" d="M46.818-26.387V-31.02h1.566a1.68,1.68,0,0,1,1.129.358,1.2,1.2,0,0,1,.42.961,1.237,1.237,0,0,1-.216.717,1.232,1.232,0,0,1-.59.453,3.206,3.206,0,0,1-1.075.14h-.524v2Zm1.443-4.042h-.733v1.447H48.3a1.027,1.027,0,0,0,.665-.19.66.66,0,0,0,.233-.545Q49.2-30.429,48.262-30.429Zm3.575.985a1.759,1.759,0,0,1,1.236.45,1.468,1.468,0,0,1,.491,1.13,1.4,1.4,0,0,1-.5,1.1,1.836,1.836,0,0,1-1.256.436,1.76,1.76,0,0,1-1.224-.443,1.431,1.431,0,0,1-.492-1.106,1.435,1.435,0,0,1,.5-1.116,1.794,1.794,0,0,1,1.246-.447ZM51.8-28.9a1.056,1.056,0,0,0-.761.285.966.966,0,0,0-.3.727.921.921,0,0,0,.3.715,1.117,1.117,0,0,0,.782.278,1.1,1.1,0,0,0,.776-.281.934.934,0,0,0,.3-.718.931.931,0,0,0-.316-.72A1.139,1.139,0,0,0,51.8-28.9Zm6.467-.537h.691l-1.432,3.105h-.214l-.959-2.127-.95,2.127h-.215l-1.439-3.105h.691l.849,1.851.828-1.851h.48l.822,1.851Zm3.779,1.569h-2.29a.983.983,0,0,0,.313.7,1.066,1.066,0,0,0,.745.262,2.036,2.036,0,0,0,1.174-.367v.588a2.215,2.215,0,0,1-.59.264,2.606,2.606,0,0,1-.684.08,1.615,1.615,0,0,1-.871-.21,1.553,1.553,0,0,1-.531-.564,1.627,1.627,0,0,1-.2-.82,1.569,1.569,0,0,1,.421-1.136,1.451,1.451,0,0,1,1.094-.437,1.33,1.33,0,0,1,1.034.424,1.627,1.627,0,0,1,.385,1.137Zm-2.275-.36H61.41a.823.823,0,0,0-.229-.558.768.768,0,0,0-.552-.2.822.822,0,0,0-.567.2.95.95,0,0,0-.289.558Zm3.659-1.209v.692l.035-.053q.467-.707.936-.706a1.189,1.189,0,0,1,.761.345l-.34.531a.978.978,0,0,0-.623-.3.679.679,0,0,0-.54.279,1.014,1.014,0,0,0-.228.661v1.6h-.645v-3.051Zm2.954-1.582h4.13v.591H68.791v4.042h-.71v-4.042h-1.7Zm5.179,1.576a1.756,1.756,0,0,1,1.235.45,1.464,1.464,0,0,1,.492,1.13,1.4,1.4,0,0,1-.5,1.1,1.834,1.834,0,0,1-1.255.436,1.759,1.759,0,0,1-1.224-.443,1.431,1.431,0,0,1-.492-1.106,1.435,1.435,0,0,1,.5-1.116,1.8,1.8,0,0,1,1.246-.447Zm-.034.544a1.056,1.056,0,0,0-.761.285.966.966,0,0,0-.3.727.924.924,0,0,0,.3.715,1.117,1.117,0,0,0,.782.278,1.1,1.1,0,0,0,.776-.281.937.937,0,0,0,.3-.718.933.933,0,0,0-.316-.72A1.138,1.138,0,0,0,71.531-28.9Zm4.576-2.119h2.8v.591H76.818v1.413h2.021v.591H76.818v1.447h2.158v.591H76.108Zm6.2,2.417v2.216h-.645v-1.7a1.275,1.275,0,0,0-.144-.71.584.584,0,0,0-.508-.2.784.784,0,0,0-.369.088,1.592,1.592,0,0,0-.384.311v2.216h-.644v-3.051h.644v.4a1.431,1.431,0,0,1,.962-.467,1.064,1.064,0,0,1,.957.557,1.486,1.486,0,0,1,1.08-.557,1.024,1.024,0,0,1,.78.325,1.4,1.4,0,0,1,.307.992v1.8H83.7V-28.2a.9.9,0,0,0-.166-.585.585.585,0,0,0-.478-.2A1,1,0,0,0,82.309-28.6Zm2.876,3.778v-4.613h1.127a2.036,2.036,0,0,1,1.347.4,1.4,1.4,0,0,1,.482,1.131,1.5,1.5,0,0,1-.453,1.128,1.587,1.587,0,0,1-1.155.442,2.148,2.148,0,0,1-.689-.129v1.637ZM86.3-28.874h-.454V-27a1.429,1.429,0,0,0,.62.14.986.986,0,0,0,.738-.295,1.041,1.041,0,0,0,.287-.758,1.016,1.016,0,0,0-.135-.527.815.815,0,0,0-.37-.333,1.752,1.752,0,0,0-.686-.1Zm4.108-.571a1.758,1.758,0,0,1,1.235.45,1.466,1.466,0,0,1,.491,1.13,1.4,1.4,0,0,1-.5,1.1,1.84,1.84,0,0,1-1.257.436,1.758,1.758,0,0,1-1.224-.443,1.428,1.428,0,0,1-.492-1.106A1.436,1.436,0,0,1,89.16-29a1.8,1.8,0,0,1,1.246-.447Zm-.034.544a1.053,1.053,0,0,0-.761.285.964.964,0,0,0-.3.727.924.924,0,0,0,.3.715,1.119,1.119,0,0,0,.782.278,1.1,1.1,0,0,0,.776-.281.937.937,0,0,0,.3-.718.93.93,0,0,0-.316-.72A1.138,1.138,0,0,0,90.373-28.9Zm6.466-.537h.691L96.1-26.333h-.214l-.959-2.127-.95,2.127h-.214l-1.439-3.105h.69l.849,1.851.828-1.851h.481l.821,1.851Zm3.779,1.569H98.328a.985.985,0,0,0,.312.7,1.065,1.065,0,0,0,.745.262,2.039,2.039,0,0,0,1.174-.367v.588a2.242,2.242,0,0,1-.59.264,2.611,2.611,0,0,1-.685.08,1.612,1.612,0,0,1-.87-.21,1.551,1.551,0,0,1-.531-.564,1.629,1.629,0,0,1-.2-.82,1.566,1.566,0,0,1,.421-1.136,1.451,1.451,0,0,1,1.094-.437,1.33,1.33,0,0,1,1.033.424,1.625,1.625,0,0,1,.385,1.137Zm-2.275-.36H99.98a.826.826,0,0,0-.229-.558.77.77,0,0,0-.552-.2.824.824,0,0,0-.568.2A.954.954,0,0,0,98.342-28.228ZM102-29.438v.692l.035-.053q.468-.707.936-.706a1.19,1.19,0,0,1,.761.345l-.341.531a.975.975,0,0,0-.622-.3.678.678,0,0,0-.54.279,1.011,1.011,0,0,0-.229.661v1.6h-.644v-3.051H102" transform="translate(2.037 69.456)" fill="#3e4140" fill-rule="evenodd"/>
        <path id="path14" d="M38.572-21.223l-1.36,2.216c-2.528,3.916-6.684,8.207-11.17,10.2-.465.207-.812.36-1.277.537a13.691,13.691,0,0,0-1.339.522C32.614-9.508,39.418-13.358,45.1-19.792c4.714-5.34,9.556-14.009,8.877-23.81-.653-9.4-6.332-16.484-14.762-18.472C30.2-64.2,23.389-60.4,18.491-54.3a15.543,15.543,0,0,0-1.6,2.394c6.635-3.114,14.568-4.492,21.253.062C43.962-47.882,45.713-39.9,44.2-32.94a30.728,30.728,0,0,1-4.781,10.493,14.243,14.243,0,0,0-.847,1.224" transform="translate(-6.794 62.669)" fill="#e94e1a" fill-rule="evenodd"/>
        <path id="path16" d="M16.534-10.529c-.62.415-3.043-.3-3.669-.4A13.054,13.054,0,0,0,18.36-9.394a20.759,20.759,0,0,0,6.3-.76A13.692,13.692,0,0,1,26-10.676c.465-.176.811-.33,1.277-.537,4.487-1.994,8.642-6.285,11.17-10.2L39.8-23.63c.155-.442.506-1.042.724-1.515,1.8-3.9,3.128-8.317,2.723-12.655a15.326,15.326,0,0,0-2.127-6.813c-3.917-6.2-12.179-8.5-19.291-5.56a17.439,17.439,0,0,0-8.364,7.5c-.281.454-.5.981-.752,1.363a14.545,14.545,0,0,0,1.652-.777,22.184,22.184,0,0,1,5.828-1.78c5.567-.856,11.428.832,14.276,5.322a12.754,12.754,0,0,1,1.385,8.025,26.866,26.866,0,0,1-6.02,13.533A24.693,24.693,0,0,1,27.352-14.5a22.1,22.1,0,0,1-2.882,2.033c-1.916,1.109-5.777,2.48-7.936,1.934" transform="translate(-8.025 65.076)" fill="#259a3a" fill-rule="evenodd"/>
        <path id="path18" d="M13.934-14.253c.626.1,3.048.815,3.669.4a2.854,2.854,0,0,1-2.025-1.718c-1.126-2.455-.172-6.949.465-9.379.51-1.946,1.068-3.753,1.716-5.628l1.959-5.364-7.729.017A37.621,37.621,0,0,0,10.2-30.342c-1.3,5.03-2.7,13.713,3.737,16.089" transform="translate(-9.093 68.4)" fill="#1d57a6" fill-rule="evenodd"/>
        <path id="path20" d="M11.148-39.57l.569.586a5.842,5.842,0,0,1,1.425-1,5.028,5.028,0,0,1,4.165-.052,4.784,4.784,0,0,1,.8.455c.316.214.416.392.718.565l.574-.552a4.838,4.838,0,0,0-1.673-1.212,5.906,5.906,0,0,0-4.885-.008,5,5,0,0,0-1.692,1.219" transform="translate(-8.487 67.248)" fill="#1d57a6" fill-rule="evenodd"/>
        <path id="path22" d="M11.923-38.8l.582.615c.588-.3,1.83-1.634,3.926-.725a2.744,2.744,0,0,1,1.045.721l.688-.719a4.788,4.788,0,0,0-3.152-1.223A4.191,4.191,0,0,0,11.923-38.8" transform="translate(-8.258 67.501)" fill="#1d57a6" fill-rule="evenodd"/>
        <path id="path24" d="M12.783-38.03l.63.469c.069-.044.107-.075.161-.112a2.176,2.176,0,0,1,1.183-.4c.876-.018,1.06.34,1.617.6l.425-.561a2.858,2.858,0,0,0-4.017,0" transform="translate(-8.005 67.776)" fill="#1d57a6" fill-rule="evenodd"/>
        <path id="path26" d="M13.541-37.316l1.124,1.056.929-1.011a1.406,1.406,0,0,0-2.054-.046" transform="translate(-7.781 68.015)" fill="#1d57a6" fill-rule="evenodd"/>
        <path id="path28" d="M50.279-38.582c4.071-.362,2.742,3.761.949,4.676a5.8,5.8,0,0,1-2.739.312Zm-3.756,6.233c1.275.037,4.015.163,5.012-.232,2.9-1.151,3.744-5.094,2.287-6.569-.952-.964-3.263-.7-4.66-.718l-2.639,7.519" transform="translate(1.95 67.554)" fill="#3e4140" fill-rule="evenodd"/>
        <path id="path30" d="M56.092-32.221c1.018-.291,2.249.728.82.992C55.576-30.982,54.531-31.775,56.092-32.221Zm1.621-4.495c1.2-.378.754,1.409.1,1.672-.621.251-.975-.056-.845-.694A1.1,1.1,0,0,1,57.713-36.715Zm-1.554,2.3a1.325,1.325,0,0,0-1.024.66.859.859,0,0,0,.331,1.175c-1.341.471-1.759,1.34-1.151,1.916.969.918,5.285.515,4.562-1.864-.339-1.116-2.118-.665-2.428-1.23.293-.64.972.136,2.394-.744a2.341,2.341,0,0,0,.939-2.166l.763-.01.324-1.074c-1.809-.22-4.442-.247-5.091,1.584a1.835,1.835,0,0,0-.081,1.017.819.819,0,0,0,.165.363l.3.375" transform="translate(4.168 67.989)" fill="#3e4140" fill-rule="evenodd"/>
        <path id="path32" d="M82.717-33.513c-2.2.449-1.8-2.71.947-2.6A15.6,15.6,0,0,1,82.717-33.513Zm1.427-3.9c-2.012.121-3.62.392-4.214,2.591-.7,2.593,1.731,2.759,3.869,2.423l2.621-7.458-1.414-.012-.862,2.456" transform="translate(11.77 67.557)" fill="#3e4140" fill-rule="evenodd"/>
        <path id="path34" d="M67.979-36.608c-.174.649-.447,1.307-.665,1.959-.164.489-.181.515-.633.7-1.634.671-1.253-1.084-.611-1.867A1.919,1.919,0,0,1,67.979-36.608ZM66.7-33.155a.261.261,0,0,1,.03.13c0,.051-.018.154-.02.261l1.329,0,1.772-4.943a6.429,6.429,0,0,0-3.319.135c-3.33,1.187-3.262,6.531.206,4.421" transform="translate(7.119 67.989)" fill="#3e4140" fill-rule="evenodd"/>
        <path id="path36" d="M90.249-36.607c-.139.619-.457,1.342-.663,1.965a1.139,1.139,0,0,1-1.622.706C87.481-34.437,88.079-36.741,90.249-36.607Zm-1.282,3.456.017.39,1.318,0,1.772-4.916a4.66,4.66,0,0,0-5.2,1.617c-1.181,1.911-.409,4.5,2.091,2.912" transform="translate(13.696 67.985)" fill="#3e4140" fill-rule="evenodd"/>
        <path id="path38" d="M74.97-32.778l1.4.007.907-2.523c.04-.106.069-.2.094-.271.133-.419.093-.439.557-.755,1.247-.849,1.434-.326,1.153.54L78.1-32.763l1.32,0,1.162-3.2a2.247,2.247,0,0,0,.08-.294c.16-.7.08-1.441-.644-1.575a3.06,3.06,0,0,0-2.029.563l.138-.485-1.386-.023-1.769,5" transform="translate(10.343 67.987)" fill="#3e4140" fill-rule="evenodd"/>
        <path id="path40" d="M62.642-37.618l-.963.011-.428,1.095.933.008c-.158.8-2.715,5.1,1.573,3.695l.265-1.287a3.561,3.561,0,0,1-.819.246c-.941-.073.224-2.154.4-2.632l1.085-.02.381-1.1-1.006-.005.385-1.033-1.427-.026-.382,1.047" transform="translate(6.295 67.816)" fill="#3e4140" fill-rule="evenodd"/>
        <path id="path42" d="M72.642-32.363l1.487.025,2.687-7.525-1.518,0-2.656,7.5" transform="translate(9.656 67.559)" fill="#3e4140" fill-rule="evenodd"/>
        <path id="path44" d="M68.175-32.362l1.391.024,2.672-7.529H70.823l-2.647,7.5" transform="translate(8.338 67.559)" fill="#3e4140" fill-rule="evenodd"/>
        <path id="path46" d="M52.533-32.374h1.419l1.7-5.069H54.236Zm3.11-7.143a.568.568,0,0,1,.521.774,1.009,1.009,0,0,1-.9.775.569.569,0,0,1-.521-.775,1.008,1.008,0,0,1,.9-.774" transform="translate(3.723 67.634)" fill="#3e4140" fill-rule="evenodd"/>
        <path id="path48" d="M58.569-32.374h1.418l1.7-5.069H60.271Zm3.109-7.143a.567.567,0,0,1,.52.774,1.007,1.007,0,0,1-.895.775.568.568,0,0,1-.521-.775,1.009,1.009,0,0,1,.9-.774" transform="translate(5.504 67.634)" fill="#3e4140" fill-rule="evenodd"/>
        <path id="path50" d="M83.81-32.374h1.419l1.7-5.069H85.513Zm3.109-7.143a.568.568,0,0,1,.521.774,1.009,1.009,0,0,1-.9.775.568.568,0,0,1-.52-.775,1.007,1.007,0,0,1,.9-.774" transform="translate(12.951 67.634)" fill="#3e4140" fill-rule="evenodd"/>
        <path id="path52" d="M99.679-33.024H58.531v.5H99.679v-.5" transform="translate(5.493 69.026)" fill="#3e4140" fill-rule="evenodd"/>
        <path id="path54" d="M54.708-33.024h-8.4v.5h8.4v-.5" transform="translate(1.887 69.026)" fill="#3e4140" fill-rule="evenodd"/>
      </g>
    </g>
  </g>
</svg>
