<svg xmlns="http://www.w3.org/2000/svg" width="170" height="90" viewBox="0 0 170 90">
  <g id="ind.gov.in-normal" transform="translate(20477 24564)">
    <rect id="Rectangle_22003" data-name="Rectangle 22003" width="170" height="90" transform="translate(-20477 -24564)" fill="none"/>
    <g id="Indiagovin" transform="translate(-20436 -24547)">
      <g id="_704d93ff" data-name="#704d93ff" transform="translate(8.382)">
        <path id="path3" d="M148.023,40.552a2.56,2.56,0,0,1,2.066-.039c.422.428,1.011.688,1.324,1.219a2.949,2.949,0,0,1,.326,2.1,2.6,2.6,0,0,1-1.929,1.81,2.874,2.874,0,0,1-3.292-2.322,4.819,4.819,0,0,1,.016-1.071A3.635,3.635,0,0,1,148.023,40.552Z" transform="translate(-146.495 -40.314)" fill="#704d93"/>
        <path id="path5" d="M682.41,112.756a11.95,11.95,0,0,1,4.34.494c.481.4,1.107.56,1.605.934a4.666,4.666,0,0,1,2.1,3.089,17.968,17.968,0,0,1,.318,2.286c0,2.34-.032,4.68-.006,7.02a6.127,6.127,0,0,0,.142,1.2c.013.069.04.208.053.277.887-.032,1.774-.108,2.663-.08a40.864,40.864,0,0,1,.064,4.1c-2.243.041-4.486.071-6.726.163-.618.061-.423-1.025-1.053-.951a2.18,2.18,0,0,0-1.643.77,8.679,8.679,0,0,1-1.872.245,12.719,12.719,0,0,1-2.7-.123,5.338,5.338,0,0,1-2.561-1.281,6.326,6.326,0,0,1-1.585-1.688,6.564,6.564,0,0,1-.739-2.191l-.01-.114c-.008-.148-.021-.246-.022-.383s0,0-.009-.283a5.141,5.141,0,0,1,.13-.946,6.411,6.411,0,0,1,3.825-4.737,10.741,10.741,0,0,1,3.078-.634c1.528-.128,3.033.295,4.558.247a11.268,11.268,0,0,0-.164-2.362c-.046-.213-.062-.474-.287-.579a4.9,4.9,0,0,0-2.919-.636c-1.6.06-3.04.8-4.6,1.063a12.877,12.877,0,0,1-.426-1.284c-.152-.458-.289-.857-.443-1.3a3.806,3.806,0,0,1-.291-.776,13.758,13.758,0,0,1,2.086-.749,10.17,10.17,0,0,1,3.092-.79M681.6,123.92a3.542,3.542,0,0,0-1.875,1.365,1.571,1.571,0,0,0-.27,1.638,2.9,2.9,0,0,0,1.6,1.364,6.309,6.309,0,0,0,4.091-.945A2.162,2.162,0,0,0,686.4,125.4c.039-.5-.489-.718-.84-.941A6.022,6.022,0,0,0,681.6,123.92Z" transform="translate(-613.59 -104.267)" fill="#704d93"/>
      </g>
      <g id="_2d2f37ff" data-name="#2d2f37ff" transform="translate(0 0.2)">
        <path id="path8" d="M149.2,42.02a2.884,2.884,0,0,1,1.754,1.617,2.794,2.794,0,0,1-.226,2.531,2.971,2.971,0,0,1-3.168,1.1,2.838,2.838,0,0,1-1.914-3.515,4.817,4.817,0,0,0-.016,1.071,2.874,2.874,0,0,0,3.292,2.322,2.6,2.6,0,0,0,1.929-1.81,2.949,2.949,0,0,0-.326-2.1c-.314-.531-.9-.791-1.324-1.219Z" transform="translate(-137.221 -42.02)" fill="#704d93"/>
        <path id="path10" d="M777.18,117.09a6.029,6.029,0,0,1,3.393,2.546,7.147,7.147,0,0,1,.73,3.518c.042,2.823-.087,5.646.041,8.468a6.132,6.132,0,0,1-.141-1.2c-.026-2.34.008-4.68.006-7.02a17.968,17.968,0,0,0-.318-2.286,4.666,4.666,0,0,0-2.1-3.089C778.287,117.65,777.661,117.491,777.18,117.09Z" transform="translate(-695.638 -108.391)" fill="#704d93"/>
        <path id="path14" d="M142.762,295.794a12.342,12.342,0,0,1,4.4.377c.7.218,1.264.827,2.037.823.707.112.7-1.014,1.385-1,1.818-.166,3.648-.1,5.47-.215-.3.618-1.01.825-1.482,1.279a5.774,5.774,0,0,0-1.769,2.689,2.137,2.137,0,0,0-.081.7c.136,2.265.11,4.535.109,6.8a59.1,59.1,0,0,1-.207,6.192,15.459,15.459,0,0,1-.949,4.69,5.959,5.959,0,0,1-2.611,2.662,9.5,9.5,0,0,1-6.657.958,7.908,7.908,0,0,1-4.52-2.519,7.437,7.437,0,0,1-1.257-2.12,14.723,14.723,0,0,0,4.492,1.117,10.7,10.7,0,0,0,3.891-.549,5.081,5.081,0,0,0,2.458-1.531,7.5,7.5,0,0,0,1.457-4.414c-.7.284-1.341.688-2.056.93a8.659,8.659,0,0,1-2.47.556,8.483,8.483,0,0,1-3.254-.51,7.8,7.8,0,0,1-2.758-1.567,8.323,8.323,0,0,1-2.633-5.061,24.519,24.519,0,0,1,0-2.947,8.838,8.838,0,0,1,3.122-5.753,7.139,7.139,0,0,1,3.889-1.6m.4,3.568a3.949,3.949,0,0,0-1.7.854,6.031,6.031,0,0,0-1.927,3.633,4.825,4.825,0,0,0,.263,2.29,4.594,4.594,0,0,0,1.624,2.444,5.965,5.965,0,0,0,2.052.956,3.2,3.2,0,0,0,1.843-.2,5.453,5.453,0,0,0,3.462-3.675,6.307,6.307,0,0,0-.5-3.577,4.961,4.961,0,0,0-2.539-2.492A3.911,3.911,0,0,0,143.164,299.362Z" transform="translate(-128.588 -266.469)" fill="#2d2f37"/>
        <path id="path16" d="M677.215,294.751a5.514,5.514,0,0,1,1.489-.322,9.206,9.206,0,0,1,2.339-.069,4.81,4.81,0,0,1,2.411.674,5.286,5.286,0,0,1,2.253,3.21,36.411,36.411,0,0,1,.035,3.764c-.012,1.713-.053,3.427-.026,5.141a3.782,3.782,0,0,0,.185,1.514c.552,1.324,1.7,2.255,2.5,3.413-1.438-.023-2.876-.009-4.314-.015a1.031,1.031,0,0,1-.787-.26c-.339-.364-.594-.8-.932-1.161a2.7,2.7,0,0,1-.613-.814,4.2,4.2,0,0,1-.122-1.389q0-3.4,0-6.789a17.9,17.9,0,0,0-.133-2.822c-.043-.208-.111-.48-.339-.55a5.45,5.45,0,0,0-3.3.534A6.508,6.508,0,0,0,675.889,300c-.255.247-.218.627-.243.951-.046,1.482-.022,2.966-.02,4.448a25.615,25.615,0,0,0,.1,2.938,5.188,5.188,0,0,0,1.885,3.065,8.17,8.17,0,0,1,.872.786c-.934.015-1.863-.1-2.8-.112a6.613,6.613,0,0,1-2.7-.331A2.752,2.752,0,0,1,671.7,309.5c-.085-2.932.016-5.865-.009-8.8a8.313,8.313,0,0,0-.3-3.074,4.655,4.655,0,0,0-1.681-1.943c-.372-.277-.859-.5-.972-.995,1.883-.11,3.779.064,5.66-.133a3.586,3.586,0,0,1,1.134.084c.209.207.115.536.164.8.213,0,.45.083.651-.026A5.136,5.136,0,0,1,677.215,294.751Z" transform="translate(-599.885 -265.105)" fill="#2d2f37"/>
        <path id="path18" d="M303.267,295.8a23,23,0,0,1,3.923-.063,6.469,6.469,0,0,1,3.42,1.475,9.655,9.655,0,0,1,3.349,6.107,10.1,10.1,0,0,1-1.088,5.463,9.166,9.166,0,0,1-3.948,3.785,7.828,7.828,0,0,1-4.669.708,8.173,8.173,0,0,1-5.815-3.682,11.134,11.134,0,0,1-1.7-5.218,9.687,9.687,0,0,1,.759-3.352,8.506,8.506,0,0,1,3.323-4.283,6.3,6.3,0,0,1,2.445-.939m1.245,3.464a4.857,4.857,0,0,0-3.256,2.931,6.873,6.873,0,0,0,.219,5.081,4.486,4.486,0,0,0,2.762,2.164,4.734,4.734,0,0,0,3.6-.682,4.507,4.507,0,0,0,1.989-3.088,6.7,6.7,0,0,0-.618-4.261,4.828,4.828,0,0,0-2.133-1.835,5.1,5.1,0,0,0-2.559-.311Z" transform="translate(-271.007 -266.313)" fill="#2d2f37"/>
        <path id="path20" d="M432.12,296.294c2.485.056,4.971-.14,7.455-.073a.908.908,0,0,1-.508.628,4.909,4.909,0,0,0-1.842,1.172.634.634,0,0,0-.2.5,9.717,9.717,0,0,0,.564,1.9,64.962,64.962,0,0,0,2.525,6.283,7.249,7.249,0,0,0,.775-1.846c.44-1.251.906-2.491,1.322-3.75a19.267,19.267,0,0,1,1.594-3.873,1.6,1.6,0,0,1,1.112-.859c1.182-.144,2.375-.033,3.561-.07a4.111,4.111,0,0,1,1.537.13c.387-.02.769-.115,1.158-.119,2.09,0,4.18-.023,6.27.021.091,2.482.026,4.965.034,7.449-.006,1.719,0,3.439-.012,5.157a17.447,17.447,0,0,0,.157,2.785c.486.363,1.066.567,1.565.91.431.3.95.553,1.121,1.092-1.8.006-3.592.008-5.388-.016a1.948,1.948,0,0,1-1.144-.239,2.45,2.45,0,0,1-.487-1.532c-.074-3.577-.03-7.154-.012-10.732a5.2,5.2,0,0,0-.6-2.923,4.282,4.282,0,0,0-2.773-1.778,2.232,2.232,0,0,0-1.06.6,14.462,14.462,0,0,0-1.175,1.176,19.2,19.2,0,0,0-2.29,5.1c-.848,2.4-1.761,4.782-2.613,7.183-.328,1-.771,1.954-1.09,2.955a4.372,4.372,0,0,1-1.957-.014,1.55,1.55,0,0,1-1.138-.4,6.554,6.554,0,0,1-.81-1.513c-.792-1.851-1.5-3.737-2.255-5.6-1.007-2.477-1.9-5.005-3.152-7.374-.319-.707-.785-1.345-1.034-2.083C431.41,296.184,431.861,296.328,432.12,296.294Z" transform="translate(-390.059 -266.775)" fill="#2d2f37"/>
        <path id="path22" d="M76.982,397.671a3.723,3.723,0,0,1,2.635.384,4.333,4.333,0,0,1,.891,2.168,3.217,3.217,0,0,1-.77,1.82,1.906,1.906,0,0,1-.875.669,2.549,2.549,0,0,1-1.513.305,3.5,3.5,0,0,1-2.424-2.136,3.1,3.1,0,0,1,.672-2.476A2.042,2.042,0,0,1,76.982,397.671Z" transform="translate(-74.852 -356.334)" fill="#2d2f37"/>
        <path id="path24" d="M552.236,401.03a2.313,2.313,0,0,1,2.17.656,3.613,3.613,0,0,1,1.114,2.325,3,3,0,0,1-1.034,1.928,3.4,3.4,0,0,1-2.415.531,2.269,2.269,0,0,1-1.768-1.392,2.617,2.617,0,0,1-.2-2.115,2.735,2.735,0,0,1,2.136-1.933Z" transform="translate(-494.799 -359.307)" fill="#2d2f37"/>
      </g>
      <g id="_2b5b9fff" data-name="#2b5b9fff" transform="translate(37.434 0.92)">
        <path id="path27" d="M415.185,49.818a5.716,5.716,0,0,1,3.24-1.625c1.339-.092,2.675.2,4.017.09a.81.81,0,0,1-.419.53,11.513,11.513,0,0,0-3.158,2.356,4.047,4.047,0,0,0-.978,1.81,19.014,19.014,0,0,0-.5,5.238c-.021,3.042.068,6.083.053,9.125.015,1.248-.025,2.5.061,3.747,1.055-.022,2.1-.238,3.152-.247a33.789,33.789,0,0,1-.123,4.314,14.353,14.353,0,0,1-2.219.1c-1.482.014-2.965-.054-4.446,0a1.275,1.275,0,0,1-.656-.1c-.153-.491-.133-1.019-.274-1.514a4.976,4.976,0,0,0-1.794,1.163,5.019,5.019,0,0,1-1.754.7,7.385,7.385,0,0,1-2.206.121,20.531,20.531,0,0,1-2.147-.388,10.608,10.608,0,0,1-3.393-1.737,10.072,10.072,0,0,1-3-3.809,9.694,9.694,0,0,1-.69-3.991,9.871,9.871,0,0,1,.576-3.98,9.561,9.561,0,0,1,3.881-4.427,10.816,10.816,0,0,1,4.426-1.375,12.117,12.117,0,0,1,4.11.72c.761.25,1.434.708,2.2.932.015-.72.013-1.438.011-2.157a8.441,8.441,0,0,1,2.021-5.591m-8.43,10.3a5.4,5.4,0,0,0-2.429.978,4.95,4.95,0,0,0-1.5,2.267,6.848,6.848,0,0,0,.131,4.923,5.643,5.643,0,0,0,2.327,2.48,3.942,3.942,0,0,0,2.435.709,6.9,6.9,0,0,0,3.047-1.287,6.794,6.794,0,0,0,2.1-3.007,5.6,5.6,0,0,0,.023-2.978,5.027,5.027,0,0,0-1.967-2.92A5.43,5.43,0,0,0,406.755,60.116Z" transform="translate(-397.951 -48.174)" fill="#2b5b9f"/>
      </g>
      <g id="_24a039ff" data-name="#24a039ff" transform="translate(16.18 8.331)">
        <path id="path30" d="M225.637,112.424a8.629,8.629,0,0,1,4.063.269,5.4,5.4,0,0,1,3.2,3.209,8.239,8.239,0,0,1,.349,2.8c.023,3.022-.063,6.046.061,9.066a7.009,7.009,0,0,0,1.537-.207,3.461,3.461,0,0,1,1.053-.1c.216,1.4,0,2.818.1,4.226-2.444,0-4.889-.007-7.33.133-.178-4.571.076-9.149-.147-13.718a4.585,4.585,0,0,0-.234-1.487,3,3,0,0,0-1.255-.062,8.17,8.17,0,0,0-2.994.818,5.443,5.443,0,0,0-1.7,1.118,21.746,21.746,0,0,0-.221,4.3c.032,1.667-.08,3.342.094,5,.907-.087,1.77-.436,2.686-.443.085,1.451-.039,2.905.014,4.358a11.951,11.951,0,0,1-1.625.076c-1.936,0-3.875.034-5.81-.036-.023-3.024.015-6.05.048-9.076.021-1.943-.057-3.888,0-5.83-.962.021-1.921.087-2.883.106-.089-1.328-.143-2.657-.2-3.986,2.362-.021,4.727.049,7.088-.04.5-.11.621.5.9.786A9.075,9.075,0,0,1,225.637,112.424Z" transform="translate(-214.44 -112.299)" fill="#24a039"/>
      </g>
      <g id="_cd328aff" data-name="#cd328aff" transform="translate(6.76 8.974)">
        <path id="path33" d="M132.639,117.857c2.541.012,5.133-.052,7.673.014.055.475.013.949.027,1.436.006.222-.018.443,0,.659.106,3.274,0,6.55.111,9.822.027.95.011,1.9.053,2.85a13.829,13.829,0,0,1,2.574-.294,17.232,17.232,0,0,1,0,4.28c-2.414-.008-4.83.1-7.243.037-.035-4.953-.029-9.906-.1-14.858-.98-.007-2.055.014-3.042-.053-.09-.632.038-1.366-.006-2.017C132.669,119.107,132.61,118.483,132.639,117.857Z" transform="translate(-132.631 -117.84)" fill="#cd328a"/>
      </g>
      <g id="_0a957aff" data-name="#0a957aff" transform="translate(59.659 8.929)">
        <path id="path36" d="M588.85,117.45c2.473.012,4.946.087,7.419.06.061,2.693.016,5.388.049,8.081,0,2.237.04,4.475,0,6.713a7.378,7.378,0,0,1,1.918-.3c.176-.029.225.179.27.3a11.692,11.692,0,0,1,.261,3.88c-2.257.109-4.521.026-6.78.048-.1-4.949.044-9.9-.041-14.851-1.01.05-2.018.126-3.024.22C588.952,120.222,588.946,118.833,588.85,117.45Z" transform="translate(-588.85 -117.45)" fill="#0a957a"/>
      </g>
      <g id="_fcb408ff" data-name="#fcb408ff" transform="translate(44.6 15.645)">
        <path id="path39" d="M460.754,175.154a2.921,2.921,0,0,1,2.523.722,2.058,2.058,0,0,1,.718,1.412,2.9,2.9,0,0,1-1.586,2.9A2.625,2.625,0,0,1,458.93,178a3.779,3.779,0,0,1,.658-1.915A2.007,2.007,0,0,1,460.754,175.154Z" transform="translate(-458.93 -175.086)" fill="#fcb408"/>
      </g>
    </g>
  </g>
</svg>
