<svg width="115" height="55" viewBox="0 0 115 55" fill="none" xmlns="http://www.w3.org/2000/svg">
<path d="M5.025 12.25H4.9L2.425 9.2125C2.11667 8.8375 1.89583 8.53333 1.7625 8.3C1.6375 8.05833 1.575 7.86667 1.575 7.725C1.575 7.45833 1.7875 7.325 2.2125 7.325C2.3375 7.325 2.50833 7.33333 2.725 7.35C2.94167 7.36667 3.125 7.38333 3.275 7.4C3.31667 7.19167 3.34167 6.95417 3.35 6.6875C3.36667 6.4125 3.375 6.175 3.375 5.975C3.375 5.8 3.37083 5.65 3.3625 5.525C3.3625 5.4 3.35833 5.2875 3.35 5.1875H1.075L0.65 4.375V4.25H5.85L6.275 5.0625V5.1875H4.3875C4.39583 5.34583 4.40417 5.52083 4.4125 5.7125C4.42083 5.90417 4.425 6.0375 4.425 6.1125C4.425 6.79583 4.375 7.3375 4.275 7.7375C4.175 8.1375 4.02083 8.4375 3.8125 8.6375C3.6125 8.8375 3.3625 8.97083 3.0625 9.0375L5.6625 11.725L5.025 12.25ZM9.60693 5.1875H8.14443L8.16943 12.1875H8.04443L7.04443 11.5375L7.09443 5.1875H5.99443L5.56943 4.375V4.25H9.18193L9.60693 5.0625V5.1875ZM16.7895 5.1875H15.3145C15.3228 5.5125 15.327 5.85417 15.327 6.2125C15.327 6.57083 15.327 7.02083 15.327 7.5625C15.327 8.02083 15.2436 8.3875 15.077 8.6625C14.9186 8.9375 14.6811 9.15833 14.3645 9.325C14.0478 9.48333 13.652 9.62917 13.177 9.7625C12.7853 9.87083 12.4436 9.97917 12.152 10.0875C11.8686 10.1875 11.6478 10.325 11.4895 10.5C11.3395 10.675 11.2645 10.9167 11.2645 11.225C11.2645 11.6 11.3978 11.8958 11.6645 12.1125C11.9395 12.3292 12.3436 12.4375 12.877 12.4375C13.3686 12.4375 13.7853 12.3458 14.127 12.1625C14.477 11.9875 14.8061 11.7583 15.1145 11.475L15.877 12.25C15.552 12.6 15.1895 12.8708 14.7895 13.0625C14.3978 13.2625 13.9686 13.3625 13.502 13.3625C13.1186 13.3625 12.7395 13.2917 12.3645 13.15C11.9895 13.0167 11.6478 12.825 11.3395 12.575C11.0311 12.3333 10.7853 12.0542 10.602 11.7375C10.4186 11.4125 10.327 11.0625 10.327 10.6875C10.327 10.3625 10.3853 10.1083 10.502 9.925C10.627 9.73333 10.7895 9.58333 10.9895 9.475C11.1895 9.35833 11.3978 9.25833 11.6145 9.175C11.2728 8.94167 11.0145 8.70417 10.8395 8.4625C10.6645 8.22083 10.5478 7.96667 10.4895 7.7C10.4395 7.43333 10.4145 7.15417 10.4145 6.8625C10.4145 6.5625 10.4145 6.29583 10.4145 6.0625C10.4228 5.82917 10.427 5.5375 10.427 5.1875H9.32695L8.90195 4.375V4.25H16.3645L16.7895 5.0625V5.1875ZM14.2895 5.1875H11.4895L14.2395 7.9C14.2645 7.775 14.277 7.62083 14.277 7.4375L14.2895 5.1875ZM13.202 8.7C13.3686 8.63333 13.5103 8.575 13.627 8.525C13.752 8.46667 13.8561 8.40833 13.9395 8.35L11.4895 5.95L11.5145 7.75C11.5228 8.175 11.6145 8.46667 11.7895 8.625C11.9728 8.78333 12.1936 8.8625 12.452 8.8625C12.5686 8.8625 12.6853 8.85 12.802 8.825C12.927 8.79167 13.0603 8.75 13.202 8.7ZM11.9184 15.4L11.2809 14.7125L13.1809 13.2125C13.2975 13.1208 13.4059 13.075 13.5059 13.075C13.5809 13.075 13.6559 13.0958 13.7309 13.1375C13.7975 13.1875 13.8725 13.2458 13.9559 13.3125C14.1892 13.5042 14.4559 13.7292 14.7559 13.9875C15.0475 14.2458 15.335 14.4958 15.6184 14.7375C15.8934 14.9792 16.1225 15.1833 16.3059 15.35L15.9184 15.7875H15.8309C15.6975 15.6458 15.535 15.475 15.3434 15.275C15.1434 15.0833 14.935 14.8875 14.7184 14.6875C14.5017 14.4875 14.2975 14.3042 14.1059 14.1375C13.9642 14.0208 13.8517 13.9625 13.7684 13.9625C13.735 13.9625 13.6975 13.9667 13.6559 13.975C13.6142 13.9917 13.56 14.0292 13.4934 14.0875L11.9184 15.4ZM18.6919 12.1875H18.5669L17.5669 11.5375L17.6169 5.1875H16.5169L16.0919 4.375V4.25H17.7044C17.6461 3.69167 17.5211 3.24583 17.3294 2.9125C17.1377 2.57917 16.9044 2.3375 16.6294 2.1875C16.3627 2.0375 16.0836 1.9625 15.7919 1.9625C15.4086 1.9625 15.1127 2.06667 14.9044 2.275C14.6961 2.475 14.5919 2.73333 14.5919 3.05C14.5919 3.26667 14.6502 3.50417 14.7669 3.7625L14.3919 3.975C14.1836 3.75833 14.0294 3.52917 13.9294 3.2875C13.8211 3.0375 13.7669 2.79167 13.7669 2.55C13.7669 2.13333 13.9127 1.77083 14.2044 1.4625C14.4961 1.15417 14.9127 0.999999 15.4544 0.999999C15.9294 0.999999 16.3711 1.13333 16.7794 1.4C17.1961 1.65833 17.5544 2.03333 17.8544 2.525C18.1627 3.00833 18.3877 3.58333 18.5294 4.25H19.7044L20.1294 5.0625V5.1875H18.6669L18.6919 12.1875ZM23.3869 10.3C22.8952 10.3 22.4286 10.1708 21.9869 9.9125C21.5536 9.64583 21.1827 9.29167 20.8744 8.85C20.5744 8.40833 20.3744 7.9125 20.2744 7.3625C20.9244 7.20417 21.3994 7.03333 21.6994 6.85C22.0077 6.65833 22.1619 6.42083 22.1619 6.1375C22.1619 6.02917 22.1327 5.89167 22.0744 5.725C22.0244 5.55833 21.9327 5.37917 21.7994 5.1875H19.8494L19.4244 4.375V4.25H26.9744L27.3994 5.0625V5.1875H25.9369L25.9619 12.125H25.8369L24.8369 11.475L24.8494 9.85C24.5994 10.0167 24.3494 10.1333 24.0994 10.2C23.8494 10.2667 23.6119 10.3 23.3869 10.3ZM24.8869 5.1875H22.4869C22.8702 5.77083 23.0619 6.26667 23.0619 6.675C23.0619 6.99167 22.9286 7.27083 22.6619 7.5125C22.4036 7.75417 21.9702 7.95833 21.3619 8.125C21.3702 8.375 21.4411 8.60833 21.5744 8.825C21.7161 9.03333 21.8994 9.2 22.1244 9.325C22.3577 9.45 22.6161 9.5125 22.8994 9.5125C23.1827 9.5125 23.4869 9.44167 23.8119 9.3C24.1369 9.15833 24.4869 8.93333 24.8619 8.625L24.8869 5.1875ZM34.1594 11.1125C33.6177 11.1125 33.1427 10.9792 32.7344 10.7125C32.3344 10.4375 31.976 10.075 31.6594 9.625C31.3427 9.16667 31.0385 8.6625 30.7469 8.1125L31.2219 7.8375C31.4385 8.22917 31.6594 8.60833 31.8844 8.975C32.1177 9.33333 32.3844 9.62917 32.6844 9.8625C32.9844 10.0875 33.351 10.2 33.7844 10.2C34.0594 10.2 34.3177 10.1417 34.5594 10.025C34.8094 9.9 35.0135 9.72917 35.1719 9.5125C35.3302 9.29583 35.4094 9.04167 35.4094 8.75C35.4094 8.44167 35.3052 8.20833 35.0969 8.05C34.8969 7.89167 34.6594 7.8125 34.3844 7.8125C34.151 7.8125 33.9094 7.8625 33.6594 7.9625C33.4094 8.05417 33.1885 8.14583 32.9969 8.2375L32.4594 7.325C32.6844 7.2 32.9302 7.0875 33.1969 6.9875C33.4719 6.8875 33.751 6.8375 34.0344 6.8375H34.1469C34.3719 6.69583 34.5427 6.52917 34.6594 6.3375C34.776 6.1375 34.8344 5.9375 34.8344 5.7375C34.8344 5.52083 34.7677 5.34167 34.6344 5.2C34.501 5.05833 34.2885 4.9875 33.9969 4.9875C33.7635 4.9875 33.4635 5.04583 33.0969 5.1625C32.7302 5.27083 32.376 5.43333 32.0344 5.65L31.4844 4.7125C31.851 4.49583 32.2177 4.3375 32.5844 4.2375C32.9594 4.1375 33.2802 4.0875 33.5469 4.0875C33.9302 4.0875 34.2552 4.17083 34.5219 4.3375C34.7885 4.49583 35.0052 4.7 35.1719 4.95C35.3385 5.2 35.4594 5.45833 35.5344 5.725C35.6177 5.98333 35.6594 6.2125 35.6594 6.4125C35.6594 6.54583 35.6385 6.6875 35.5969 6.8375C35.5552 6.9875 35.4552 7.15 35.2969 7.325C35.3469 7.36667 35.401 7.425 35.4594 7.5C35.601 7.65833 35.7635 7.8 35.9469 7.925C36.1385 8.05 36.4177 8.1125 36.7844 8.1125C37.2427 8.1125 37.6302 7.975 37.9469 7.7L37.9719 5.1875H36.6344L36.2094 4.375V4.25H43.3094L43.7344 5.0625V5.1875H42.2719L42.2969 12.1875H42.1719L41.1719 11.5375L41.2219 5.1875H39.0219L39.0469 12.125H38.9219L37.9219 11.475L37.9344 8.9625C37.8677 8.9875 37.7969 9.00417 37.7219 9.0125C37.6469 9.02083 37.5677 9.025 37.4844 9.025C37.251 9.025 37.0177 8.98333 36.7844 8.9C36.5594 8.81667 36.3635 8.72083 36.1969 8.6125L36.1469 8.6375C36.1969 8.75417 36.2302 8.875 36.2469 9C36.2719 9.11667 36.2844 9.22917 36.2844 9.3375C36.2844 9.67917 36.1885 9.98333 35.9969 10.25C35.8135 10.5167 35.5635 10.7292 35.2469 10.8875C34.9302 11.0375 34.5677 11.1125 34.1594 11.1125ZM46.9953 10.3C46.5036 10.3 46.037 10.1708 45.5953 9.9125C45.162 9.64583 44.7911 9.29167 44.4828 8.85C44.1828 8.40833 43.9828 7.9125 43.8828 7.3625C44.5328 7.20417 45.0078 7.03333 45.3078 6.85C45.6161 6.65833 45.7703 6.42083 45.7703 6.1375C45.7703 6.02917 45.7411 5.89167 45.6828 5.725C45.6328 5.55833 45.5411 5.37917 45.4078 5.1875H43.4578L43.0328 4.375V4.25H50.5828L51.0078 5.0625V5.1875H49.5453L49.5703 12.125H49.4453L48.4453 11.475L48.4578 9.85C48.2078 10.0167 47.9578 10.1333 47.7078 10.2C47.4578 10.2667 47.2203 10.3 46.9953 10.3ZM48.4953 5.1875H46.0953C46.4786 5.77083 46.6703 6.26667 46.6703 6.675C46.6703 6.99167 46.537 7.27083 46.2703 7.5125C46.012 7.75417 45.5786 7.95833 44.9703 8.125C44.9786 8.375 45.0495 8.60833 45.1828 8.825C45.3245 9.03333 45.5078 9.2 45.7328 9.325C45.9661 9.45 46.2245 9.5125 46.5078 9.5125C46.7911 9.5125 47.0953 9.44167 47.4203 9.3C47.7453 9.15833 48.0953 8.93333 48.4703 8.625L48.4953 5.1875ZM48.1332 13.7375L47.4582 12.9625C47.6582 12.7792 47.8665 12.6333 48.0832 12.525C48.2999 12.4167 48.5457 12.3625 48.8207 12.3625C49.1624 12.3625 49.4749 12.4458 49.7582 12.6125C50.0415 12.7792 50.2665 12.9958 50.4332 13.2625C50.5999 13.5292 50.6832 13.8125 50.6832 14.1125C50.6832 14.5292 50.529 14.8625 50.2207 15.1125C49.904 15.3625 49.529 15.4875 49.0957 15.4875C48.704 15.4875 48.3082 15.3958 47.9082 15.2125C47.5082 15.0292 47.129 14.8 46.7707 14.525C46.404 14.25 46.079 13.9708 45.7957 13.6875C45.504 13.4125 45.279 13.1833 45.1207 13L45.5582 12.4625H45.6457C46.0707 12.9958 46.454 13.4208 46.7957 13.7375C47.129 14.0542 47.4457 14.2833 47.7457 14.425C48.0457 14.5667 48.3499 14.6375 48.6582 14.6375C49.0582 14.6375 49.3707 14.5458 49.5957 14.3625C49.8124 14.1875 49.9207 13.975 49.9207 13.725C49.9207 13.5167 49.8582 13.3667 49.7332 13.275C49.5999 13.1833 49.4457 13.1375 49.2707 13.1375C49.029 13.1375 48.8165 13.2083 48.6332 13.35C48.4415 13.4917 48.2749 13.6208 48.1332 13.7375ZM52.9082 12.1875H52.7832L51.7832 11.5375L51.8332 5.1875H50.7332L50.3082 4.375V4.25H51.8957C51.7457 4.01667 51.6374 3.7875 51.5707 3.5625C51.504 3.32917 51.4707 3.10417 51.4707 2.8875C51.4707 2.55417 51.554 2.24583 51.7207 1.9625C51.8957 1.67917 52.1624 1.45 52.5207 1.275C52.879 1.09167 53.329 0.999999 53.8707 0.999999C54.3624 0.999999 54.8624 1.0875 55.3707 1.2625C55.879 1.42917 56.4207 1.70417 56.9957 2.0875C57.5707 2.47083 58.1957 2.975 58.8707 3.6L58.5332 3.9875C58.0915 3.6125 57.6374 3.275 57.1707 2.975C56.704 2.66667 56.2249 2.42083 55.7332 2.2375C55.2499 2.05417 54.7582 1.9625 54.2582 1.9625C53.8165 1.9625 53.454 2.0375 53.1707 2.1875C52.8957 2.32917 52.6957 2.5125 52.5707 2.7375C52.4457 2.9625 52.3832 3.20417 52.3832 3.4625C52.3832 3.60417 52.3999 3.7375 52.4332 3.8625C52.4749 3.9875 52.529 4.11667 52.5957 4.25H53.9207L54.3457 5.0625V5.1875H52.8832L52.9082 12.1875ZM57.1282 10.3375C56.6949 10.3375 56.3157 10.2625 55.9907 10.1125C55.6657 9.9625 55.3907 9.76667 55.1657 9.525C54.9491 9.28333 54.7824 9.025 54.6657 8.75C54.5574 8.475 54.5032 8.21667 54.5032 7.975C54.5032 7.625 54.6074 7.3125 54.8157 7.0375C55.0324 6.7625 55.3157 6.55 55.6657 6.4C56.0157 6.24167 56.3949 6.1625 56.8032 6.1625C57.3032 6.1625 57.7616 6.27917 58.1782 6.5125C58.5949 6.74583 58.9574 7.04167 59.2657 7.4L59.2907 5.1875H54.0657L53.6407 4.375V4.25H61.3782L61.8032 5.0625V5.1875H60.3407L60.3657 12.125H60.2407L59.2407 11.475L59.2532 9.4875C58.9616 9.67917 58.7074 9.8375 58.4907 9.9625C58.2741 10.0875 58.0574 10.1833 57.8407 10.25C57.6324 10.3083 57.3949 10.3375 57.1282 10.3375ZM59.2657 8.0875C58.9991 7.82917 58.6657 7.60833 58.2657 7.425C57.8741 7.23333 57.4782 7.1375 57.0782 7.1375C56.6199 7.1375 56.2282 7.25833 55.9032 7.5C55.5782 7.73333 55.4157 8.07083 55.4157 8.5125C55.4157 8.84583 55.5324 9.1 55.7657 9.275C55.9991 9.45 56.2741 9.5375 56.5907 9.5375C56.8991 9.5375 57.2574 9.4375 57.6657 9.2375C58.0741 9.0375 58.6074 8.6875 59.2657 8.1875V8.0875ZM60.7011 1.625L60.6511 1.7C60.5177 1.64167 60.3761 1.59583 60.2261 1.5625C60.0677 1.52083 59.9052 1.5 59.7386 1.5C59.3302 1.5 59.0344 1.6 58.8511 1.8C58.6677 2 58.5761 2.24583 58.5761 2.5375C58.5761 2.85417 58.6677 3.15417 58.8511 3.4375C59.0261 3.72083 59.2677 4.04167 59.5761 4.4H58.9261C58.5511 4.025 58.2511 3.65417 58.0261 3.2875C57.7927 2.92083 57.6761 2.5375 57.6761 2.1375C57.6761 1.87917 57.7302 1.6375 57.8386 1.4125C57.9469 1.17917 58.1219 0.987499 58.3636 0.837499C58.5969 0.687499 58.8969 0.612499 59.2636 0.612499C59.9886 0.612499 60.4677 0.949999 60.7011 1.625ZM65.1867 13.5625H65.0742L63.8117 11.3625C63.5784 11.3375 63.3284 11.2792 63.0617 11.1875C62.7951 11.0958 62.5659 10.9583 62.3742 10.775C62.1826 10.5917 62.0867 10.35 62.0867 10.05C62.0867 9.88333 62.1242 9.73333 62.1992 9.6C62.2742 9.46667 62.3867 9.4 62.5367 9.4C62.7034 9.4 62.9117 9.49167 63.1617 9.675C63.4201 9.85 63.6867 10.1167 63.9617 10.475C64.2701 10.475 64.5034 10.3875 64.6617 10.2125C64.8201 10.0292 64.8992 9.79583 64.8992 9.5125C64.8992 9.1375 64.7867 8.80417 64.5617 8.5125C64.3367 8.2125 64.0576 7.95417 63.7242 7.7375C63.3909 7.52083 63.0659 7.35417 62.7492 7.2375L62.4117 6.5125V6.375H66.9867L66.9992 5.1875H61.5242L61.0992 4.375V4.25H69.0867L69.5117 5.0625V5.1875H68.0492L68.0742 12.125H67.9492L66.9492 11.475L66.9742 7.3125H64.1242V7.3375C64.3659 7.49583 64.6242 7.7 64.8992 7.95C65.1826 8.2 65.4242 8.48333 65.6242 8.8C65.8242 9.10833 65.9242 9.4375 65.9242 9.7875C65.9242 10.1625 65.7951 10.4958 65.5367 10.7875C65.2784 11.0708 64.9409 11.2542 64.5242 11.3375L65.8367 13.15L65.1867 13.5625ZM72.8516 5.1875H71.3891L71.4141 12.1875H71.2891L70.2891 11.5375L70.3391 5.1875H69.2391L68.8141 4.375V4.25H72.4266L72.8516 5.0625V5.1875ZM79.9716 5.1875H78.5091L78.5341 12.125H78.4091L77.4091 11.475L77.4341 8.3375H75.2341C75.2341 8.82083 75.2091 9.15833 75.1591 9.35C75.1091 9.54167 74.9882 9.6375 74.7966 9.6375C74.6216 9.6375 74.4341 9.58333 74.2341 9.475C74.0341 9.36667 73.8466 9.225 73.6716 9.05C73.5049 8.875 73.3674 8.68333 73.2591 8.475C73.1507 8.26667 73.0966 8.06667 73.0966 7.875C73.0966 7.64167 73.1882 7.5 73.3716 7.45C73.5632 7.39167 73.8216 7.3625 74.1466 7.3625C74.2966 7.3625 74.5424 7.36667 74.8841 7.375C75.2257 7.375 75.6174 7.38333 76.0591 7.4C76.5091 7.40833 76.9674 7.41667 77.4341 7.425L77.4591 5.1875H72.5716L72.1466 4.375V4.25H79.5466L79.9716 5.0625V5.1875ZM86.7351 11.1125C86.1934 11.1125 85.7184 10.9792 85.3101 10.7125C84.9101 10.4375 84.5517 10.075 84.2351 9.625C83.9184 9.16667 83.6142 8.6625 83.3226 8.1125L83.7976 7.8375C84.0142 8.22917 84.2351 8.60833 84.4601 8.975C84.6934 9.33333 84.9601 9.62917 85.2601 9.8625C85.5601 10.0875 85.9267 10.2 86.3601 10.2C86.6351 10.2 86.8934 10.1417 87.1351 10.025C87.3851 9.9 87.5892 9.72917 87.7476 9.5125C87.9059 9.29583 87.9851 9.04167 87.9851 8.75C87.9851 8.44167 87.8809 8.20833 87.6726 8.05C87.4726 7.89167 87.2351 7.8125 86.9601 7.8125C86.7267 7.8125 86.4851 7.8625 86.2351 7.9625C85.9851 8.05417 85.7642 8.14583 85.5726 8.2375L85.0351 7.325C85.2601 7.2 85.5059 7.0875 85.7726 6.9875C86.0476 6.8875 86.3267 6.8375 86.6101 6.8375H86.7226C86.9476 6.69583 87.1184 6.52917 87.2351 6.3375C87.3517 6.1375 87.4101 5.9375 87.4101 5.7375C87.4101 5.52083 87.3434 5.34167 87.2101 5.2C87.0767 5.05833 86.8642 4.9875 86.5726 4.9875C86.3392 4.9875 86.0392 5.04583 85.6726 5.1625C85.3059 5.27083 84.9517 5.43333 84.6101 5.65L84.0601 4.7125C84.4267 4.49583 84.7934 4.3375 85.1601 4.2375C85.5351 4.1375 85.8559 4.0875 86.1226 4.0875C86.5059 4.0875 86.8309 4.17083 87.0976 4.3375C87.3642 4.49583 87.5809 4.7 87.7476 4.95C87.9142 5.2 88.0351 5.45833 88.1101 5.725C88.1934 5.98333 88.2351 6.2125 88.2351 6.4125C88.2351 6.54583 88.2142 6.6875 88.1726 6.8375C88.1309 6.9875 88.0309 7.15 87.8726 7.325C87.9226 7.36667 87.9767 7.425 88.0351 7.5C88.1767 7.65833 88.3392 7.8 88.5226 7.925C88.7142 8.05 88.9934 8.1125 89.3601 8.1125C89.8184 8.1125 90.2059 7.975 90.5226 7.7L90.5476 5.1875H89.2101L88.7851 4.375V4.25H95.8851L96.3101 5.0625V5.1875H94.8476L94.8726 12.1875H94.7476L93.7476 11.5375L93.7976 5.1875H91.5976L91.6226 12.125H91.4976L90.4976 11.475L90.5101 8.9625C90.4434 8.9875 90.3726 9.00417 90.2976 9.0125C90.2226 9.02083 90.1434 9.025 90.0601 9.025C89.8267 9.025 89.5934 8.98333 89.3601 8.9C89.1351 8.81667 88.9392 8.72083 88.7726 8.6125L88.7226 8.6375C88.7726 8.75417 88.8059 8.875 88.8226 9C88.8476 9.11667 88.8601 9.22917 88.8601 9.3375C88.8601 9.67917 88.7642 9.98333 88.5726 10.25C88.3892 10.5167 88.1392 10.7292 87.8226 10.8875C87.5059 11.0375 87.1434 11.1125 86.7351 11.1125ZM99.571 10.3C99.0793 10.3 98.6127 10.1708 98.171 9.9125C97.7377 9.64583 97.3668 9.29167 97.0585 8.85C96.7585 8.40833 96.5585 7.9125 96.4585 7.3625C97.1085 7.20417 97.5835 7.03333 97.8835 6.85C98.1918 6.65833 98.346 6.42083 98.346 6.1375C98.346 6.02917 98.3168 5.89167 98.2585 5.725C98.2085 5.55833 98.1168 5.37917 97.9835 5.1875H96.0335L95.6085 4.375V4.25H103.158L103.583 5.0625V5.1875H102.121L102.146 12.125H102.021L101.021 11.475L101.033 9.85C100.783 10.0167 100.533 10.1333 100.283 10.2C100.033 10.2667 99.796 10.3 99.571 10.3ZM101.071 5.1875H98.671C99.0543 5.77083 99.246 6.26667 99.246 6.675C99.246 6.99167 99.1127 7.27083 98.846 7.5125C98.5877 7.75417 98.1543 7.95833 97.546 8.125C97.5543 8.375 97.6252 8.60833 97.7585 8.825C97.9002 9.03333 98.0835 9.2 98.3085 9.325C98.5418 9.45 98.8002 9.5125 99.0835 9.5125C99.3668 9.5125 99.671 9.44167 99.996 9.3C100.321 9.15833 100.671 8.93333 101.046 8.625L101.071 5.1875ZM106.921 5.1875H105.459L105.484 12.1875H105.359L104.359 11.5375L104.409 5.1875H103.309L102.884 4.375V4.25H104.546C104.188 3.63333 103.884 3.14583 103.634 2.7875C103.359 2.4125 103.117 2.15 102.909 2C102.701 1.84167 102.48 1.7625 102.246 1.7625C102.113 1.7625 101.93 1.775 101.696 1.8C101.455 1.825 101.238 1.85833 101.046 1.9L100.471 0.837499L100.484 0.75C100.809 0.691666 101.088 0.654166 101.321 0.6375C101.555 0.620833 101.709 0.612499 101.784 0.612499C102.209 0.612499 102.605 0.770833 102.971 1.0875C103.338 1.40417 103.709 1.84583 104.084 2.4125C104.434 2.94583 104.813 3.55833 105.221 4.25H106.496L106.921 5.0625V5.1875ZM114.204 5.1875H112.741L112.766 12.125H112.641L111.654 11.4875L111.704 5.1875H109.379L109.404 9.5625C109.404 9.77083 109.308 9.875 109.116 9.875C108.983 9.875 108.808 9.80833 108.591 9.675C108.383 9.54167 108.175 9.375 107.966 9.175C107.758 8.96667 107.583 8.75417 107.441 8.5375C107.3 8.3125 107.229 8.11667 107.229 7.95C107.229 7.875 107.254 7.80833 107.304 7.75C107.354 7.69167 107.433 7.6625 107.541 7.6625H108.341L108.354 5.1875H106.641L106.216 4.375V4.25H113.779L114.204 5.0625V5.1875Z" fill="#264488"/>
<path d="M8.70508 23.1826V31.7139H6.94727L3.51953 25.9951V31.7139H1.76172V23.1826H3.51953L6.95312 28.9072V23.1826H8.70508ZM13.8086 24.6416L11.4883 31.7139H9.61914L12.7891 23.1826H13.9785L13.8086 24.6416ZM15.7363 31.7139L13.4102 24.6416L13.2227 23.1826H14.4238L17.6113 31.7139H15.7363ZM15.6309 28.5381V29.915H11.125V28.5381H15.6309ZM21.4902 23.1826V31.7139H19.7383V23.1826H21.4902ZM24.1152 23.1826V24.5596H17.1543V23.1826H24.1152ZM26.9863 23.1826V31.7139H25.2344V23.1826H26.9863ZM35.6406 27.249V27.6533C35.6406 28.3018 35.5527 28.8838 35.377 29.3994C35.2012 29.915 34.9531 30.3545 34.6328 30.7178C34.3125 31.0771 33.9297 31.3525 33.4844 31.5439C33.043 31.7354 32.5527 31.8311 32.0137 31.8311C31.4785 31.8311 30.9883 31.7354 30.543 31.5439C30.1016 31.3525 29.7188 31.0771 29.3945 30.7178C29.0703 30.3545 28.8184 29.915 28.6387 29.3994C28.4629 28.8838 28.375 28.3018 28.375 27.6533V27.249C28.375 26.5967 28.4629 26.0146 28.6387 25.5029C28.8145 24.9873 29.0625 24.5479 29.3828 24.1846C29.707 23.8213 30.0898 23.5439 30.5312 23.3525C30.9766 23.1611 31.4668 23.0654 32.002 23.0654C32.541 23.0654 33.0312 23.1611 33.4727 23.3525C33.918 23.5439 34.3008 23.8213 34.6211 24.1846C34.9453 24.5479 35.1953 24.9873 35.3711 25.5029C35.5508 26.0146 35.6406 26.5967 35.6406 27.249ZM33.8652 27.6533V27.2373C33.8652 26.7842 33.8242 26.3857 33.7422 26.042C33.6602 25.6982 33.5391 25.4092 33.3789 25.1748C33.2188 24.9404 33.0234 24.7646 32.793 24.6475C32.5625 24.5264 32.2988 24.4658 32.002 24.4658C31.7051 24.4658 31.4414 24.5264 31.2109 24.6475C30.9844 24.7646 30.791 24.9404 30.6309 25.1748C30.4746 25.4092 30.3555 25.6982 30.2734 26.042C30.1914 26.3857 30.1504 26.7842 30.1504 27.2373V27.6533C30.1504 28.1025 30.1914 28.501 30.2734 28.8486C30.3555 29.1924 30.4766 29.4834 30.6367 29.7217C30.7969 29.9561 30.9922 30.1338 31.2227 30.2549C31.4531 30.376 31.7168 30.4365 32.0137 30.4365C32.3105 30.4365 32.5742 30.376 32.8047 30.2549C33.0352 30.1338 33.2285 29.9561 33.3848 29.7217C33.541 29.4834 33.6602 29.1924 33.7422 28.8486C33.8242 28.501 33.8652 28.1025 33.8652 27.6533ZM43.8496 23.1826V31.7139H42.0918L38.6641 25.9951V31.7139H36.9062V23.1826H38.6641L42.0977 28.9072V23.1826H43.8496ZM48.9531 24.6416L46.6328 31.7139H44.7637L47.9336 23.1826H49.123L48.9531 24.6416ZM50.8809 31.7139L48.5547 24.6416L48.3672 23.1826H49.5684L52.7559 31.7139H50.8809ZM50.7754 28.5381V29.915H46.2695V28.5381H50.7754ZM59.0312 30.3428V31.7139H54.7363V30.3428H59.0312ZM55.3047 23.1826V31.7139H53.5469V23.1826H55.3047ZM63.8301 23.1826H65.3184L67.5098 29.4463L69.7012 23.1826H71.1895L68.1074 31.7139H66.9121L63.8301 23.1826ZM63.0273 23.1826H64.5098L64.7793 29.2881V31.7139H63.0273V23.1826ZM70.5098 23.1826H71.998V31.7139H70.2402V29.2881L70.5098 23.1826ZM79.2637 30.3428V31.7139H74.7227V30.3428H79.2637ZM75.2969 23.1826V31.7139H73.5391V23.1826H75.2969ZM78.6719 26.6572V27.9932H74.7227V26.6572H78.6719ZM79.2578 23.1826V24.5596H74.7227V23.1826H79.2578ZM82.9082 31.7139H81.0508L81.0625 30.3428H82.9082C83.3691 30.3428 83.7578 30.2393 84.0742 30.0322C84.3906 29.8213 84.6289 29.5146 84.7891 29.1123C84.9531 28.71 85.0352 28.2236 85.0352 27.6533V27.2373C85.0352 26.7998 84.9883 26.415 84.8945 26.083C84.8047 25.751 84.6699 25.4717 84.4902 25.2451C84.3105 25.0186 84.0898 24.8486 83.8281 24.7354C83.5664 24.6182 83.2656 24.5596 82.9258 24.5596H81.0156V23.1826H82.9258C83.4961 23.1826 84.0176 23.2803 84.4902 23.4756C84.9668 23.667 85.3789 23.9424 85.7266 24.3018C86.0742 24.6611 86.3418 25.0908 86.5293 25.5908C86.7207 26.0869 86.8164 26.6396 86.8164 27.249V27.6533C86.8164 28.2588 86.7207 28.8115 86.5293 29.3115C86.3418 29.8115 86.0742 30.2412 85.7266 30.6006C85.3828 30.9561 84.9707 31.2314 84.4902 31.4268C84.0137 31.6182 83.4863 31.7139 82.9082 31.7139ZM82.0469 23.1826V31.7139H80.2891V23.1826H82.0469ZM89.9629 23.1826V31.7139H88.2109V23.1826H89.9629ZM96.5547 28.8838H98.3066C98.2715 29.458 98.1133 29.9678 97.832 30.4131C97.5547 30.8584 97.166 31.2061 96.666 31.4561C96.1699 31.7061 95.5723 31.8311 94.873 31.8311C94.3262 31.8311 93.8359 31.7373 93.4023 31.5498C92.9688 31.3584 92.5977 31.085 92.2891 30.7295C91.9844 30.374 91.752 29.9443 91.5918 29.4404C91.4316 28.9365 91.3516 28.3721 91.3516 27.7471V27.1553C91.3516 26.5303 91.4336 25.9658 91.5977 25.4619C91.7656 24.9541 92.0039 24.5225 92.3125 24.167C92.625 23.8115 92.998 23.5381 93.4316 23.3467C93.8652 23.1553 94.3496 23.0596 94.8848 23.0596C95.5957 23.0596 96.1953 23.1885 96.6836 23.4463C97.1758 23.7041 97.5566 24.0596 97.8262 24.5127C98.0996 24.9658 98.2637 25.4814 98.3184 26.0596H96.5605C96.541 25.7158 96.4727 25.4248 96.3555 25.1865C96.2383 24.9443 96.0605 24.7627 95.8223 24.6416C95.5879 24.5166 95.2754 24.4541 94.8848 24.4541C94.5918 24.4541 94.3359 24.5088 94.1172 24.6182C93.8984 24.7275 93.7148 24.8936 93.5664 25.1162C93.418 25.3389 93.3066 25.6201 93.2324 25.96C93.1621 26.2959 93.127 26.6904 93.127 27.1436V27.7471C93.127 28.1885 93.1602 28.5771 93.2266 28.9131C93.293 29.2451 93.3945 29.5264 93.5312 29.7568C93.6719 29.9834 93.8516 30.1553 94.0703 30.2725C94.293 30.3857 94.5605 30.4424 94.873 30.4424C95.2402 30.4424 95.543 30.3838 95.7812 30.2666C96.0195 30.1494 96.2012 29.9756 96.3262 29.7451C96.4551 29.5146 96.5312 29.2275 96.5547 28.8838ZM102.93 24.6416L100.609 31.7139H98.7402L101.91 23.1826H103.1L102.93 24.6416ZM104.857 31.7139L102.531 24.6416L102.344 23.1826H103.545L106.732 31.7139H104.857ZM104.752 28.5381V29.915H100.246V28.5381H104.752ZM113.008 30.3428V31.7139H108.713V30.3428H113.008ZM109.281 23.1826V31.7139H107.523V23.1826H109.281Z" fill="#264488"/>
<path d="M6.70703 48.8838H8.45898C8.42383 49.458 8.26562 49.9678 7.98438 50.4131C7.70703 50.8584 7.31836 51.2061 6.81836 51.4561C6.32227 51.7061 5.72461 51.8311 5.02539 51.8311C4.47852 51.8311 3.98828 51.7373 3.55469 51.5498C3.12109 51.3584 2.75 51.085 2.44141 50.7295C2.13672 50.374 1.9043 49.9443 1.74414 49.4404C1.58398 48.9365 1.50391 48.3721 1.50391 47.7471V47.1553C1.50391 46.5303 1.58594 45.9658 1.75 45.4619C1.91797 44.9541 2.15625 44.5225 2.46484 44.167C2.77734 43.8115 3.15039 43.5381 3.58398 43.3467C4.01758 43.1553 4.50195 43.0596 5.03711 43.0596C5.74805 43.0596 6.34766 43.1885 6.83594 43.4463C7.32812 43.7041 7.70898 44.0596 7.97852 44.5127C8.25195 44.9658 8.41602 45.4814 8.4707 46.0596H6.71289C6.69336 45.7158 6.625 45.4248 6.50781 45.1865C6.39062 44.9443 6.21289 44.7627 5.97461 44.6416C5.74023 44.5166 5.42773 44.4541 5.03711 44.4541C4.74414 44.4541 4.48828 44.5088 4.26953 44.6182C4.05078 44.7275 3.86719 44.8936 3.71875 45.1162C3.57031 45.3389 3.45898 45.6201 3.38477 45.96C3.31445 46.2959 3.2793 46.6904 3.2793 47.1436V47.7471C3.2793 48.1885 3.3125 48.5771 3.37891 48.9131C3.44531 49.2451 3.54688 49.5264 3.68359 49.7568C3.82422 49.9834 4.00391 50.1553 4.22266 50.2725C4.44531 50.3857 4.71289 50.4424 5.02539 50.4424C5.39258 50.4424 5.69531 50.3838 5.93359 50.2666C6.17188 50.1494 6.35352 49.9756 6.47852 49.7451C6.60742 49.5146 6.68359 49.2275 6.70703 48.8838ZM16.6211 47.249V47.6533C16.6211 48.3018 16.5332 48.8838 16.3574 49.3994C16.1816 49.915 15.9336 50.3545 15.6133 50.7178C15.293 51.0771 14.9102 51.3525 14.4648 51.5439C14.0234 51.7354 13.5332 51.8311 12.9941 51.8311C12.459 51.8311 11.9688 51.7354 11.5234 51.5439C11.082 51.3525 10.6992 51.0771 10.375 50.7178C10.0508 50.3545 9.79883 49.915 9.61914 49.3994C9.44336 48.8838 9.35547 48.3018 9.35547 47.6533V47.249C9.35547 46.5967 9.44336 46.0146 9.61914 45.5029C9.79492 44.9873 10.043 44.5479 10.3633 44.1846C10.6875 43.8213 11.0703 43.5439 11.5117 43.3525C11.957 43.1611 12.4473 43.0654 12.9824 43.0654C13.5215 43.0654 14.0117 43.1611 14.4531 43.3525C14.8984 43.5439 15.2812 43.8213 15.6016 44.1846C15.9258 44.5479 16.1758 44.9873 16.3516 45.5029C16.5312 46.0146 16.6211 46.5967 16.6211 47.249ZM14.8457 47.6533V47.2373C14.8457 46.7842 14.8047 46.3857 14.7227 46.042C14.6406 45.6982 14.5195 45.4092 14.3594 45.1748C14.1992 44.9404 14.0039 44.7646 13.7734 44.6475C13.543 44.5264 13.2793 44.4658 12.9824 44.4658C12.6855 44.4658 12.4219 44.5264 12.1914 44.6475C11.9648 44.7646 11.7715 44.9404 11.6113 45.1748C11.4551 45.4092 11.3359 45.6982 11.2539 46.042C11.1719 46.3857 11.1309 46.7842 11.1309 47.2373V47.6533C11.1309 48.1025 11.1719 48.501 11.2539 48.8486C11.3359 49.1924 11.457 49.4834 11.6172 49.7217C11.7773 49.9561 11.9727 50.1338 12.2031 50.2549C12.4336 50.376 12.6973 50.4365 12.9941 50.4365C13.291 50.4365 13.5547 50.376 13.7852 50.2549C14.0156 50.1338 14.209 49.9561 14.3652 49.7217C14.5215 49.4834 14.6406 49.1924 14.7227 48.8486C14.8047 48.501 14.8457 48.1025 14.8457 47.6533ZM18.6895 43.1826H20.1777L22.3691 49.4463L24.5605 43.1826H26.0488L22.9668 51.7139H21.7715L18.6895 43.1826ZM17.8867 43.1826H19.3691L19.6387 49.2881V51.7139H17.8867V43.1826ZM25.3691 43.1826H26.8574V51.7139H25.0996V49.2881L25.3691 43.1826ZM29.2012 43.1826H30.6895L32.8809 49.4463L35.0723 43.1826H36.5605L33.4785 51.7139H32.2832L29.2012 43.1826ZM28.3984 43.1826H29.8809L30.1504 49.2881V51.7139H28.3984V43.1826ZM35.8809 43.1826H37.3691V51.7139H35.6113V49.2881L35.8809 43.1826ZM40.7793 43.1826V51.7139H39.0273V43.1826H40.7793ZM46.8672 49.4814C46.8672 49.3291 46.8438 49.1924 46.7969 49.0713C46.7539 48.9463 46.6719 48.833 46.5508 48.7314C46.4297 48.626 46.2598 48.5225 46.041 48.4209C45.8223 48.3193 45.5391 48.2139 45.1914 48.1045C44.8047 47.9795 44.4375 47.8389 44.0898 47.6826C43.7461 47.5264 43.4414 47.3447 43.1758 47.1377C42.9141 46.9268 42.707 46.6826 42.5547 46.4053C42.4062 46.1279 42.332 45.8057 42.332 45.4385C42.332 45.083 42.4102 44.7607 42.5664 44.4717C42.7227 44.1787 42.9414 43.9287 43.2227 43.7217C43.5039 43.5107 43.8359 43.3486 44.2188 43.2354C44.6055 43.1221 45.0293 43.0654 45.4902 43.0654C46.1191 43.0654 46.668 43.1787 47.1367 43.4053C47.6055 43.6318 47.9688 43.9424 48.2266 44.3369C48.4883 44.7314 48.6191 45.1826 48.6191 45.6904H46.873C46.873 45.4404 46.8203 45.2217 46.7148 45.0342C46.6133 44.8428 46.457 44.6924 46.2461 44.583C46.0391 44.4736 45.7773 44.4189 45.4609 44.4189C45.1562 44.4189 44.9023 44.4658 44.6992 44.5596C44.4961 44.6494 44.3438 44.7725 44.2422 44.9287C44.1406 45.0811 44.0898 45.2529 44.0898 45.4443C44.0898 45.5889 44.125 45.7197 44.1953 45.8369C44.2695 45.9541 44.3789 46.0635 44.5234 46.165C44.668 46.2666 44.8457 46.3623 45.0566 46.4521C45.2676 46.542 45.5117 46.6299 45.7891 46.7158C46.2539 46.8564 46.6621 47.0146 47.0137 47.1904C47.3691 47.3662 47.666 47.5635 47.9043 47.7822C48.1426 48.001 48.3223 48.249 48.4434 48.5264C48.5645 48.8037 48.625 49.1182 48.625 49.4697C48.625 49.8408 48.5527 50.1729 48.4082 50.4658C48.2637 50.7588 48.0547 51.0068 47.7812 51.21C47.5078 51.4131 47.1816 51.5674 46.8027 51.6729C46.4238 51.7783 46 51.8311 45.5312 51.8311C45.1094 51.8311 44.6934 51.7764 44.2832 51.667C43.873 51.5537 43.5 51.3838 43.1641 51.1572C42.832 50.9307 42.5664 50.6416 42.3672 50.29C42.168 49.9385 42.0684 49.5225 42.0684 49.042H43.832C43.832 49.3076 43.873 49.5322 43.9551 49.7158C44.0371 49.8994 44.1523 50.0479 44.3008 50.1611C44.4531 50.2744 44.6328 50.3564 44.8398 50.4072C45.0508 50.458 45.2812 50.4834 45.5312 50.4834C45.8359 50.4834 46.0859 50.4404 46.2812 50.3545C46.4805 50.2686 46.627 50.1494 46.7207 49.9971C46.8184 49.8447 46.8672 49.6729 46.8672 49.4814ZM54.2617 49.4814C54.2617 49.3291 54.2383 49.1924 54.1914 49.0713C54.1484 48.9463 54.0664 48.833 53.9453 48.7314C53.8242 48.626 53.6543 48.5225 53.4355 48.4209C53.2168 48.3193 52.9336 48.2139 52.5859 48.1045C52.1992 47.9795 51.832 47.8389 51.4844 47.6826C51.1406 47.5264 50.8359 47.3447 50.5703 47.1377C50.3086 46.9268 50.1016 46.6826 49.9492 46.4053C49.8008 46.1279 49.7266 45.8057 49.7266 45.4385C49.7266 45.083 49.8047 44.7607 49.9609 44.4717C50.1172 44.1787 50.3359 43.9287 50.6172 43.7217C50.8984 43.5107 51.2305 43.3486 51.6133 43.2354C52 43.1221 52.4238 43.0654 52.8848 43.0654C53.5137 43.0654 54.0625 43.1787 54.5312 43.4053C55 43.6318 55.3633 43.9424 55.6211 44.3369C55.8828 44.7314 56.0137 45.1826 56.0137 45.6904H54.2676C54.2676 45.4404 54.2148 45.2217 54.1094 45.0342C54.0078 44.8428 53.8516 44.6924 53.6406 44.583C53.4336 44.4736 53.1719 44.4189 52.8555 44.4189C52.5508 44.4189 52.2969 44.4658 52.0938 44.5596C51.8906 44.6494 51.7383 44.7725 51.6367 44.9287C51.5352 45.0811 51.4844 45.2529 51.4844 45.4443C51.4844 45.5889 51.5195 45.7197 51.5898 45.8369C51.6641 45.9541 51.7734 46.0635 51.918 46.165C52.0625 46.2666 52.2402 46.3623 52.4512 46.4521C52.6621 46.542 52.9062 46.6299 53.1836 46.7158C53.6484 46.8564 54.0566 47.0146 54.4082 47.1904C54.7637 47.3662 55.0605 47.5635 55.2988 47.7822C55.5371 48.001 55.7168 48.249 55.8379 48.5264C55.959 48.8037 56.0195 49.1182 56.0195 49.4697C56.0195 49.8408 55.9473 50.1729 55.8027 50.4658C55.6582 50.7588 55.4492 51.0068 55.1758 51.21C54.9023 51.4131 54.5762 51.5674 54.1973 51.6729C53.8184 51.7783 53.3945 51.8311 52.9258 51.8311C52.5039 51.8311 52.0879 51.7764 51.6777 51.667C51.2676 51.5537 50.8945 51.3838 50.5586 51.1572C50.2266 50.9307 49.9609 50.6416 49.7617 50.29C49.5625 49.9385 49.4629 49.5225 49.4629 49.042H51.2266C51.2266 49.3076 51.2676 49.5322 51.3496 49.7158C51.4316 49.8994 51.5469 50.0479 51.6953 50.1611C51.8477 50.2744 52.0273 50.3564 52.2344 50.4072C52.4453 50.458 52.6758 50.4834 52.9258 50.4834C53.2305 50.4834 53.4805 50.4404 53.6758 50.3545C53.875 50.2686 54.0215 50.1494 54.1152 49.9971C54.2129 49.8447 54.2617 49.6729 54.2617 49.4814ZM59.084 43.1826V51.7139H57.332V43.1826H59.084ZM67.7383 47.249V47.6533C67.7383 48.3018 67.6504 48.8838 67.4746 49.3994C67.2988 49.915 67.0508 50.3545 66.7305 50.7178C66.4102 51.0771 66.0273 51.3525 65.582 51.5439C65.1406 51.7354 64.6504 51.8311 64.1113 51.8311C63.5762 51.8311 63.0859 51.7354 62.6406 51.5439C62.1992 51.3525 61.8164 51.0771 61.4922 50.7178C61.168 50.3545 60.916 49.915 60.7363 49.3994C60.5605 48.8838 60.4727 48.3018 60.4727 47.6533V47.249C60.4727 46.5967 60.5605 46.0146 60.7363 45.5029C60.9121 44.9873 61.1602 44.5479 61.4805 44.1846C61.8047 43.8213 62.1875 43.5439 62.6289 43.3525C63.0742 43.1611 63.5645 43.0654 64.0996 43.0654C64.6387 43.0654 65.1289 43.1611 65.5703 43.3525C66.0156 43.5439 66.3984 43.8213 66.7188 44.1846C67.043 44.5479 67.293 44.9873 67.4688 45.5029C67.6484 46.0146 67.7383 46.5967 67.7383 47.249ZM65.9629 47.6533V47.2373C65.9629 46.7842 65.9219 46.3857 65.8398 46.042C65.7578 45.6982 65.6367 45.4092 65.4766 45.1748C65.3164 44.9404 65.1211 44.7646 64.8906 44.6475C64.6602 44.5264 64.3965 44.4658 64.0996 44.4658C63.8027 44.4658 63.5391 44.5264 63.3086 44.6475C63.082 44.7646 62.8887 44.9404 62.7285 45.1748C62.5723 45.4092 62.4531 45.6982 62.3711 46.042C62.2891 46.3857 62.248 46.7842 62.248 47.2373V47.6533C62.248 48.1025 62.2891 48.501 62.3711 48.8486C62.4531 49.1924 62.5742 49.4834 62.7344 49.7217C62.8945 49.9561 63.0898 50.1338 63.3203 50.2549C63.5508 50.376 63.8145 50.4365 64.1113 50.4365C64.4082 50.4365 64.6719 50.376 64.9023 50.2549C65.1328 50.1338 65.3262 49.9561 65.4824 49.7217C65.6387 49.4834 65.7578 49.1924 65.8398 48.8486C65.9219 48.501 65.9629 48.1025 65.9629 47.6533ZM75.9473 43.1826V51.7139H74.1895L70.7617 45.9951V51.7139H69.0039V43.1826H70.7617L74.1953 48.9072V43.1826H75.9473Z" fill="#264488"/>
</svg>
