<svg id="Driving-Licence" xmlns="http://www.w3.org/2000/svg" width="46.544" height="43.218" viewBox="0 0 46.544 43.218">
  <path id="Path_27020" data-name="Path 27020" d="M82.35,78.34a16.39,16.39,0,0,1,3.28,2.3,2.08,2.08,0,0,1,.62-.56,4.55,4.55,0,0,1,2-.45,5.191,5.191,0,0,1,1.9.36c-.381-4-1.9-6.74-4.591-8.36a31.21,31.21,0,0,1-3.21,6.71Z" transform="translate(-47.61 -49.262)" fill="#3f3d56"/>
  <path id="Path_27021" data-name="Path 27021" d="M81.32,70.11A27.05,27.05,0,0,1,78,76.79a16.18,16.18,0,0,0-3-.3,16,16,0,0,0-10.38,3.83V77.16s-4.23-.79-8.48-1.34a5.14,5.14,0,0,0,.9-1.47H66a1.86,1.86,0,0,0,1.86-1.86V68.74C70.79,68.93,79,69.69,81.32,70.11Z" transform="translate(-47.61 -49.262)" fill="#3f3d56"/>
  <path id="Path_27022" data-name="Path 27022" d="M76.92,67.46a9.19,9.19,0,1,0-6.538-2.621A9.1,9.1,0,0,0,76.92,67.46Z" transform="translate(-47.61 -49.262)" fill="#3f3d56"/>
  <path id="Path_27023" data-name="Path 27023" d="M74.9,78.38a14.19,14.19,0,0,0-14,12.09l3,.46a11.13,11.13,0,0,1,19.42-5.71,5.5,5.5,0,0,1,1.92-2.36A14.13,14.13,0,0,0,74.9,78.38Z" transform="translate(-47.61 -49.262)" fill="#3f3d56"/>
  <path id="Path_27024" data-name="Path 27024" d="M92.05,84.1c-1.39-2.14-2.82-2.59-3.78-2.59a2.55,2.55,0,0,0-1.13.24c1,.55.26,1.88-.69,2.54-1.22.83-2.62,2.35-.55,5.69,1.12,1.83,2.38,2.5,3.64,2.5A6.23,6.23,0,0,0,93.06,91C94.31,90.12,95.06,88.72,92.05,84.1Z" transform="translate(-47.61 -49.262)" fill="#3f3d56"/>
  <path id="Path_27025" data-name="Path 27025" d="M57.2,73.23h8.62a.89.89,0,0,0,.89-.89V64.15a.89.89,0,0,0-.89-.89H52.5a.89.89,0,0,0-.88.89v1.11a4.64,4.64,0,0,1,1,.14l.23.07v-1H65.47V72H57.31a8.11,8.11,0,0,1-.11,1.23Z" transform="translate(-47.61 -49.262)" fill="#3f3d56"/>
  <path id="Path_27026" data-name="Path 27026" d="M63.25,67.27a1.48,1.48,0,1,0-1.48,1.48,1.48,1.48,0,0,0,1.48-1.48Z" transform="translate(-47.61 -49.262)" fill="#3f3d56"/>
  <path id="Path_27027" data-name="Path 27027" d="M61.77,69.1c-1.29,0-2.34.63-2.34,1.72h4.68C64.11,69.73,63.06,69.1,61.77,69.1Z" transform="translate(-47.61 -49.262)" fill="#3f3d56"/>
  <path id="Path_27028" data-name="Path 27028" d="M54.46,66.3a6.71,6.71,0,0,1,1,.88h3.35V66.12H54.46Z" transform="translate(-47.61 -49.262)" fill="#3f3d56"/>
  <path id="Path_27029" data-name="Path 27029" d="M58.78,68.25H56.22a7.58,7.58,0,0,1,.55,1.06h2Z" transform="translate(-47.61 -49.262)" fill="#3f3d56"/>
  <path id="Path_27030" data-name="Path 27030" d="M51.39,76.77a4.7,4.7,0,0,0,4.51-4.68,5.55,5.55,0,0,0-3.63-5.32,6.09,6.09,0,0,0-2,0c-2.6.54-2.61,2.29-2.66,5,0,1.78,0,3.32.76,4.24S49.73,76.9,51.39,76.77Z" transform="translate(-47.61 -49.262)" fill="#3f3d56"/>
</svg>
