<svg  xmlns="http://www.w3.org/2000/svg" width="48" height="48" viewBox="0 0 48 48" fill="currentColor">
  <rect  width="48" height="48" fill="none"/>
  <path  data-name="Path 26292" d="M6.608,21.614,2.5,14.548H4.86V2.5H26.1V5.835H8.058v8.713h2.36ZM31.1,18.925H27.26L34.357,2.5H37.2l7.03,16.442H40.346l-1.463-3.612H32.511Zm2.636-6.67h3.955L35.7,7.083ZM12.387,29.084h1.995V34.5a3.2,3.2,0,0,1-1.516.343,3.238,3.238,0,0,1-1.657-.488,3.6,3.6,0,0,0-.756-.505,4.442,4.442,0,0,0,1.358-3.344,4.265,4.265,0,0,0-4.394-4.618,4.539,4.539,0,0,0-3.955,2.2l-.123.207,2.144,2.395.215-.413a1.784,1.784,0,0,1,1.643-1.112c.848,0,1.38.624,1.38,1.626a1.7,1.7,0,0,1-1.758,1.942H5.9V36H7.43c1.287,0,1.938.58,1.938,1.727a1.75,1.75,0,0,1-1.8,1.942,3.063,3.063,0,0,1-2.584-1.758l-.22-.4L2.5,40.069l.136.207a5.822,5.822,0,0,0,4.917,2.689c2.882,0,4.908-2.114,4.978-5.163a3.115,3.115,0,0,0,1.867.053v6.389h3.238V29.084h3.1V44.243h3.238V29.084h2.487V26.008H12.387Zm23.934,1.67h2.36v9.755H27.994v3.735H41.879V30.754h2.364l-4.113-7.94Z" transform="translate(0.5 0.5)" />
</svg>
