<svg id="ico-notification" xmlns="http://www.w3.org/2000/svg" width="48" height="48" viewBox="0 0 48 48" fill="currentColor">
  <path id="Path_26576" data-name="Path 26576" d="M0,0H48V48H0Z" fill="none"/>
  <path id="Path_26577" data-name="Path 26577" d="M24,46a4.768,4.768,0,0,0,5-4.462H19A4.768,4.768,0,0,0,24,46ZM39,32.615V21.462c0-6.848-4.075-12.582-11.25-14.1V5.846A3.561,3.561,0,0,0,24,2.5a3.561,3.561,0,0,0-3.75,3.346V7.363C13.1,8.88,9,14.591,9,21.462V32.615L4,37.077v2.231H44V37.077Zm-5,2.231H14V21.462c0-5.532,3.775-10.038,10-10.038s10,4.506,10,10.038Z"/>
</svg>
